<svg xmlns="http://www.w3.org/2000/svg" version="1.1" xmlns:xlink="http://www.w3.org/1999/xlink" xmlnsSvgjs="http://svgjs.dev/svgjs" width="2000" height="272" viewBox="0 0 2000 272"><g transform="matrix(1,0,0,1,-1.2121212121212466,0.7254621296964956)"><svg viewBox="0 0 396 54" data-background-color="#ffffff" preserveAspectRatio="xMidYMid meet" height="272" width="2000" xmlns="http://www.w3.org/2000/svg" xmlns:xlink="http://www.w3.org/1999/xlink"><g id="tight-bounds" transform="matrix(1,0,0,1,0.2400000000000091,-0.14402556986621562)"><svg viewBox="0 0 395.52 54.288051139732445" height="54.288051139732445" width="395.52"><g><svg viewBox="0 0 395.52 54.288051139732445" height="54.288051139732445" width="395.52"><g><svg viewBox="0 0 510.0603173881423 70.00955854246469" height="54.288051139732445" width="395.52"><g><rect width="2.923019855945065" height="49.913173814007116" x="97.21645101678206" y="10.048192364228786" fill="#49a8ff" opacity="1" stroke-width="0" stroke="transparent" fill-opacity="1" class="rect-qz-0" data-fill-palette-color="primary" rx="1%" id="qz-0" data-palette-color="#49a8ff"></rect></g><g><rect width="2.923019855945065" height="49.913173814007116" x="103.96541309255052" y="10.048192364228786" fill="#49a8ff" opacity="1" stroke-width="0" stroke="transparent" fill-opacity="1" class="rect-qz-1" data-fill-palette-color="primary" rx="1%" id="qz-1" data-palette-color="#49a8ff"></rect></g><g transform="matrix(1,0,0,1,114.54031738814236,10.172354488144222)"><svg viewBox="0 0 395.52 49.664849566176244" height="49.664849566176244" width="395.52"><g id="textblocktransform"><svg viewBox="0 0 395.52 49.664849566176244" height="49.664849566176244" width="395.52" id="textblock"><g><svg viewBox="0 0 395.52 32.41280113034263" height="32.41280113034263" width="395.52"><g transform="matrix(1,0,0,1,0,0)"><svg width="395.52" viewBox="3.25 -35 566.14 46.4" height="32.41280113034263" data-palette-color="#49a8ff"><path d="M23.15-4.4L23.15 0 3.25 0 3.25-26.65Q3.25-30.35 5.6-32.6L5.6-32.6Q7.2-34.1 9.2-34.55 11.2-35 14.1-35L14.1-35 23.15-35 23.15-30.6 13.45-30.6Q7.95-30.6 7.95-26L7.95-26 7.95-20.3 19.5-20.3 19.5-15.9 7.95-15.9 7.95-4.4 23.15-4.4ZM37 0.55L37 0.55Q32.7-3.5 30.67-8.4 28.65-13.3 26.65-24L26.65-24 31.25-24Q33.2-11.95 37-5.75L37-5.75Q40.8-11.95 42.75-24L42.75-24 47.35-24Q45.35-13.3 43.32-8.4 41.3-3.5 37 0.55ZM63.35-24.5L63.35-24.5Q71.84-24.15 71.84-17.45L71.84-17.45Q71.84-9.1 60.9-9.1L60.9-9.1 58.85-9.1 58.85-12.95 61.25-12.95Q64.59-12.95 65.9-13.98 67.2-15 67.2-17.4L67.2-17.4Q67.2-18.95 66.05-19.73 64.9-20.5 63.1-20.5L63.1-20.5Q59.55-20.5 57.52-18 55.5-15.5 55.5-12L55.5-12Q55.5-8.3 57.67-6 59.85-3.7 63.35-3.7L63.35-3.7Q66.5-3.7 68.5-5.25L68.5-5.25 71.5-2.3Q68.05 0.5 63.35 0.5L63.35 0.5Q57.65 0.5 54.25-2.85 50.85-6.2 50.85-11.5L50.85-11.5Q50.85-17.4 54.2-21.05 57.55-24.7 63.35-24.5ZM77.09 0L77.09-24 85.74-24Q91.29-24 93.69-22.35L93.69-22.35Q95.84-20.9 96.42-18.88 96.99-16.85 96.99-13.55L96.99-13.55 96.99 0 92.59 0 92.59-13.5Q92.59-14.4 92.54-15.03 92.49-15.65 92.19-16.63 91.89-17.6 91.34-18.23 90.79-18.85 89.74-19.33 88.69-19.8 87.19-19.8L87.19-19.8 81.49-19.8 81.49 0 77.09 0ZM104.94-19.8L100.49-19.8 109.44-28.75 109.44-24 116.19-24 116.19-19.8 109.44-19.8 109.44-9.5Q109.44-7.75 110.02-6.6 110.59-5.45 111.69-4.98 112.79-4.5 113.77-4.35 114.74-4.2 116.19-4.2L116.19-4.2 116.19 0Q110.44 0 107.69-2.2 104.94-4.4 104.94-9.5L104.94-9.5 104.94-19.8ZM145.24-26.3L149.34-10.85 149.64-10.85 153.74-26.3Q155.04-31.3 157.74-33.15 160.44-35 165.89-35L165.89-35 165.89 0 161.19 0 161.19-29.7Q159.89-29.15 159.21-28.15 158.54-27.15 157.94-25.15L157.94-25.15 151.69-3.7 147.28-3.7 140.99-25.15Q140.39-27.2 139.74-28.18 139.09-29.15 137.78-29.7L137.78-29.7 137.78 0 133.09 0 133.09-35Q138.53-35 141.21-33.13 143.89-31.25 145.24-26.3L145.24-26.3ZM185.73-14.1L185.73-14.1 185.73-9.6Q183.83-11.05 181.08-11.05L181.08-11.05Q178.73-11.05 177.43-10.13 176.13-9.2 176.13-7.5L176.13-7.5Q176.13-4.2 181.03-4.2L181.03-4.2 187.63-4.2 187.63-13.75Q187.63-19.8 181.73-19.8L181.73-19.8 173.73-19.8 173.73-24 181.98-24Q186.83-24 189.43-21.6 192.03-19.2 192.03-14.7L192.03-14.7 192.03 0 180.88 0Q176.63 0 174.13-1.9 171.63-3.8 171.63-7.45 171.63-11.1 174.28-13 176.93-14.9 180.93-14.9L180.93-14.9Q183.18-14.9 185.73-14.1ZM197.78 0L197.78-24 206.43-24Q211.98-24 214.38-22.35L214.38-22.35Q216.53-20.9 217.11-18.88 217.68-16.85 217.68-13.55L217.68-13.55 217.68 0 213.28 0 213.28-13.5Q213.28-14.4 213.23-15.03 213.18-15.65 212.88-16.63 212.58-17.6 212.03-18.23 211.48-18.85 210.43-19.33 209.38-19.8 207.88-19.8L207.88-19.8 202.18-19.8 202.18 0 197.78 0ZM237.03-14.1L237.03-14.1 237.03-9.6Q235.13-11.05 232.38-11.05L232.38-11.05Q230.03-11.05 228.73-10.13 227.43-9.2 227.43-7.5L227.43-7.5Q227.43-4.2 232.33-4.2L232.33-4.2 238.93-4.2 238.93-13.75Q238.93-19.8 233.03-19.8L233.03-19.8 225.03-19.8 225.03-24 233.28-24Q238.13-24 240.73-21.6 243.33-19.2 243.33-14.7L243.33-14.7 243.33 0 232.18 0Q227.93 0 225.43-1.9 222.93-3.8 222.93-7.45 222.93-11.1 225.58-13 228.23-14.9 232.23-14.9L232.23-14.9Q234.48-14.9 237.03-14.1ZM259.98 0L259.98 0Q255.08 0 251.58-3.3 248.08-6.6 248.08-11.75L248.08-11.75Q248.08-16.95 251.6-20.48 255.13-24 260.33-24L260.33-24 272.08-24 272.08-0.7Q272.08 1.55 271.5 3.35 270.93 5.15 269.88 6.4 268.83 7.65 267.98 8.35 267.13 9.05 265.93 9.8L265.93 9.8Q262.83 11.4 258.38 11.4L258.38 11.4 252.78 11.4 252.78 7.2 257.93 7.2Q262.33 7.2 264.18 6.1L264.18 6.1Q267.58 4.2 267.58-0.2L267.58-0.2 267.58-19.8 260.33-19.8Q256.78-19.8 254.68-17.6 252.58-15.4 252.58-11.75L252.58-11.75Q252.58-8.25 254.75-6.23 256.93-4.2 259.98-4.2L259.98-4.2Q263.28-4.2 265.78-6L265.78-6 265.78-1.5Q263.08 0 259.98 0ZM290.07-24.5L290.07-24.5Q298.57-24.15 298.57-17.45L298.57-17.45Q298.57-9.1 287.62-9.1L287.62-9.1 285.57-9.1 285.57-12.95 287.97-12.95Q291.32-12.95 292.62-13.98 293.92-15 293.92-17.4L293.92-17.4Q293.92-18.95 292.77-19.73 291.62-20.5 289.82-20.5L289.82-20.5Q286.27-20.5 284.25-18 282.22-15.5 282.22-12L282.22-12Q282.22-8.3 284.4-6 286.57-3.7 290.07-3.7L290.07-3.7Q293.22-3.7 295.22-5.25L295.22-5.25 298.22-2.3Q294.77 0.5 290.07 0.5L290.07 0.5Q284.37 0.5 280.97-2.85 277.57-6.2 277.57-11.5L277.57-11.5Q277.57-17.4 280.92-21.05 284.27-24.7 290.07-24.5ZM303.82 0L303.82-24 325.87-24Q329.42-24 331.52-22.65L331.52-22.65Q333.67-21.3 334.35-19.15 335.02-17 335.02-14L335.02-14 335.02 0 330.62 0 330.62-14Q330.62-17.9 328.27-19.15L328.27-19.15Q327.07-19.8 323.42-19.8L323.42-19.8 321.37-19.8 321.37 0 316.97 0 316.97-19.8 308.22-19.8 308.22 0 303.82 0ZM352.77-24.5L352.77-24.5Q361.27-24.15 361.27-17.45L361.27-17.45Q361.27-9.1 350.32-9.1L350.32-9.1 348.27-9.1 348.27-12.95 350.67-12.95Q354.02-12.95 355.32-13.98 356.62-15 356.62-17.4L356.62-17.4Q356.62-18.95 355.47-19.73 354.32-20.5 352.52-20.5L352.52-20.5Q348.97-20.5 346.94-18 344.92-15.5 344.92-12L344.92-12Q344.92-8.3 347.09-6 349.27-3.7 352.77-3.7L352.77-3.7Q355.92-3.7 357.92-5.25L357.92-5.25 360.92-2.3Q357.47 0.5 352.77 0.5L352.77 0.5Q347.07 0.5 343.67-2.85 340.27-6.2 340.27-11.5L340.27-11.5Q340.27-17.4 343.62-21.05 346.97-24.7 352.77-24.5ZM366.52 0L366.52-24 375.17-24Q380.72-24 383.12-22.35L383.12-22.35Q385.27-20.9 385.84-18.88 386.42-16.85 386.42-13.55L386.42-13.55 386.42 0 382.02 0 382.02-13.5Q382.02-14.4 381.97-15.03 381.92-15.65 381.62-16.63 381.32-17.6 380.77-18.23 380.22-18.85 379.17-19.33 378.12-19.8 376.62-19.8L376.62-19.8 370.92-19.8 370.92 0 366.52 0ZM394.36-19.8L389.91-19.8 398.86-28.75 398.86-24 405.61-24 405.61-19.8 398.86-19.8 398.86-9.5Q398.86-7.75 399.44-6.6 400.01-5.45 401.11-4.98 402.21-4.5 403.19-4.35 404.16-4.2 405.61-4.2L405.61-4.2 405.61 0Q399.86 0 397.11-2.2 394.36-4.4 394.36-9.5L394.36-9.5 394.36-19.8ZM431.01-35L440.16-35 440.16-30.6 431.31-30.6Q426.26-30.6 426.26-26.5L426.26-26.5Q426.26-24.3 428.48-22.78 430.71-21.25 434.51-19.85L434.51-19.85Q436.21-19.2 437.41-18.53 438.61-17.85 439.81-16.75 441.01-15.65 441.61-13.93 442.21-12.2 442.21-9.95L442.21-9.95Q442.21-7.45 441.16-5.48 440.11-3.5 438.46-2.38 436.81-1.25 435.08-0.68 433.36-0.1 431.71-0.05L431.71-0.05Q431.01 0 429.71 0L429.71 0 421.91 0 421.91-4.4 429.56-4.4Q432.96-4.4 435.11-5.83 437.26-7.25 437.26-10L437.26-10Q437.26-11.35 436.66-12.38 436.06-13.4 434.93-14.15 433.81-14.9 432.63-15.45 431.46-16 429.81-16.6L429.81-16.6Q429.36-16.75 429.11-16.85L429.11-16.85Q421.26-19.85 421.26-26.65L421.26-26.65Q421.26-30.85 423.96-32.93 426.66-35 431.01-35L431.01-35ZM446.45-11.65L446.45-24 450.85-24 450.85-11.45Q450.85-7.4 452.1-5.8 453.35-4.2 456.7-4.2L456.7-4.2 461.95-4.2 461.95-24 466.35-24 466.35-1.2Q466.35 5.05 463.08 8.22 459.81 11.4 452.81 11.4L452.81 11.4 449.2 11.4 449.2 7.2 452.35 7.2Q461.5 7.2 461.95 0L461.95 0 457.75 0Q451.2 0 448.83-2.3 446.45-4.6 446.45-11.65L446.45-11.65ZM479.9-24L488.75-24 488.75-19.8 479.9-19.8Q478.45-19.8 477.4-19.25 476.35-18.7 476.35-17.7L476.35-17.7Q476.35-17.1 476.6-16.63 476.85-16.15 477.18-15.85 477.5-15.55 478.18-15.23 478.85-14.9 479.23-14.78 479.6-14.65 482.4-13.75 485.2-12.85 486.55-12.25 487.9-11.65 488.63-10.63 489.35-9.6 489.55-8.63 489.75-7.65 489.75-6.7L489.75-6.7Q489.75 0 480.55 0L480.55 0 471.9 0 471.9-4.2 480.55-4.2Q485.25-4.2 485.25-6.7L485.25-6.7Q485.25-7.9 483.88-8.7 482.5-9.5 480.53-10.05 478.55-10.6 476.58-11.33 474.6-12.05 473.23-13.68 471.85-15.3 471.85-17.7L471.85-17.7Q471.85-20.75 474.2-22.38 476.55-24 479.9-24L479.9-24ZM496.7-19.8L492.25-19.8 501.2-28.75 501.2-24 507.95-24 507.95-19.8 501.2-19.8 501.2-9.5Q501.2-7.75 501.77-6.6 502.35-5.45 503.45-4.98 504.55-4.5 505.52-4.35 506.5-4.2 507.95-4.2L507.95-4.2 507.95 0Q502.2 0 499.45-2.2 496.7-4.4 496.7-9.5L496.7-9.5 496.7-19.8ZM524.45-24.5L524.45-24.5Q532.95-24.15 532.95-17.45L532.95-17.45Q532.95-9.1 522-9.1L522-9.1 519.95-9.1 519.95-12.95 522.35-12.95Q525.7-12.95 527-13.98 528.3-15 528.3-17.4L528.3-17.4Q528.3-18.95 527.15-19.73 526-20.5 524.2-20.5L524.2-20.5Q520.65-20.5 518.62-18 516.6-15.5 516.6-12L516.6-12Q516.6-8.3 518.77-6 520.95-3.7 524.45-3.7L524.45-3.7Q527.6-3.7 529.6-5.25L529.6-5.25 532.6-2.3Q529.15 0.5 524.45 0.5L524.45 0.5Q518.75 0.5 515.35-2.85 511.95-6.2 511.95-11.5L511.95-11.5Q511.95-17.4 515.3-21.05 518.65-24.7 524.45-24.5ZM538.19 0L538.19-24 560.24-24Q563.79-24 565.89-22.65L565.89-22.65Q568.04-21.3 568.72-19.15 569.39-17 569.39-14L569.39-14 569.39 0 564.99 0 564.99-14Q564.99-17.9 562.64-19.15L562.64-19.15Q561.44-19.8 557.79-19.8L557.79-19.8 555.74-19.8 555.74 0 551.34 0 551.34-19.8 542.59-19.8 542.59 0 538.19 0Z" opacity="1" transform="matrix(1,0,0,1,0,0)" fill="#49a8ff" class="wordmark-text-0" data-fill-palette-color="primary" id="text-0"></path></svg></g></svg></g><g transform="matrix(1,0,0,1,0,40.06468556998939)"><svg viewBox="0 0 232.209792 9.600163996186845" height="9.600163996186845" width="232.209792"><g transform="matrix(1,0,0,1,0,0)"><svg width="232.209792" viewBox="0.5 -32.4 996.47 41.2" height="9.600163996186845" data-palette-color="#3d859f"><path d="M19.75 0L11.25 0 0.5-29.35 7.5-29.35 14.55-10.15 15.7-5.3 16.2-5.3 16.85-8.7 23.5-29.35 32-29.35 38.95-8.7 39.85-5.3 40.35-5.3 41.5-10.15 48.05-29.35 55.05-29.35 54.55-26.35 44.25 0 35.75 0 28.95-19.65 27.95-22.85 27.45-22.85 26.5-19.65 19.75 0ZM72.7 0L62.65 0Q60.15 0 58.8-0.65 57.45-1.3 56.87-2.3 56.3-3.3 56.17-4.4 56.05-5.5 56.05-6.4L56.05-6.4 56.05-16Q56.05-16.75 56.17-17.82 56.3-18.9 56.87-19.95 57.45-21 58.82-21.7 60.2-22.4 62.65-22.4L62.65-22.4 73.4-22.4Q76.7-22.4 78.57-21.78 80.45-21.15 81.22-19.75 82-18.35 82-16L82-16 82-8.6 73.25-8.6Q68.75-8.6 65.92-8.8 63.1-9 62.15-9.05L62.15-9.05 62.15-6.3Q62.1-4.3 64.55-4.3L64.55-4.3 67.1-4.3Q69.8-4.3 72.37-4.38 74.95-4.45 77.1-4.58 79.25-4.7 80.55-4.8L80.55-4.8 82.55-1.55Q82.55 0 72.7 0L72.7 0ZM62.15-16.1L62.15-12.9 75.9-12.9 75.9-16.1Q75.9-17.1 75.67-17.5 75.45-17.9 74.35-18 73.25-18.1 70.6-18.1L70.6-18.1 64.55-18.1Q62.15-18.1 62.15-16.1L62.15-16.1ZM106.64 0L100.04 0 100.04-25.4 99.54-29.4 107.14-29.4 118.44-9.4 130.14-29.4 136.89-29.4 136.89 0 130.29 0 130.29-18.65 129.74-18.65 127.79-14.3 121.49-3 115.44-3 109.14-14.3 107.14-18.65 106.64-18.65 106.64 0ZM152.84 0L150.34 0Q146.54 0 144.84-1.78 143.14-3.55 143.14-6.65L143.14-6.65Q143.14-9.9 144.92-11.65 146.69-13.4 150.34-13.4L150.34-13.4 152.89-13.4Q156.64-13.4 159.64-13.2 162.64-13 164.59-12.8L164.59-12.8 164.59-16.1Q164.59-16.55 164.49-17.03 164.39-17.5 163.89-17.8 163.39-18.1 162.19-18.1L162.19-18.1 159.69-18.1Q154.24-18.1 150.59-17.93 146.94-17.75 145.64-17.6L145.64-17.6 145.09-21.4Q145.09-22.1 148.89-22.25 152.69-22.4 161.59-22.4L161.59-22.4 164.09-22.4Q166.59-22.4 167.94-21.7 169.29-21 169.87-19.95 170.44-18.9 170.57-17.82 170.69-16.75 170.69-16L170.69-16 170.69 0 166.59 0 164.64-1Q162.54-0.65 159.59-0.33 156.64 0 152.84 0L152.84 0ZM151.64-4.3L151.64-4.3 163.09-4.3Q164.19-4.3 164.39-4.5 164.59-4.7 164.59-5.75L164.59-5.75 164.59-9.6 151.64-9.6Q150.29-9.6 149.77-8.95 149.24-8.3 149.24-6.9L149.24-6.9Q149.24-5.5 149.84-4.9 150.44-4.3 151.64-4.3ZM200.39 0.5L200.39 0.5Q198.29 0.5 196.81 0 195.34-0.5 193.69-2.15L193.69-2.15Q193.54-2.3 192.89-2.95 192.24-3.6 191.46-4.4 190.69-5.2 190.04-5.85 189.39-6.5 189.19-6.7L189.19-6.7Q187.94-7.95 186.81-8.65 185.69-9.35 184.04-9.35L184.04-9.35Q182.94-9.35 182.74-9.15 182.54-8.95 182.54-7.8L182.54-7.8 182.54 0 176.44 0 176.44-31.65 182.54-31.65 182.54-13.65 184.14-13.65Q185.04-13.65 185.74-14.35L185.74-14.35Q186.19-14.8 187.44-16.15 188.69-17.5 190.26-19.2 191.84-20.9 193.14-22.35L193.14-22.35 200.49-22.35 199.69-20.8Q198.54-19.6 197.19-18.28 195.84-16.95 194.56-15.73 193.29-14.5 192.24-13.58 191.19-12.65 190.64-12.35L190.64-12.35Q192.14-11.55 193.34-10.53 194.54-9.5 195.94-8.22 197.34-6.95 199.29-5.35L199.29-5.35Q201.04-3.95 202.54-3.73 204.04-3.5 204.34-3.5L204.34-3.5 203.44 0Q202.94 0.15 202.09 0.33 201.24 0.5 200.39 0.5ZM223.49 0L213.44 0Q210.94 0 209.59-0.65 208.24-1.3 207.66-2.3 207.09-3.3 206.96-4.4 206.84-5.5 206.84-6.4L206.84-6.4 206.84-16Q206.84-16.75 206.96-17.82 207.09-18.9 207.66-19.95 208.24-21 209.61-21.7 210.99-22.4 213.44-22.4L213.44-22.4 224.19-22.4Q227.49-22.4 229.36-21.78 231.24-21.15 232.01-19.75 232.79-18.35 232.79-16L232.79-16 232.79-8.6 224.04-8.6Q219.54-8.6 216.71-8.8 213.89-9 212.94-9.05L212.94-9.05 212.94-6.3Q212.89-4.3 215.34-4.3L215.34-4.3 217.89-4.3Q220.59-4.3 223.16-4.38 225.74-4.45 227.89-4.58 230.04-4.7 231.34-4.8L231.34-4.8 233.34-1.55Q233.34 0 223.49 0L223.49 0ZM212.94-16.1L212.94-12.9 226.69-12.9 226.69-16.1Q226.69-17.1 226.46-17.5 226.24-17.9 225.14-18 224.04-18.1 221.39-18.1L221.39-18.1 215.34-18.1Q212.94-18.1 212.94-16.1L212.94-16.1ZM267.98 0L261.38 0 261.38-12.2 246.83-29.4 254.83-29.4 262.23-20.05 264.53-16.95 265.03-16.95 267.33-20.05 274.73-29.4 282.73-29.4 280.78-26.4 267.98-12 267.98 0ZM301.63 0L287.83 0Q284.48 0 282.85-1.35 281.23-2.7 281.23-5.75L281.23-5.75 281.23-16Q281.23-16.75 281.35-17.82 281.48-18.9 282.05-19.95 282.63-21 284-21.7 285.38-22.4 287.83-22.4L287.83-22.4 301.63-22.4Q304.13-22.4 305.48-21.7 306.83-21 307.4-19.95 307.98-18.9 308.1-17.82 308.23-16.75 308.23-16L308.23-16 308.23-6.4Q308.23-5.5 308.1-4.4 307.98-3.3 307.38-2.3 306.78-1.3 305.43-0.65 304.08 0 301.63 0L301.63 0ZM289.73-4.3L289.73-4.3 299.73-4.3Q302.18-4.3 302.18-6.3L302.18-6.3 302.18-16.1Q302.18-18.1 299.73-18.1L299.73-18.1 289.73-18.1Q287.33-18.1 287.33-16.1L287.33-16.1 287.33-6.3Q287.33-4.3 289.73-4.3ZM322.88 0L320.33 0Q317.88 0 316.5-0.65 315.13-1.3 314.55-2.3 313.98-3.3 313.85-4.4 313.73-5.5 313.73-6.4L313.73-6.4 313.73-22.4 319.83-22.4 319.83-6.3Q319.78-5.2 320.55-4.75 321.33-4.3 322.23-4.3L322.23-4.3 332.13-4.3Q333.23-4.3 333.43-4.5 333.63-4.7 333.63-5.8L333.63-5.8 333.63-22.4 339.73-22.4 339.73 0 335.63 0 333.73-1Q331.73-0.6 329-0.3 326.28 0 322.88 0L322.88 0ZM351.82 0L345.72 0 345.72-22.4 349.82-22.4 351.72-21.4Q353.02-22.1 354.52-22.5 356.02-22.9 358.32-22.9L358.32-22.9Q361.97-22.9 364.25-22.1 366.52-21.3 367.27-20.9L367.27-20.9 365.52-16.55Q364.92-16.85 363.55-17.32 362.17-17.8 360.32-18.2 358.47-18.6 356.27-18.6L356.27-18.6 355.72-18.6Q353.32-18.6 352.6-17.65 351.87-16.7 351.82-14.5L351.82-14.5 351.82 0ZM406.32 0L391.42 0Q387.87 0 385.87-1 383.87-2 383.07-4 382.27-6 382.27-8.95L382.27-8.95 382.27-20.1Q382.27-24.9 384.42-27.18 386.57-29.45 391.42-29.45L391.42-29.45 406.47-29.45Q409.92-29.45 411.74-29.08 413.57-28.7 413.57-28.3L413.57-28.3 412.57-24.15Q411.72-24.3 407.54-24.48 403.37-24.65 395.42-24.65L395.42-24.65 392.87-24.65Q388.87-24.65 388.87-21.1L388.87-21.1 388.87-8.35Q388.87-6.65 389.74-5.73 390.62-4.8 392.87-4.8L392.87-4.8 394.92-4.8Q399.72-4.8 403.02-4.88 406.32-4.95 408.47-5L408.47-5 408.47-11.8 405.47-11.75 398.92-11.25 398.92-16.15 415.02-16.15 415.02-2.1 415.52-1.05Q415.52-0.65 413.42-0.33 411.32 0 406.32 0L406.32 0ZM430.47 0L427.97 0Q424.17 0 422.47-1.78 420.77-3.55 420.77-6.65L420.77-6.65Q420.77-9.9 422.54-11.65 424.32-13.4 427.97-13.4L427.97-13.4 430.52-13.4Q434.27-13.4 437.27-13.2 440.27-13 442.22-12.8L442.22-12.8 442.22-16.1Q442.22-16.55 442.12-17.03 442.02-17.5 441.52-17.8 441.02-18.1 439.82-18.1L439.82-18.1 437.32-18.1Q431.87-18.1 428.22-17.93 424.57-17.75 423.27-17.6L423.27-17.6 422.72-21.4Q422.72-22.1 426.52-22.25 430.32-22.4 439.22-22.4L439.22-22.4 441.72-22.4Q444.22-22.4 445.57-21.7 446.92-21 447.49-19.95 448.07-18.9 448.19-17.82 448.32-16.75 448.32-16L448.32-16 448.32 0 444.22 0 442.27-1Q440.17-0.65 437.22-0.33 434.27 0 430.47 0L430.47 0ZM429.27-4.3L429.27-4.3 440.72-4.3Q441.82-4.3 442.02-4.5 442.22-4.7 442.22-5.75L442.22-5.75 442.22-9.6 429.27-9.6Q427.92-9.6 427.39-8.95 426.87-8.3 426.87-6.9L426.87-6.9Q426.87-5.5 427.47-4.9 428.07-4.3 429.27-4.3ZM464.31 0L462.76 0Q458.96 0 457.56-1.6 456.16-3.2 456.16-6.4L456.16-6.4 456.16-18.1 452.06-18.1 452.06-22.4 454.16-22.4Q455.11-22.4 455.54-22.7 455.96-23 456.16-23.9L456.16-23.9 457.16-29.25 462.26-29.25 462.26-22.4 472.66-22.4 472.66-18.1 462.26-18.1 462.26-6.35Q462.26-5.1 462.86-4.7 463.46-4.3 464.66-4.3L464.66-4.3 471.71-4.3 472.21-0.5Q471.16-0.35 469.01-0.18 466.86 0 464.31 0L464.31 0ZM482.76 0L476.66 0 476.66-32.4 482.76-32.4 482.76-21.4Q484.86-21.8 487.81-22.1 490.76-22.4 494.56-22.4L494.56-22.4 497.06-22.4Q499.56-22.4 500.91-21.7 502.26-21 502.84-19.95 503.41-18.9 503.54-17.82 503.66-16.75 503.66-16L503.66-16 503.66 0 497.56 0 497.56-16.1Q497.56-18.1 495.16-18.1L495.16-18.1 484.26-18.1Q483.31-18.1 483.04-17.93 482.76-17.75 482.76-17L482.76-17 482.76 0ZM525.56 0L515.51 0Q513.01 0 511.66-0.65 510.31-1.3 509.73-2.3 509.16-3.3 509.03-4.4 508.91-5.5 508.91-6.4L508.91-6.4 508.91-16Q508.91-16.75 509.03-17.82 509.16-18.9 509.73-19.95 510.31-21 511.68-21.7 513.06-22.4 515.51-22.4L515.51-22.4 526.26-22.4Q529.56-22.4 531.43-21.78 533.31-21.15 534.08-19.75 534.86-18.35 534.86-16L534.86-16 534.86-8.6 526.11-8.6Q521.61-8.6 518.78-8.8 515.96-9 515.01-9.05L515.01-9.05 515.01-6.3Q514.96-4.3 517.41-4.3L517.41-4.3 519.96-4.3Q522.66-4.3 525.23-4.38 527.81-4.45 529.96-4.58 532.11-4.7 533.41-4.8L533.41-4.8 535.41-1.55Q535.41 0 525.56 0L525.56 0ZM515.01-16.1L515.01-12.9 528.76-12.9 528.76-16.1Q528.76-17.1 528.53-17.5 528.31-17.9 527.21-18 526.11-18.1 523.46-18.1L523.46-18.1 517.41-18.1Q515.01-18.1 515.01-16.1L515.01-16.1ZM546.5 0L540.4 0 540.4-22.4 544.5-22.4 546.4-21.4Q547.7-22.1 549.2-22.5 550.7-22.9 553-22.9L553-22.9Q556.65-22.9 558.93-22.1 561.2-21.3 561.95-20.9L561.95-20.9 560.2-16.55Q559.61-16.85 558.23-17.32 556.86-17.8 555-18.2 553.15-18.6 550.95-18.6L550.95-18.6 550.4-18.6Q548-18.6 547.28-17.65 546.55-16.7 546.5-14.5L546.5-14.5 546.5 0ZM569-25.55L569-25.55Q567.15-25.55 566.3-26.3 565.45-27.05 565.45-28.8L565.45-28.8Q565.45-30.6 566.28-31.33 567.1-32.05 569-32.05L569-32.05Q570.9-32.05 571.75-31.33 572.6-30.6 572.6-28.8L572.6-28.8Q572.6-27.1 571.75-26.33 570.9-25.55 569-25.55ZM572.05 0L565.95 0 565.95-22.4 572.05-22.4 572.05 0ZM584.7 0L578.6 0 578.6-22.4 582.7-22.4 584.7-21.4Q586.8-21.8 589.75-22.1 592.7-22.4 596.5-22.4L596.5-22.4 599-22.4Q601.5-22.4 602.85-21.7 604.2-21 604.77-19.95 605.35-18.9 605.47-17.82 605.6-16.75 605.6-16L605.6-16 605.6 0 599.5 0 599.5-16.1Q599.5-18.1 597.1-18.1L597.1-18.1 586.2-18.1Q585.25-18.1 584.97-17.93 584.7-17.75 584.7-17L584.7-17 584.7 0ZM630.3 8.8L627.8 8.8Q622.3 8.8 618.85 8.7 615.4 8.6 613.55 8.4 611.7 8.2 611.02 7.9 610.35 7.6 610.35 7.25L610.35 7.25 611.85 3.5Q612.65 3.75 614.67 4.13 616.7 4.5 619.85 4.5L619.85 4.5 628.4 4.5Q630.25 4.5 631.02 3.95 631.8 3.4 631.8 2L631.8 2 631.8-1Q629.65-0.6 626.72-0.3 623.8 0 620 0L620 0 617.5 0Q615 0 613.65-0.65 612.3-1.3 611.72-2.3 611.15-3.3 611.02-4.4 610.9-5.5 610.9-6.4L610.9-6.4 610.9-16Q610.9-16.75 611.02-17.82 611.15-18.9 611.72-19.95 612.3-21 613.67-21.7 615.05-22.4 617.5-22.4L617.5-22.4 620.05-22.4Q625.3-22.4 628.22-22.2 631.15-22 632.5-21.75L632.5-21.75 633.8-22.4 637.9-22.4 637.9 2.4Q637.9 3.3 637.62 4.4 637.35 5.5 636.55 6.5 635.75 7.5 634.25 8.15 632.75 8.8 630.3 8.8L630.3 8.8ZM619.4-4.3L619.4-4.3 630.25-4.3Q631.4-4.3 631.6-4.5 631.8-4.7 631.8-5.8L631.8-5.8 631.8-17.75Q630.1-17.85 627.5-17.98 624.9-18.1 621.95-18.1L621.95-18.1 619.4-18.1Q617-18.1 617-16.1L617-16.1 617-6.3Q616.95-4.3 619.4-4.3ZM663.69 0L649.54 0Q646.19 0 644.79-0.35 643.39-0.7 643.39-1.05L643.39-1.05 644.89-4.8Q646.34-4.65 650.22-4.48 654.09-4.3 659.79-4.3L659.79-4.3 662.29-4.3Q663.54-4.3 663.87-4.98 664.19-5.65 664.19-6.8L664.19-6.8Q664.19-7.95 663.82-8.65 663.44-9.35 662.29-9.35L662.29-9.35 649.99-9.35Q646.49-9.35 644.94-10.68 643.39-12 643.39-14.65L643.39-14.65 643.39-16.65Q643.39-17.35 643.54-18.3 643.69-19.25 644.29-20.2 644.89-21.15 646.24-21.78 647.59-22.4 649.99-22.4L649.99-22.4 663.79-22.4Q666.79-22.4 668.04-22.05 669.29-21.7 669.29-21.35L669.29-21.35 668.79-17.6Q667.34-17.75 663.44-17.93 659.54-18.1 653.89-18.1L653.89-18.1 651.39-18.1Q650.14-18.1 649.82-17.43 649.49-16.75 649.49-15.85L649.49-15.85Q649.49-14.9 649.82-14.28 650.14-13.65 651.39-13.65L651.39-13.65 663.69-13.65Q667.09-13.65 668.69-12.25 670.29-10.85 670.29-8.7L670.29-8.7 670.29-5.75Q670.29-4.85 670.17-3.85 670.04-2.85 669.44-1.98 668.84-1.1 667.49-0.55 666.14 0 663.69 0L663.69 0ZM719.74 0.5L719.74 0.5Q717.74 0.5 715.81-0.13 713.89-0.75 711.44-3.2L711.44-3.2 707.84-6.8Q705.64-9.05 703.01-10.1 700.39-11.15 696.44-11.15L696.44-11.15 694.89-11.15 694.89 0 688.29 0 688.29-25.4 687.79-29.45 709.94-29.45Q713.14-29.45 714.96-28.6 716.79-27.75 717.66-26.38 718.54-25 718.79-23.45 719.04-21.9 719.04-20.5L719.04-20.5 719.04-19.55Q719.04-18.45 718.74-17.1 718.44-15.75 717.59-14.45 716.74-13.15 715.16-12.25 713.59-11.35 711.04-11.2L711.04-11.2Q711.69-10.85 712.69-10.13 713.69-9.4 714.76-8.55 715.84-7.7 716.74-7 717.64-6.3 718.14-6L718.14-6Q719.94-4.95 721.34-4.55 722.74-4.15 723.64-4.1 724.54-4.05 724.69-4.05L724.69-4.05 723.69 0Q723.24 0.15 722.19 0.33 721.14 0.5 719.74 0.5ZM702.39-15.7L702.39-15.7Q704.29-15.7 705.79-15.78 707.29-15.85 708.49-15.95L708.49-15.95Q710.69-16.2 711.56-17.18 712.44-18.15 712.44-19.7L712.44-19.7 712.44-20.85Q712.44-22.45 711.59-23.55 710.74-24.65 708.54-24.65L708.54-24.65 694.89-24.65 694.89-15.95Q697.09-15.8 698.94-15.75 700.79-15.7 702.39-15.7ZM744.34 0L734.29 0Q731.79 0 730.44-0.65 729.09-1.3 728.51-2.3 727.94-3.3 727.81-4.4 727.69-5.5 727.69-6.4L727.69-6.4 727.69-16Q727.69-16.75 727.81-17.82 727.94-18.9 728.51-19.95 729.09-21 730.46-21.7 731.84-22.4 734.29-22.4L734.29-22.4 745.04-22.4Q748.34-22.4 750.21-21.78 752.09-21.15 752.86-19.75 753.64-18.35 753.64-16L753.64-16 753.64-8.6 744.89-8.6Q740.39-8.6 737.56-8.8 734.74-9 733.79-9.05L733.79-9.05 733.79-6.3Q733.74-4.3 736.19-4.3L736.19-4.3 738.74-4.3Q741.44-4.3 744.01-4.38 746.59-4.45 748.74-4.58 750.89-4.7 752.19-4.8L752.19-4.8 754.19-1.55Q754.19 0 744.34 0L744.34 0ZM733.79-16.1L733.79-12.9 747.54-12.9 747.54-16.1Q747.54-17.1 747.31-17.5 747.09-17.9 745.99-18 744.89-18.1 742.24-18.1L742.24-18.1 736.19-18.1Q733.79-18.1 733.79-16.1L733.79-16.1ZM765.28 0L759.18 0 759.18-22.4 763.28-22.4 764.53-21.8Q765.98-22.05 768.08-22.23 770.18-22.4 773.08-22.4L773.08-22.4 775.58-22.4Q777.03-22.4 778.38-22.03 779.73-21.65 780.38-20.95L780.38-20.95Q781.68-21.6 783.98-22 786.28-22.4 789.98-22.4L789.98-22.4 792.48-22.4Q794.98-22.4 796.33-21.7 797.68-21 798.26-19.95 798.83-18.9 798.96-17.82 799.08-16.75 799.08-16L799.08-16 799.08 0 792.98 0 792.98-16.1Q792.98-18.1 790.58-18.1L790.58-18.1 783.58-18.1Q782.78-18.1 782.48-17.9 782.18-17.7 782.18-17L782.18-17 782.18 0 776.08 0 776.08-16.1Q776.08-18.1 773.68-18.1L773.68-18.1 766.78-18.1Q765.83-18.1 765.56-17.93 765.28-17.75 765.28-17L765.28-17 765.28 0ZM813.78 0L811.28 0Q807.48 0 805.78-1.78 804.08-3.55 804.08-6.65L804.08-6.65Q804.08-9.9 805.86-11.65 807.63-13.4 811.28-13.4L811.28-13.4 813.83-13.4Q817.58-13.4 820.58-13.2 823.58-13 825.53-12.8L825.53-12.8 825.53-16.1Q825.53-16.55 825.43-17.03 825.33-17.5 824.83-17.8 824.33-18.1 823.13-18.1L823.13-18.1 820.63-18.1Q815.18-18.1 811.53-17.93 807.88-17.75 806.58-17.6L806.58-17.6 806.03-21.4Q806.03-22.1 809.83-22.25 813.63-22.4 822.53-22.4L822.53-22.4 825.03-22.4Q827.53-22.4 828.88-21.7 830.23-21 830.81-19.95 831.38-18.9 831.51-17.82 831.63-16.75 831.63-16L831.63-16 831.63 0 827.53 0 825.58-1Q823.48-0.65 820.53-0.33 817.58 0 813.78 0L813.78 0ZM812.58-4.3L812.58-4.3 824.03-4.3Q825.13-4.3 825.33-4.5 825.53-4.7 825.53-5.75L825.53-5.75 825.53-9.6 812.58-9.6Q811.23-9.6 810.71-8.95 810.18-8.3 810.18-6.9L810.18-6.9Q810.18-5.5 810.78-4.9 811.38-4.3 812.58-4.3ZM843.48 0L837.38 0 837.38-22.4 841.48-22.4 843.38-21.4Q844.68-22.1 846.18-22.5 847.68-22.9 849.98-22.9L849.98-22.9Q853.63-22.9 855.9-22.1 858.18-21.3 858.93-20.9L858.93-20.9 857.18-16.55Q856.58-16.85 855.2-17.32 853.83-17.8 851.98-18.2 850.13-18.6 847.93-18.6L847.93-18.6 847.38-18.6Q844.98-18.6 844.25-17.65 843.53-16.7 843.48-14.5L843.48-14.5 843.48 0ZM886.38 0.5L886.38 0.5Q884.28 0.5 882.8 0 881.33-0.5 879.68-2.15L879.68-2.15Q879.53-2.3 878.88-2.95 878.23-3.6 877.45-4.4 876.68-5.2 876.03-5.85 875.38-6.5 875.18-6.7L875.18-6.7Q873.93-7.95 872.8-8.65 871.68-9.35 870.03-9.35L870.03-9.35Q868.93-9.35 868.73-9.15 868.53-8.95 868.53-7.8L868.53-7.8 868.53 0 862.43 0 862.43-31.65 868.53-31.65 868.53-13.65 870.13-13.65Q871.03-13.65 871.73-14.35L871.73-14.35Q872.18-14.8 873.43-16.15 874.68-17.5 876.25-19.2 877.83-20.9 879.13-22.35L879.13-22.35 886.48-22.35 885.68-20.8Q884.53-19.6 883.18-18.28 881.83-16.95 880.55-15.73 879.28-14.5 878.23-13.58 877.18-12.65 876.63-12.35L876.63-12.35Q878.13-11.55 879.33-10.53 880.53-9.5 881.93-8.22 883.33-6.95 885.28-5.35L885.28-5.35Q887.03-3.95 888.53-3.73 890.03-3.5 890.33-3.5L890.33-3.5 889.43 0Q888.93 0.15 888.08 0.33 887.23 0.5 886.38 0.5ZM902.27 0L899.77 0Q895.97 0 894.27-1.78 892.57-3.55 892.57-6.65L892.57-6.65Q892.57-9.9 894.35-11.65 896.12-13.4 899.77-13.4L899.77-13.4 902.32-13.4Q906.07-13.4 909.07-13.2 912.07-13 914.02-12.8L914.02-12.8 914.02-16.1Q914.02-16.55 913.92-17.03 913.82-17.5 913.32-17.8 912.82-18.1 911.62-18.1L911.62-18.1 909.12-18.1Q903.67-18.1 900.02-17.93 896.37-17.75 895.07-17.6L895.07-17.6 894.52-21.4Q894.52-22.1 898.32-22.25 902.12-22.4 911.02-22.4L911.02-22.4 913.52-22.4Q916.02-22.4 917.37-21.7 918.72-21 919.3-19.95 919.87-18.9 920-17.82 920.12-16.75 920.12-16L920.12-16 920.12 0 916.02 0 914.07-1Q911.97-0.65 909.02-0.33 906.07 0 902.27 0L902.27 0ZM901.07-4.3L901.07-4.3 912.52-4.3Q913.62-4.3 913.82-4.5 914.02-4.7 914.02-5.75L914.02-5.75 914.02-9.6 901.07-9.6Q899.72-9.6 899.2-8.95 898.67-8.3 898.67-6.9L898.67-6.9Q898.67-5.5 899.27-4.9 899.87-4.3 901.07-4.3ZM929.97 0L925.87 0 925.87-31.7 931.97-31.7 931.97-21.8Q934.12-22.05 937.05-22.23 939.97-22.4 943.72-22.4L943.72-22.4 946.27-22.4Q948.77-22.4 950.12-21.75 951.47-21.1 952.05-20.1 952.62-19.1 952.75-18 952.87-16.9 952.87-16L952.87-16 952.87-6.4Q952.87-5.65 952.75-4.58 952.62-3.5 952.05-2.45 951.47-1.4 950.12-0.7 948.77 0 946.27 0L946.27 0 943.72 0Q939.57 0 936.47-0.23 933.37-0.45 931.32-0.7L931.32-0.7 929.97 0ZM933.52-4.3L933.52-4.3 944.37-4.3Q946.77-4.3 946.77-6.3L946.77-6.3 946.77-16.1Q946.82-17.2 946.32-17.65 945.82-18.1 944.37-18.1L944.37-18.1 941.87-18.1Q938.67-18.1 936.2-17.98 933.72-17.85 931.97-17.7L931.97-17.7 931.97-5.85Q931.97-4.8 932.2-4.55 932.42-4.3 933.52-4.3ZM964.97 0L958.87 0 958.87-27.7 958.37-31.7 964.97-31.7 964.97 0ZM987.12 0L977.07 0Q974.57 0 973.22-0.65 971.87-1.3 971.29-2.3 970.72-3.3 970.59-4.4 970.47-5.5 970.47-6.4L970.47-6.4 970.47-16Q970.47-16.75 970.59-17.82 970.72-18.9 971.29-19.95 971.87-21 973.24-21.7 974.62-22.4 977.07-22.4L977.07-22.4 987.82-22.4Q991.12-22.4 992.99-21.78 994.87-21.15 995.64-19.75 996.42-18.35 996.42-16L996.42-16 996.42-8.6 987.67-8.6Q983.17-8.6 980.34-8.8 977.52-9 976.57-9.05L976.57-9.05 976.57-6.3Q976.52-4.3 978.97-4.3L978.97-4.3 981.52-4.3Q984.22-4.3 986.79-4.38 989.37-4.45 991.52-4.58 993.67-4.7 994.97-4.8L994.97-4.8 996.97-1.55Q996.97 0 987.12 0L987.12 0ZM976.57-16.1L976.57-12.9 990.32-12.9 990.32-16.1Q990.32-17.1 990.09-17.5 989.87-17.9 988.77-18 987.67-18.1 985.02-18.1L985.02-18.1 978.97-18.1Q976.57-18.1 976.57-16.1L976.57-16.1Z" opacity="1" transform="matrix(1,0,0,1,0,0)" fill="#3d859f" class="slogan-text-1" data-fill-palette-color="secondary" id="text-1"></path></svg></g></svg></g></svg></g></svg></g><g><svg viewBox="0 0 89.5645665771353 70.00955854246469" height="70.00955854246469" width="89.5645665771353"><g><svg xmlns="http://www.w3.org/2000/svg" xmlns:xlink="http://www.w3.org/1999/xlink" version="1.1" x="0" y="0" viewBox="0.0005867845317715746 10.834 99.99932138742176 78.16604950407574" enable-background="new 0 0 100 100" xml:space="preserve" height="70.00955854246469" width="89.5645665771353" class="icon-icon-0" data-fill-palette-color="accent" id="icon-0"><g fill="#11bfff" data-fill-palette-color="accent"><g fill="#11bfff" data-fill-palette-color="accent"><path d="M99.415 48.448c-2.364-11.313-11.636-20.02-23.068-21.668-2.097-0.302-4.21-0.335-6.316-0.152l7.44-11.365-6.764-4.429-14.048 2.934-4.42 6.765 11.349 7.428C50.55 32.354 42.53 45.933 45.411 59.728c0.616 2.952 1.713 5.721 3.186 8.239 1.926-2.292 3.349-5.038 4.062-8.105-0.15-0.513-0.28-1.035-0.392-1.565-2.32-11.107 4.828-22.033 15.938-24.353 2.371-0.495 4.771-0.573 7.143-0.23 8.532 1.229 15.449 7.726 17.211 16.168 2.321 11.108-4.828 22.033-15.938 24.354-2.366 0.495-4.771 0.572-7.14 0.231-0.825-0.118-1.628-0.302-2.419-0.515-1.194 2.147-2.583 4.161-4.142 6.017 1.777 0.659 3.634 1.152 5.56 1.429 3.183 0.459 6.404 0.355 9.572-0.305C92.94 77.978 102.522 63.337 99.415 48.448z" fill="#11bfff" data-fill-palette-color="accent"></path></g><g fill="#11bfff" data-fill-palette-color="accent"><path d="M64.276 69.088L64.276 69.088 64.276 69.088c0.606-1.364 1.13-2.778 1.557-4.237 0.021-0.07 0.039-0.141 0.057-0.209 0.174-0.603 0.329-1.214 0.468-1.833 0.039-0.16 0.075-0.324 0.109-0.489 0.146-0.696 0.278-1.401 0.381-2.116 1.056-7.321-0.352-14.437-3.584-20.515-3.029 1.93-5.364 4.752-6.688 8.033 1.17 3.482 1.589 7.272 1.03 11.149-0.101 0.685-0.244 1.353-0.396 2.016-0.048 0.218-0.096 0.439-0.152 0.652l0 0c-1.343 5.154-4.312 9.543-8.253 12.72-1.22 0.985-2.54 1.852-3.928 2.588-0.058 0.03-0.109 0.063-0.167 0.093-0.351 0.18-0.706 0.354-1.064 0.519-0.396 0.183-0.795 0.354-1.201 0.513-0.306 0.122-0.615 0.234-0.926 0.345-0.477 0.165-0.953 0.319-1.438 0.455-0.248 0.069-0.497 0.131-0.747 0.192-0.559 0.137-1.12 0.26-1.689 0.357-0.183 0.032-0.367 0.055-0.55 0.082-0.636 0.094-1.278 0.17-1.929 0.211-0.118 0.007-0.237 0.012-0.355 0.018-0.711 0.033-1.427 0.046-2.149 0.017-0.06-0.001-0.116-0.007-0.176-0.011-0.777-0.036-1.56-0.104-2.346-0.217C16.899 77.512 7.683 65.189 9.591 51.95c1.905-13.236 14.229-22.453 27.468-20.547 3.885 0.56 7.409 2.037 10.423 4.15 1.881-2.53 4.143-4.778 6.728-6.649-4.455-3.476-9.837-5.881-15.821-6.743C20.055 19.52 2.988 32.285 0.347 50.619c-2.643 18.333 10.126 35.4 28.46 38.043 0.606 0.086 1.215 0.154 1.816 0.209 0.201 0.018 0.395 0.024 0.595 0.04 0.406 0.028 0.812 0.059 1.218 0.071 0.23 0.009 0.456 0.008 0.682 0.012 0.376 0.006 0.75 0.009 1.124 0.002 0.234-0.005 0.467-0.016 0.699-0.023 0.365-0.016 0.729-0.035 1.093-0.061 0.229-0.017 0.46-0.036 0.688-0.059 0.369-0.033 0.738-0.075 1.103-0.121 0.217-0.027 0.436-0.056 0.65-0.088 0.381-0.057 0.759-0.121 1.138-0.191 0.193-0.034 0.392-0.068 0.586-0.108 0.417-0.082 0.829-0.178 1.242-0.275 0.148-0.037 0.301-0.07 0.451-0.109 0.52-0.134 1.037-0.279 1.546-0.436 0.038-0.012 0.077-0.021 0.116-0.034 1.145-0.358 2.264-0.775 3.357-1.25 0.037-0.016 0.071-0.032 0.105-0.048 0.497-0.218 0.991-0.447 1.475-0.689 0.087-0.042 0.169-0.089 0.253-0.131 0.438-0.22 0.869-0.45 1.295-0.688 0.099-0.056 0.194-0.113 0.292-0.17 0.41-0.235 0.818-0.482 1.218-0.735 0.096-0.061 0.191-0.122 0.287-0.185 0.403-0.262 0.802-0.531 1.196-0.812 0.08-0.056 0.162-0.115 0.244-0.175 0.413-0.297 0.818-0.606 1.218-0.923 0.055-0.043 0.111-0.087 0.161-0.129C58.75 78.262 62.076 74.014 64.276 69.088z" fill="#11bfff" data-fill-palette-color="accent"></path></g></g></svg></g></svg></g></svg></g></svg></g><defs></defs></svg><rect width="395.52" height="54.288051139732445" fill="none" stroke="none" visibility="hidden"></rect></g></svg></g></svg>