<svg width="78" height="78" viewBox="0 0 78 78" fill="none" xmlns="http://www.w3.org/2000/svg">
<path d="M74.0294 39.7296C64.8011 26.378 62.9104 -2.68016 38.6435 0.199308C14.3765 3.07877 -0.956197 36.3266 0.0463645 47.8454C1.04893 59.3642 8.56681 80.8311 43.1552 77.6896C77.7435 74.5481 83.2576 53.0812 74.0294 39.7296Z" fill="url(#paint0_linear_43_455)" fill-opacity="0.36"/>
<path d="M58.2493 28.0012C58.2493 26.5425 57.6698 25.1436 56.6384 24.1121C55.6069 23.0807 54.208 22.5012 52.7493 22.5012H51.3743V21.1649C51.3743 20.425 50.8054 19.7899 50.0654 19.7529C49.8795 19.744 49.6937 19.7729 49.5193 19.8378C49.3449 19.9028 49.1855 20.0025 49.0507 20.1309C48.916 20.2593 48.8087 20.4137 48.7354 20.5848C48.6621 20.7559 48.6243 20.9401 48.6243 21.1262V22.5012H29.3743V21.1649C29.3743 20.425 28.8054 19.7899 28.0654 19.7529C27.8795 19.744 27.6937 19.7729 27.5193 19.8378C27.3449 19.9028 27.1855 20.0025 27.0507 20.1309C26.916 20.2593 26.8087 20.4137 26.7354 20.5848C26.6621 20.7559 26.6243 20.9401 26.6243 21.1262V22.5012H25.2493C23.7906 22.5012 22.3916 23.0807 21.3602 24.1121C20.3287 25.1436 19.7493 26.5425 19.7493 28.0012V29.0325C19.7493 29.1236 19.7855 29.2111 19.8499 29.2755C19.9144 29.34 20.0018 29.3762 20.093 29.3762H57.9055C57.9967 29.3762 58.0841 29.34 58.1486 29.2755C58.2131 29.2111 58.2493 29.1236 58.2493 29.0325V28.0012Z" fill="#821C6B" fill-opacity="0.8"/>
<path d="M19.7493 52.7517C19.7493 54.2104 20.3287 55.6094 21.3602 56.6408C22.3916 57.6723 23.7906 58.2517 25.2493 58.2517H52.7493C54.208 58.2517 55.6069 57.6723 56.6384 56.6408C57.6698 55.6094 58.2493 54.2104 58.2493 52.7517V32.3845C58.2493 32.3161 58.2221 32.2506 58.1738 32.2022C58.1254 32.1539 58.0598 32.1267 57.9915 32.1267H20.0071C19.9387 32.1267 19.8731 32.1539 19.8248 32.2022C19.7764 32.2506 19.7493 32.3161 19.7493 32.3845V52.7517ZM49.3118 34.8767C49.7197 34.8767 50.1185 34.9977 50.4576 35.2243C50.7968 35.4509 51.0612 35.7731 51.2173 36.1499C51.3734 36.5268 51.4142 36.9415 51.3346 37.3416C51.2551 37.7417 51.0586 38.1092 50.7702 38.3976C50.4817 38.6861 50.1142 38.8825 49.7141 38.9621C49.3141 39.0417 48.8994 39.0008 48.5225 38.8447C48.1456 38.6886 47.8235 38.4243 47.5969 38.0851C47.3702 37.7459 47.2493 37.3471 47.2493 36.9392C47.2493 36.3922 47.4666 35.8676 47.8534 35.4808C48.2402 35.094 48.7648 34.8767 49.3118 34.8767ZM49.3118 41.7517C49.7197 41.7517 50.1185 41.8727 50.4576 42.0993C50.7968 42.3259 51.0612 42.6481 51.2173 43.0249C51.3734 43.4018 51.4142 43.8165 51.3346 44.2166C51.2551 44.6167 51.0586 44.9842 50.7702 45.2726C50.4817 45.5611 50.1142 45.7575 49.7141 45.8371C49.3141 45.9167 48.8994 45.8758 48.5225 45.7197C48.1456 45.5636 47.8235 45.2993 47.5969 44.9601C47.3702 44.6209 47.2493 44.2221 47.2493 43.8142C47.2493 43.2672 47.4666 42.7426 47.8534 42.3558C48.2402 41.969 48.7648 41.7517 49.3118 41.7517ZM42.4368 34.8767C42.8447 34.8767 43.2435 34.9977 43.5826 35.2243C43.9218 35.4509 44.1862 35.7731 44.3423 36.1499C44.4984 36.5268 44.5392 36.9415 44.4596 37.3416C44.3801 37.7417 44.1836 38.1092 43.8952 38.3976C43.6067 38.6861 43.2392 38.8825 42.8391 38.9621C42.4391 39.0417 42.0244 39.0008 41.6475 38.8447C41.2706 38.6886 40.9485 38.4243 40.7219 38.0851C40.4952 37.7459 40.3743 37.3471 40.3743 36.9392C40.3743 36.3922 40.5916 35.8676 40.9784 35.4808C41.3652 35.094 41.8898 34.8767 42.4368 34.8767ZM42.4368 41.7517C42.8447 41.7517 43.2435 41.8727 43.5826 42.0993C43.9218 42.3259 44.1862 42.6481 44.3423 43.0249C44.4984 43.4018 44.5392 43.8165 44.4596 44.2166C44.3801 44.6167 44.1836 44.9842 43.8952 45.2726C43.6067 45.5611 43.2392 45.7575 42.8391 45.8371C42.4391 45.9167 42.0244 45.8758 41.6475 45.7197C41.2706 45.5636 40.9485 45.2993 40.7219 44.9601C40.4952 44.6209 40.3743 44.2221 40.3743 43.8142C40.3743 43.2672 40.5916 42.7426 40.9784 42.3558C41.3652 41.969 41.8898 41.7517 42.4368 41.7517ZM42.4368 48.6267C42.8447 48.6267 43.2435 48.7477 43.5826 48.9743C43.9218 49.2009 44.1862 49.5231 44.3423 49.8999C44.4984 50.2768 44.5392 50.6915 44.4596 51.0916C44.3801 51.4917 44.1836 51.8592 43.8952 52.1476C43.6067 52.4361 43.2392 52.6325 42.8391 52.7121C42.4391 52.7917 42.0244 52.7508 41.6475 52.5947C41.2706 52.4386 40.9485 52.1743 40.7219 51.8351C40.4952 51.4959 40.3743 51.0971 40.3743 50.6892C40.3743 50.1422 40.5916 49.6176 40.9784 49.2308C41.3652 48.844 41.8898 48.6267 42.4368 48.6267ZM35.5618 41.7517C35.9697 41.7517 36.3685 41.8727 36.7076 42.0993C37.0468 42.3259 37.3112 42.6481 37.4673 43.0249C37.6234 43.4018 37.6642 43.8165 37.5846 44.2166C37.5051 44.6167 37.3086 44.9842 37.0202 45.2726C36.7317 45.5611 36.3642 45.7575 35.9641 45.8371C35.5641 45.9167 35.1494 45.8758 34.7725 45.7197C34.3956 45.5636 34.0735 45.2993 33.8469 44.9601C33.6202 44.6209 33.4993 44.2221 33.4993 43.8142C33.4993 43.2672 33.7166 42.7426 34.1034 42.3558C34.4902 41.969 35.0148 41.7517 35.5618 41.7517ZM35.5618 48.6267C35.9697 48.6267 36.3685 48.7477 36.7076 48.9743C37.0468 49.2009 37.3112 49.5231 37.4673 49.8999C37.6234 50.2768 37.6642 50.6915 37.5846 51.0916C37.5051 51.4917 37.3086 51.8592 37.0202 52.1476C36.7317 52.4361 36.3642 52.6325 35.9641 52.7121C35.5641 52.7917 35.1494 52.7508 34.7725 52.5947C34.3956 52.4386 34.0735 52.1743 33.8469 51.8351C33.6202 51.4959 33.4993 51.0971 33.4993 50.6892C33.4993 50.1422 33.7166 49.6176 34.1034 49.2308C34.4902 48.844 35.0148 48.6267 35.5618 48.6267ZM28.6868 41.7517C29.0947 41.7517 29.4935 41.8727 29.8326 42.0993C30.1718 42.3259 30.4362 42.6481 30.5923 43.0249C30.7484 43.4018 30.7892 43.8165 30.7096 44.2166C30.6301 44.6167 30.4336 44.9842 30.1452 45.2726C29.8567 45.5611 29.4892 45.7575 29.0891 45.8371C28.6891 45.9167 28.2744 45.8758 27.8975 45.7197C27.5206 45.5636 27.1985 45.2993 26.9719 44.9601C26.7452 44.6209 26.6243 44.2221 26.6243 43.8142C26.6243 43.2672 26.8416 42.7426 27.2284 42.3558C27.6152 41.969 28.1398 41.7517 28.6868 41.7517ZM28.6868 48.6267C29.0947 48.6267 29.4935 48.7477 29.8326 48.9743C30.1718 49.2009 30.4362 49.5231 30.5923 49.8999C30.7484 50.2768 30.7892 50.6915 30.7096 51.0916C30.6301 51.4917 30.4336 51.8592 30.1452 52.1476C29.8567 52.4361 29.4892 52.6325 29.0891 52.7121C28.6891 52.7917 28.2744 52.7508 27.8975 52.5947C27.5206 52.4386 27.1985 52.1743 26.9719 51.8351C26.7452 51.4959 26.6243 51.0971 26.6243 50.6892C26.6243 50.1422 26.8416 49.6176 27.2284 49.2308C27.6152 48.844 28.1398 48.6267 28.6868 48.6267Z" fill="#821C6B" fill-opacity="0.8"/>
<defs>
<linearGradient id="paint0_linear_43_455" x1="25.5653" y1="6.80657" x2="63.6431" y2="76.1241" gradientUnits="userSpaceOnUse">
<stop stop-color="#821C6B"/>
<stop offset="1" stop-color="#821C6B" stop-opacity="0"/>
</linearGradient>
</defs>
</svg>
