<svg width="22" height="22" viewBox="0 0 22 22" fill="none" xmlns="http://www.w3.org/2000/svg">
<path d="M1.37476 19.5941C1.37476 19.8676 1.48341 20.1299 1.6768 20.3233C1.8702 20.5167 2.1325 20.6254 2.40601 20.6254H19.5935C19.867 20.6254 20.1293 20.5167 20.3227 20.3233C20.5161 20.1299 20.6248 19.8676 20.6248 19.5941V7.56287H1.37476V19.5941ZM15.1248 9.10974C15.1248 9.06416 15.1429 9.02044 15.1751 8.98821C15.2073 8.95598 15.251 8.93787 15.2966 8.93787H17.0154C17.061 8.93787 17.1047 8.95598 17.1369 8.98821C17.1691 9.02044 17.1873 9.06416 17.1873 9.10974V10.8285C17.1873 10.8741 17.1691 10.9178 17.1369 10.95C17.1047 10.9823 17.061 11.0004 17.0154 11.0004H15.2966C15.251 11.0004 15.2073 10.9823 15.1751 10.95C15.1429 10.9178 15.1248 10.8741 15.1248 10.8285V9.10974ZM15.1248 12.5472C15.1248 12.5017 15.1429 12.4579 15.1751 12.4257C15.2073 12.3935 15.251 12.3754 15.2966 12.3754H17.0154C17.061 12.3754 17.1047 12.3935 17.1369 12.4257C17.1691 12.4579 17.1873 12.5017 17.1873 12.5472V14.266C17.1873 14.3116 17.1691 14.3553 17.1369 14.3875C17.1047 14.4198 17.061 14.4379 17.0154 14.4379H15.2966C15.251 14.4379 15.2073 14.4198 15.1751 14.3875C15.1429 14.3553 15.1248 14.3116 15.1248 14.266V12.5472ZM11.6873 9.10974C11.6873 9.06416 11.7054 9.02044 11.7376 8.98821C11.7698 8.95598 11.8135 8.93787 11.8591 8.93787H13.5779C13.6235 8.93787 13.6672 8.95598 13.6994 8.98821C13.7316 9.02044 13.7498 9.06416 13.7498 9.10974V10.8285C13.7498 10.8741 13.7316 10.9178 13.6994 10.95C13.6672 10.9823 13.6235 11.0004 13.5779 11.0004H11.8591C11.8135 11.0004 11.7698 10.9823 11.7376 10.95C11.7054 10.9178 11.6873 10.8741 11.6873 10.8285V9.10974ZM11.6873 12.5472C11.6873 12.5017 11.7054 12.4579 11.7376 12.4257C11.7698 12.3935 11.8135 12.3754 11.8591 12.3754H13.5779C13.6235 12.3754 13.6672 12.3935 13.6994 12.4257C13.7316 12.4579 13.7498 12.5017 13.7498 12.5472V14.266C13.7498 14.3116 13.7316 14.3553 13.6994 14.3875C13.6672 14.4198 13.6235 14.4379 13.5779 14.4379H11.8591C11.8135 14.4379 11.7698 14.4198 11.7376 14.3875C11.7054 14.3553 11.6873 14.3116 11.6873 14.266V12.5472ZM11.6873 15.9847C11.6873 15.9392 11.7054 15.8954 11.7376 15.8632C11.7698 15.831 11.8135 15.8129 11.8591 15.8129H13.5779C13.6235 15.8129 13.6672 15.831 13.6994 15.8632C13.7316 15.8954 13.7498 15.9392 13.7498 15.9847V17.7035C13.7498 17.7491 13.7316 17.7928 13.6994 17.825C13.6672 17.8573 13.6235 17.8754 13.5779 17.8754H11.8591C11.8135 17.8754 11.7698 17.8573 11.7376 17.825C11.7054 17.7928 11.6873 17.7491 11.6873 17.7035V15.9847ZM8.24976 12.5472C8.24976 12.5017 8.26786 12.4579 8.3001 12.4257C8.33233 12.3935 8.37605 12.3754 8.42163 12.3754H10.1404C10.186 12.3754 10.2297 12.3935 10.2619 12.4257C10.2941 12.4579 10.3123 12.5017 10.3123 12.5472V14.266C10.3123 14.3116 10.2941 14.3553 10.2619 14.3875C10.2297 14.4198 10.186 14.4379 10.1404 14.4379H8.42163C8.37605 14.4379 8.33233 14.4198 8.3001 14.3875C8.26786 14.3553 8.24976 14.3116 8.24976 14.266V12.5472ZM8.24976 15.9847C8.24976 15.9392 8.26786 15.8954 8.3001 15.8632C8.33233 15.831 8.37605 15.8129 8.42163 15.8129H10.1404C10.186 15.8129 10.2297 15.831 10.2619 15.8632C10.2941 15.8954 10.3123 15.9392 10.3123 15.9847V17.7035C10.3123 17.7491 10.2941 17.7928 10.2619 17.825C10.2297 17.8573 10.186 17.8754 10.1404 17.8754H8.42163C8.37605 17.8754 8.33233 17.8573 8.3001 17.825C8.26786 17.7928 8.24976 17.7491 8.24976 17.7035V15.9847ZM4.81226 12.5472C4.81226 12.5017 4.83036 12.4579 4.8626 12.4257C4.89483 12.3935 4.93855 12.3754 4.98413 12.3754H6.70288C6.74847 12.3754 6.79218 12.3935 6.82442 12.4257C6.85665 12.4579 6.87476 12.5017 6.87476 12.5472V14.266C6.87476 14.3116 6.85665 14.3553 6.82442 14.3875C6.79218 14.4198 6.74847 14.4379 6.70288 14.4379H4.98413C4.93855 14.4379 4.89483 14.4198 4.8626 14.3875C4.83036 14.3553 4.81226 14.3116 4.81226 14.266V12.5472ZM4.81226 15.9847C4.81226 15.9392 4.83036 15.8954 4.8626 15.8632C4.89483 15.831 4.93855 15.8129 4.98413 15.8129H6.70288C6.74847 15.8129 6.79218 15.831 6.82442 15.8632C6.85665 15.8954 6.87476 15.9392 6.87476 15.9847V17.7035C6.87476 17.7491 6.85665 17.7928 6.82442 17.825C6.79218 17.8573 6.74847 17.8754 6.70288 17.8754H4.98413C4.93855 17.8754 4.89483 17.8573 4.8626 17.825C4.83036 17.7928 4.81226 17.7491 4.81226 17.7035V15.9847Z" fill="white"/>
<path d="M19.5935 2.75037H17.1907V1.37537H15.1282V2.75037H6.87132V1.37537H4.80882V2.75037H2.40601C2.2711 2.74923 2.13729 2.7748 2.01231 2.82561C1.88733 2.87641 1.77363 2.95145 1.67777 3.04639C1.58192 3.14132 1.50579 3.25429 1.45379 3.37878C1.40178 3.50327 1.37492 3.63682 1.37476 3.77173V6.18787H20.6248V3.77173C20.6246 3.63682 20.5977 3.50327 20.5457 3.37878C20.4937 3.25429 20.4176 3.14132 20.3217 3.04639C20.2259 2.95145 20.1122 2.87641 19.9872 2.82561C19.8622 2.7748 19.7284 2.74923 19.5935 2.75037Z" fill="white"/>
</svg>
