<svg width="22" height="22" viewBox="0 0 22 22" fill="none" xmlns="http://www.w3.org/2000/svg">
<path d="M15.8125 1.37488H5.22495C4.42294 1.37567 3.65403 1.66566 3.08692 2.18121C2.51981 2.69677 2.20083 3.39578 2.19995 4.12488V17.8749C2.20083 18.604 2.51981 19.303 3.08692 19.8185C3.65403 20.3341 4.42294 20.6241 5.22495 20.6249H15.8125C16.6145 20.6241 17.3834 20.3341 17.9505 19.8185C18.5176 19.303 18.8366 18.604 18.8375 17.8749V4.12488C18.8366 3.39578 18.5176 2.69677 17.9505 2.18121C17.3834 1.66566 16.6145 1.37567 15.8125 1.37488ZM10.5187 13.0624H6.73745C6.53688 13.0624 6.34453 12.9899 6.2027 12.861C6.06088 12.7321 5.9812 12.5572 5.9812 12.3749C5.9812 12.1925 6.06088 12.0177 6.2027 11.8887C6.34453 11.7598 6.53688 11.6874 6.73745 11.6874H10.5187C10.7193 11.6874 10.9116 11.7598 11.0535 11.8887C11.1953 12.0177 11.275 12.1925 11.275 12.3749C11.275 12.5572 11.1953 12.7321 11.0535 12.861C10.9116 12.9899 10.7193 13.0624 10.5187 13.0624ZM14.3 9.62488H6.73745C6.53688 9.62488 6.34453 9.55245 6.2027 9.42351C6.06088 9.29458 5.9812 9.11971 5.9812 8.93738C5.9812 8.75504 6.06088 8.58017 6.2027 8.45124C6.34453 8.32231 6.53688 8.24988 6.73745 8.24988H14.3C14.5005 8.24988 14.6929 8.32231 14.8347 8.45124C14.9765 8.58017 15.0562 8.75504 15.0562 8.93738C15.0562 9.11971 14.9765 9.29458 14.8347 9.42351C14.6929 9.55245 14.5005 9.62488 14.3 9.62488ZM14.3 6.18738H6.73745C6.53688 6.18738 6.34453 6.11495 6.2027 5.98601C6.06088 5.85708 5.9812 5.68221 5.9812 5.49988C5.9812 5.31754 6.06088 5.14267 6.2027 5.01374C6.34453 4.88481 6.53688 4.81238 6.73745 4.81238H14.3C14.5005 4.81238 14.6929 4.88481 14.8347 5.01374C14.9765 5.14267 15.0562 5.31754 15.0562 5.49988C15.0562 5.68221 14.9765 5.85708 14.8347 5.98601C14.6929 6.11495 14.5005 6.18738 14.3 6.18738Z" fill="white"/>
</svg>
