<svg width="16" height="16" viewBox="0 0 16 16" fill="none" xmlns="http://www.w3.org/2000/svg">
<g clip-path="url(#clip0_843_2425)">
<path d="M7.75 11.875H6.875" stroke="#821C6B" stroke-width="1.5" stroke-miterlimit="10" stroke-linecap="round" stroke-linejoin="round"/>
<path d="M12.25 7.90625H6.875" stroke="#821C6B" stroke-width="1.5" stroke-miterlimit="10" stroke-linecap="round" stroke-linejoin="round"/>
<path d="M12.25 4.15625H6.875" stroke="#821C6B" stroke-width="1.5" stroke-miterlimit="10" stroke-linecap="round" stroke-linejoin="round"/>
<path d="M4.375 11.875H3.75" stroke="#821C6B" stroke-width="1.5" stroke-miterlimit="10" stroke-linecap="round" stroke-linejoin="round"/>
<path d="M4.375 7.90625H3.75" stroke="#821C6B" stroke-width="1.5" stroke-miterlimit="10" stroke-linecap="round" stroke-linejoin="round"/>
<path d="M4.375 4.15625H3.75" stroke="#821C6B" stroke-width="1.5" stroke-miterlimit="10" stroke-linecap="round" stroke-linejoin="round"/>
<mask id="mask0_843_2425" style="mask-type:luminance" maskUnits="userSpaceOnUse" x="0" y="0" width="16" height="16">
<path d="M0 9.53674e-07H16V16H0V9.53674e-07Z" fill="white"/>
</mask>
<g mask="url(#mask0_843_2425)">
<path d="M12.4375 10.1562C11.2294 10.1562 10.25 11.1356 10.25 12.3438C10.25 13.5519 11.2294 14.5312 12.4375 14.5312C13.6456 14.5312 14.625 13.5519 14.625 12.3438C14.625 11.1356 13.6456 10.1562 12.4375 10.1562Z" stroke="#821C6B" stroke-width="1.5" stroke-miterlimit="10" stroke-linecap="round" stroke-linejoin="round"/>
<path d="M14.0312 14.0312L15.375 15.375" stroke="#821C6B" stroke-width="1.5" stroke-miterlimit="10" stroke-linecap="round" stroke-linejoin="round"/>
<path d="M8.9375 15.375H2.5C1.46447 15.375 0.625 14.5355 0.625 13.5V2.5C0.625 1.46447 1.46447 0.625001 2.5 0.625001H13.5C14.5355 0.625001 15.375 1.46447 15.375 2.5V8.6875" stroke="#821C6B" stroke-width="1.5" stroke-miterlimit="10" stroke-linecap="round" stroke-linejoin="round"/>
</g>
</g>
<defs>
<clipPath id="clip0_843_2425">
<rect width="16" height="16" fill="white"/>
</clipPath>
</defs>
</svg>
