<svg width="22" height="22" viewBox="0 0 22 22" fill="none" xmlns="http://www.w3.org/2000/svg">
<path d="M3.02909 11.9964H9.00735C9.27161 11.9964 9.52504 11.8914 9.7119 11.7045C9.89875 11.5177 10.0037 11.2642 10.0037 11V3.02897C10.0037 2.76471 9.89875 2.51128 9.7119 2.32442C9.52504 2.13757 9.27161 2.03259 9.00735 2.03259H3.02909C2.76484 2.03259 2.5114 2.13757 2.32455 2.32442C2.13769 2.51128 2.03271 2.76471 2.03271 3.02897V11C2.03271 11.2642 2.13769 11.5177 2.32455 11.7045C2.5114 11.8914 2.76484 11.9964 3.02909 11.9964ZM2.03271 18.971C2.03271 19.2353 2.13769 19.4887 2.32455 19.6755C2.5114 19.8624 2.76484 19.9674 3.02909 19.9674H9.00735C9.27161 19.9674 9.52504 19.8624 9.7119 19.6755C9.89875 19.4887 10.0037 19.2353 10.0037 18.971V14.9855C10.0037 14.7212 9.89875 14.4678 9.7119 14.2809C9.52504 14.0941 9.27161 13.9891 9.00735 13.9891H3.02909C2.76484 13.9891 2.5114 14.0941 2.32455 14.2809C2.13769 14.4678 2.03271 14.7212 2.03271 14.9855V18.971ZM11.9965 18.971C11.9965 19.2353 12.1015 19.4887 12.2883 19.6755C12.4752 19.8624 12.7286 19.9674 12.9929 19.9674H18.9711C19.2354 19.9674 19.4888 19.8624 19.6757 19.6755C19.8625 19.4887 19.9675 19.2353 19.9675 18.971V11.9964C19.9675 11.7321 19.8625 11.4787 19.6757 11.2918C19.4888 11.105 19.2354 11 18.9711 11H12.9929C12.7286 11 12.4752 11.105 12.2883 11.2918C12.1015 11.4787 11.9965 11.7321 11.9965 11.9964V18.971ZM12.9929 9.00723H18.9711C19.2354 9.00723 19.4888 8.90225 19.6757 8.7154C19.8625 8.52854 19.9675 8.27511 19.9675 8.01085V3.02897C19.9675 2.76471 19.8625 2.51128 19.6757 2.32442C19.4888 2.13757 19.2354 2.03259 18.9711 2.03259H12.9929C12.7286 2.03259 12.4752 2.13757 12.2883 2.32442C12.1015 2.51128 11.9965 2.76471 11.9965 3.02897V8.01085C11.9965 8.27511 12.1015 8.52854 12.2883 8.7154C12.4752 8.90225 12.7286 9.00723 12.9929 9.00723Z" fill="white"/>
</svg>
