<svg width="22" height="22" viewBox="0 0 22 22" fill="none" xmlns="http://www.w3.org/2000/svg">
<path fill-rule="evenodd" clip-rule="evenodd" d="M19.7223 7.13981C19.7223 6.39905 19.3204 5.71687 18.6731 5.35724C17.073 4.46818 13.3847 2.41867 11.8224 1.55112C11.2062 1.20855 10.4573 1.20855 9.84185 1.55112C8.27876 2.41867 4.59054 4.46818 2.99038 5.35724C2.34306 5.71687 1.94116 6.39905 1.94116 7.13981V18.6746C1.94116 19.2151 2.1562 19.7342 2.53881 20.1168C2.92068 20.4987 3.43973 20.7137 3.98029 20.7137H17.6832C18.2238 20.7137 18.7428 20.4987 19.1247 20.1168C19.5073 19.7342 19.7223 19.2151 19.7223 18.6746V7.13981ZM15.9429 10.7606C15.9437 10.7465 15.9437 10.7324 15.9437 10.719C15.9437 10.2126 15.6493 9.75211 15.1895 9.54004C13.8764 8.93498 12.0471 8.09189 11.3256 7.75896C10.9808 7.60028 10.5841 7.60028 10.2393 7.75896C9.51707 8.09189 7.68779 8.93498 6.37385 9.54004C5.91412 9.75211 5.61974 10.2126 5.61974 10.719C5.61974 11.2255 5.91412 11.6852 6.37385 11.8973L7.62773 12.4749V14.3709C7.62773 14.9775 7.86872 15.5595 8.29804 15.9881C8.72663 16.4175 9.30871 16.6584 9.91526 16.6584H11.6474C12.2539 16.6584 12.836 16.4175 13.2646 15.9881C13.6939 15.5595 13.9349 14.9775 13.9349 14.3709V12.4756L14.8314 12.0619V12.5194C14.8314 12.8264 15.0805 13.0755 15.3875 13.0755C15.6945 13.0755 15.9437 12.8264 15.9437 12.5194V10.7872C15.9437 10.7783 15.9437 10.7695 15.9429 10.7606ZM8.73998 12.9873L10.2393 13.6784C10.5841 13.837 10.9808 13.837 11.3256 13.6784L12.8227 12.988V14.3709C12.8227 14.6824 12.6988 14.9812 12.4786 15.2021C12.2577 15.4224 11.9588 15.5462 11.6474 15.5462C11.0898 15.5462 10.4729 15.5462 9.91526 15.5462C9.60383 15.5462 9.305 15.4224 9.08403 15.2021C8.86381 14.9812 8.73998 14.6824 8.73998 14.3709V12.9873ZM10.6872 12.6603L6.83951 10.8874C6.77352 10.8569 6.732 10.791 6.732 10.719C6.732 10.6464 6.77352 10.5804 6.83951 10.55C8.15271 9.9449 9.98273 9.10182 10.7042 8.76963C10.7539 8.74664 10.8102 8.74664 10.8599 8.76963C11.5814 9.10182 13.4107 9.9449 14.7239 10.55C14.7891 10.5804 14.8314 10.6464 14.8314 10.719C14.8314 10.791 14.7891 10.8569 14.7239 10.8874L10.877 12.6603C10.8169 12.6877 10.7472 12.6877 10.6872 12.6603Z" fill="white"/>
</svg>
