<svg width="16" height="16" viewBox="0 0 16 16" fill="none" xmlns="http://www.w3.org/2000/svg">
<g clip-path="url(#clip0_1_17)">
<rect width="16" height="16" fill="white"/>
<path d="M13.8433 14.3746C13.7736 14.3747 13.7045 14.361 13.64 14.3343C13.5756 14.3075 13.517 14.2683 13.4678 14.2189L1.78032 2.53136C1.6849 2.43092 1.63249 2.29718 1.63426 2.15865C1.63603 2.02012 1.69185 1.88776 1.78982 1.7898C1.88778 1.69184 2.02014 1.63602 2.15867 1.63424C2.29719 1.63247 2.43094 1.68488 2.53138 1.78031L14.2189 13.4678C14.2931 13.5421 14.3437 13.6367 14.3642 13.7398C14.3846 13.8428 14.3741 13.9496 14.3339 14.0466C14.2937 14.1436 14.2257 14.2266 14.1384 14.285C14.051 14.3434 13.9484 14.3745 13.8433 14.3746V14.3746Z" fill="#9E9E9E"/>
<path d="M7.73888 9.99205L6.01437 8.26754C6.00449 8.25774 5.99178 8.25128 5.97804 8.24907C5.9643 8.24687 5.95022 8.24902 5.93776 8.25523C5.92531 8.26143 5.91511 8.27139 5.90861 8.28369C5.9021 8.29599 5.89961 8.31002 5.90149 8.32381C5.97111 8.77122 6.18118 9.1849 6.50136 9.50507C6.82153 9.82524 7.23521 10.0353 7.68261 10.1049C7.6964 10.1068 7.71043 10.1043 7.72273 10.0978C7.73503 10.0913 7.74499 10.0811 7.7512 10.0687C7.75741 10.0562 7.75956 10.0421 7.75735 10.0284C7.75514 10.0146 7.74868 10.0019 7.73888 9.99205Z" fill="#9E9E9E"/>
<path d="M8.26528 6.0131L9.99246 7.73962C10.0023 7.74955 10.0151 7.75613 10.0289 7.75842C10.0427 7.76071 10.0568 7.75858 10.0694 7.75235C10.0819 7.74612 10.0922 7.7361 10.0987 7.72371C10.1052 7.71133 10.1076 7.6972 10.1057 7.68334C10.0362 7.23533 9.826 6.82105 9.50543 6.50047C9.18485 6.1799 8.77057 5.96967 8.32255 5.90022C8.30868 5.89808 8.29449 5.90038 8.282 5.90679C8.26951 5.9132 8.25936 5.92339 8.25301 5.93591C8.24666 5.94843 8.24443 5.96263 8.24663 5.9765C8.24883 5.99036 8.25536 6.00317 8.26528 6.0131V6.0131Z" fill="#9E9E9E"/>
<path d="M15.8026 8.57603C15.9126 8.40349 15.9707 8.20304 15.9701 7.99847C15.9695 7.79389 15.9102 7.59378 15.7993 7.42189C14.9208 6.06321 13.7809 4.90907 12.5032 4.08397C11.0878 3.17022 9.52725 2.68712 7.98928 2.68712C7.17849 2.68823 6.37322 2.82043 5.60463 3.07858C5.58312 3.08574 5.5638 3.09828 5.5485 3.11502C5.53321 3.13175 5.52246 3.15212 5.51726 3.17419C5.51207 3.19626 5.51261 3.21929 5.51884 3.24108C5.52507 3.26288 5.53677 3.28272 5.55283 3.29872L7.12135 4.86724C7.13764 4.88356 7.15791 4.89536 7.18015 4.90147C7.20239 4.90759 7.22584 4.9078 7.24818 4.9021C7.77985 4.77254 8.33592 4.78203 8.86285 4.92967C9.38979 5.07731 9.86983 5.35812 10.2568 5.74507C10.6437 6.13201 10.9245 6.61206 11.0722 7.139C11.2198 7.66593 11.2293 8.222 11.0997 8.75366C11.0941 8.77596 11.0944 8.79935 11.1005 8.82152C11.1066 8.8437 11.1183 8.86391 11.1346 8.88017L13.3908 11.138C13.4142 11.1615 13.4457 11.1754 13.4789 11.1768C13.5121 11.1783 13.5446 11.1673 13.5701 11.1459C14.4385 10.4057 15.1911 9.53944 15.8026 8.57603Z" fill="#9E9E9E"/>
<path d="M7.99969 11.1871C7.51717 11.1871 7.04093 11.0776 6.6069 10.8668C6.17286 10.656 5.79235 10.3494 5.49406 9.97009C5.19576 9.59082 4.98747 9.14877 4.88488 8.67727C4.7823 8.20578 4.7881 7.71714 4.90184 7.24822C4.90748 7.22592 4.90724 7.20253 4.90112 7.18036C4.89501 7.15818 4.88325 7.13797 4.86698 7.12171L2.64768 4.90142C2.62415 4.87786 2.59262 4.864 2.55936 4.86258C2.52609 4.86117 2.4935 4.87231 2.46805 4.89378C1.65823 5.58474 0.907505 6.42544 0.221197 7.40792C0.101063 7.58035 0.0349004 7.7846 0.0311167 7.99471C0.027333 8.20483 0.0860989 8.41132 0.199947 8.58796C1.07684 9.96025 2.20508 11.116 3.46315 11.9299C4.88059 12.8473 6.40329 13.3121 7.98907 13.3121C8.80803 13.3099 9.62169 13.1805 10.4009 12.9286C10.4226 12.9217 10.4422 12.9093 10.4577 12.8926C10.4733 12.8759 10.4842 12.8555 10.4896 12.8334C10.495 12.8112 10.4946 12.7881 10.4884 12.7662C10.4822 12.7442 10.4705 12.7242 10.4544 12.7081L8.87825 11.1323C8.86199 11.1161 8.84178 11.1043 8.8196 11.0982C8.79743 11.0921 8.77404 11.0918 8.75174 11.0975C8.50551 11.1571 8.25305 11.1872 7.99969 11.1871V11.1871Z" fill="#9E9E9E"/>
</g>
<defs>
<clipPath id="clip0_1_17">
<rect width="16" height="16" fill="white"/>
</clipPath>
</defs>
</svg>
