<svg width="22" height="22" viewBox="0 0 22 22" fill="none" xmlns="http://www.w3.org/2000/svg">
<g clip-path="url(#clip0_450_2058)">
<path d="M19.9749 1.375H10.3095C9.19096 1.375 8.28442 2.28171 8.28442 3.40007V8.16104C8.79535 8.41499 9.3474 8.68959 9.86269 8.94572L10.6511 7.3683C11.1284 6.41443 12.2921 6.02687 13.2456 6.50339C14.2012 6.98158 14.5884 8.14207 14.11 9.09779L12.7047 11.9092C12.7419 12.2813 12.7089 12.6565 12.604 13.0195H13.5318L11.0846 19.7488C10.9394 20.148 11.2201 20.6138 11.6905 20.6138C11.9536 20.6138 12.201 20.4514 12.296 20.1893L14.9033 13.0195H15.355L17.9888 20.1915C18.0847 20.4523 18.3314 20.6138 18.5942 20.6138C19.0338 20.6138 19.3561 20.1747 19.1988 19.7472L16.7281 13.0195H19.9749C21.0933 13.0195 22 12.1128 22 10.9945V3.40007C22 2.28171 21.0933 1.375 19.9749 1.375ZM18.5939 10.2583H15.7021C15.3462 10.2583 15.0575 9.96959 15.0575 9.61375C15.0575 9.25758 15.3462 8.96922 15.7021 8.96922H18.5939C18.9501 8.96922 19.2384 9.25758 19.2384 9.61375C19.2384 9.96959 18.9501 10.2583 18.5939 10.2583ZM18.5939 7.8418H15.7021C15.3462 7.8418 15.0575 7.55344 15.0575 7.19727C15.0575 6.84143 15.3462 6.55273 15.7021 6.55273H18.5939C18.9501 6.55273 19.2384 6.84143 19.2384 7.19727C19.2384 7.55344 18.9501 7.8418 18.5939 7.8418ZM18.5939 5.42564H11.6905C11.3344 5.42564 11.046 5.13695 11.046 4.78111C11.046 4.42528 11.3344 4.13658 11.6905 4.13658H18.5939C18.9501 4.13658 19.2384 4.42528 19.2384 4.78111C19.2384 5.13695 18.9501 5.42564 18.5939 5.42564Z" fill="white"/>
<path d="M11.3404 12.7431C11.4569 12.4019 11.456 12.0453 11.3577 11.7201L12.9573 8.52124C13.1164 8.20284 12.9875 7.81561 12.6691 7.65649C12.3508 7.49721 11.9636 7.62628 11.8043 7.94469L10.4401 10.6729C9.62466 10.2668 8.38579 9.65085 7.38777 9.15453C6.45924 8.69278 5.79659 8.2787 4.66597 8.2787H4.09647C4.97682 8.2787 5.76251 7.87352 6.27679 7.2394C6.66922 6.75684 6.90387 6.14185 6.90387 5.47163C6.90387 3.9209 5.64703 2.66406 4.09613 2.66406C2.5459 2.66406 1.28906 3.9209 1.28906 5.47163C1.28906 6.21637 1.5791 6.89313 2.05226 7.39532C2.56386 7.93932 3.29047 8.2787 4.09596 8.27887C3.01604 8.27887 1.96028 8.71645 1.20078 9.47797C0.426498 10.2502 0 11.2791 0 12.3752V14.4462C0 15.3378 0.578903 16.0965 1.38071 16.3664V19.9691C1.38071 20.3251 1.66924 20.6136 2.02524 20.6136H6.16736C6.52336 20.6136 6.81189 20.3251 6.81189 19.9691V12.7273C7.42302 13.0328 8.22583 13.4341 8.8754 13.7591C9.33076 13.9867 9.86284 14.0071 10.3373 13.8141C10.8105 13.6194 11.1752 13.2319 11.3379 12.7506C11.3387 12.7481 11.3396 12.7456 11.3404 12.7431Z" fill="white"/>
</g>
<defs>
<clipPath id="clip0_450_2058">
<rect width="22" height="22" fill="white"/>
</clipPath>
</defs>
</svg>
