<svg width="22" height="22" viewBox="0 0 22 22" fill="none" xmlns="http://www.w3.org/2000/svg">
<path d="M13.0629 14.4369V16.1556C13.0629 16.6115 12.8818 17.0487 12.5595 17.371C12.2372 17.6933 11.8 17.8744 11.3442 17.8744H4.46918C4.01334 17.8744 3.57617 17.6933 3.25384 17.371C2.93151 17.0487 2.75043 16.6115 2.75043 16.1556V5.84314C2.75043 5.3873 2.93151 4.95013 3.25384 4.6278C3.57617 4.30547 4.01334 4.12439 4.46918 4.12439H11.0004C11.9496 4.12439 13.0629 4.89396 13.0629 5.84314V7.56189" stroke="#616161" stroke-width="1.00189" stroke-linecap="round" stroke-linejoin="round"/>
<path d="M15.812 14.4384L19.25 11.0004L15.812 7.56238" stroke="#616161" stroke-width="1.00189" stroke-linecap="round" stroke-linejoin="round"/>
<path d="M7.56171 10.9996H18.5617" stroke="#616161" stroke-width="1.00189" stroke-linecap="round" stroke-linejoin="round"/>
</svg>
