<svg width="22" height="22" viewBox="0 0 22 22" fill="none" xmlns="http://www.w3.org/2000/svg">
<path d="M10.1851 10.673C11.3681 10.673 12.3922 10.2487 13.2293 9.41164C14.0661 8.5747 14.4905 7.55066 14.4905 6.3676C14.4905 5.18495 14.0662 4.16077 13.2292 3.32356C12.3921 2.48676 11.3679 2.0625 10.1851 2.0625C9.00208 2.0625 7.97803 2.48676 7.1411 3.3237C6.30416 4.16064 5.87976 5.18482 5.87976 6.3676C5.87976 7.55066 6.30416 8.57484 7.1411 9.41177C7.97831 10.2486 9.00249 10.673 10.1851 10.673ZM7.88189 4.06435C8.52408 3.42216 9.27742 3.11 10.1851 3.11C11.0927 3.11 11.8462 3.42216 12.4885 4.06435C13.1307 4.70668 13.443 5.46016 13.443 6.3676C13.443 7.27531 13.1307 8.02865 12.4885 8.67098C11.8462 9.31331 11.0927 9.62547 10.1851 9.62547C9.27769 9.62547 8.52435 9.31317 7.88189 8.67098C7.23956 8.02879 6.92726 7.27531 6.92726 6.3676C6.92726 5.46016 7.23956 4.70668 7.88189 4.06435Z" fill="#616161"/>
<path d="M17.7184 15.8076C17.6942 15.4593 17.6454 15.0793 17.5735 14.6781C17.501 14.2739 17.4076 13.8918 17.2957 13.5425C17.1801 13.1815 17.0231 12.825 16.8288 12.4834C16.6274 12.1288 16.3906 11.8201 16.125 11.566C15.8472 11.3002 15.507 11.0865 15.1137 10.9306C14.7218 10.7756 14.2874 10.697 13.8228 10.697C13.6403 10.697 13.4639 10.7719 13.1231 10.9938C12.9133 11.1306 12.668 11.2888 12.3941 11.4637C12.16 11.6129 11.8428 11.7527 11.451 11.8793C11.0687 12.003 10.6806 12.0657 10.2974 12.0657C9.91442 12.0657 9.5263 12.003 9.14376 11.8793C8.75237 11.7529 8.43502 11.6131 8.20127 11.4639C7.93002 11.2905 7.68455 11.1323 7.47166 10.9937C7.13113 10.7718 6.95466 10.6969 6.77219 10.6969C6.30743 10.6969 5.87321 10.7756 5.4814 10.9308C5.08837 11.0864 4.74811 11.3001 4.47004 11.5662C4.20438 11.8204 3.96763 12.129 3.76634 12.4834C3.57228 12.825 3.41518 13.1814 3.29953 13.5426C3.18784 13.8919 3.09442 14.2739 3.02187 14.6781C2.94986 15.0788 2.90118 15.4589 2.87704 15.808C2.85331 16.1493 2.84131 16.5046 2.84131 16.8635C2.84131 17.7966 3.13793 18.552 3.72284 19.1091C4.30053 19.6588 5.06477 19.9376 5.99444 19.9376H14.6014C15.5308 19.9376 16.295 19.6588 16.8728 19.1091C17.4579 18.5524 17.7545 17.7967 17.7545 16.8634C17.7544 16.5032 17.7422 16.148 17.7184 15.8076ZM16.1506 18.3502C15.7689 18.7135 15.2621 18.8901 14.6012 18.8901H5.99444C5.33343 18.8901 4.82666 18.7135 4.44508 18.3503C4.07073 17.9939 3.88881 17.5075 3.88881 16.8635C3.88881 16.5286 3.89985 16.1979 3.92195 15.8804C3.94349 15.5689 3.98754 15.2267 4.05287 14.8632C4.11737 14.5041 4.19947 14.1671 4.29712 13.862C4.39081 13.5695 4.51859 13.2799 4.67706 13.0008C4.8283 12.7349 5.00231 12.5067 5.19433 12.3229C5.37394 12.1509 5.60032 12.0102 5.86707 11.9046C6.11377 11.807 6.39102 11.7535 6.69201 11.7455C6.72869 11.765 6.79401 11.8022 6.89984 11.8712C7.11518 12.0116 7.36338 12.1717 7.63777 12.3469C7.94707 12.5441 8.34556 12.7222 8.82164 12.8759C9.30837 13.0333 9.80477 13.1132 10.2975 13.1132C10.7902 13.1132 11.2868 13.0333 11.7732 12.876C12.2497 12.7221 12.6481 12.5441 12.9578 12.3466C13.2386 12.1672 13.4798 12.0117 13.6952 11.8712C13.801 11.8024 13.8663 11.765 13.903 11.7455C14.2041 11.7535 14.4814 11.807 14.7282 11.9046C14.9948 12.0102 15.2212 12.1511 15.4008 12.3229C15.5928 12.5066 15.7668 12.7348 15.9181 13.001C16.0767 13.2799 16.2046 13.5696 16.2982 13.8619C16.3959 14.1674 16.4782 14.5042 16.5425 14.863C16.6077 15.2273 16.6519 15.5696 16.6735 15.8805C16.6957 16.1968 16.7069 16.5276 16.707 16.8635C16.7069 17.5076 16.5249 17.9939 16.1506 18.3502Z" fill="#616161"/>
</svg>
