<svg width="16" height="16" viewBox="0 0 16 16" fill="none" xmlns="http://www.w3.org/2000/svg">
<path d="M14.5616 3.74299L12.2585 1.43987C12.1195 1.30013 11.9542 1.18935 11.7722 1.11393C11.5901 1.03851 11.3949 0.999955 11.1978 1.00049H3.00098C2.47054 1.00049 1.96184 1.21121 1.58676 1.58628C1.21169 1.96135 1.00098 2.47006 1.00098 3.00049V13.0005C1.00098 13.5309 1.21169 14.0396 1.58676 14.4147C1.96184 14.7898 2.47054 15.0005 3.00098 15.0005H13.001C13.5314 15.0005 14.0401 14.7898 14.4152 14.4147C14.7903 14.0396 15.001 13.5309 15.001 13.0005V4.80362C15.0015 4.60656 14.963 4.41135 14.8875 4.22929C14.8121 4.04723 14.7013 3.88194 14.5616 3.74299ZM3.75098 3.50049H9.25097C9.31728 3.50049 9.38087 3.52683 9.42775 3.57372C9.47464 3.6206 9.50097 3.68419 9.50097 3.75049V5.25049C9.50097 5.3168 9.47464 5.38039 9.42775 5.42727C9.38087 5.47415 9.31728 5.50049 9.25097 5.50049H3.75098C3.68467 5.50049 3.62108 5.47415 3.5742 5.42727C3.52732 5.38039 3.50098 5.3168 3.50098 5.25049V3.75049C3.50098 3.68419 3.52732 3.6206 3.5742 3.57372C3.62108 3.52683 3.68467 3.50049 3.75098 3.50049ZM8.11816 13.4977C7.61427 13.5213 7.11501 13.392 6.68598 13.1267C6.25694 12.8614 5.91821 12.4724 5.71429 12.0111C5.51037 11.5497 5.4508 11.0374 5.5434 10.5415C5.636 10.0456 5.87645 9.58936 6.23315 9.23266C6.58985 8.87597 7.04611 8.63552 7.54198 8.54292C8.03786 8.45031 8.55014 8.50989 9.01154 8.71381C9.47293 8.91773 9.86184 9.25646 10.1272 9.68549C10.3925 10.1145 10.5218 10.6138 10.4982 11.1177C10.4685 11.7393 10.2083 12.3277 9.76821 12.7677C9.32813 13.2078 8.73983 13.4681 8.11816 13.4977Z" fill="white"/>
<path d="M8.00159 12.5028C8.83063 12.5028 9.5027 11.8308 9.5027 11.0017C9.5027 10.1727 8.83063 9.50061 8.00159 9.50061C7.17256 9.50061 6.50049 10.1727 6.50049 11.0017C6.50049 11.8308 7.17256 12.5028 8.00159 12.5028Z" fill="white"/>
</svg>
