<svg xmlns="http://www.w3.org/2000/svg" version="1.1" xmlns:xlink="http://www.w3.org/1999/xlink" xmlnsSvgjs="http://svgjs.dev/svgjs" width="2000" height="2000" viewBox="0 0 2000 2000"><g transform="matrix(1,0,0,1,-0.9999999999998863,-0.9999999999998863)"><svg viewBox="0 0 280 280" data-background-color="#ffffff" preserveAspectRatio="xMidYMid meet" height="2000" width="2000" xmlns="http://www.w3.org/2000/svg" xmlns:xlink="http://www.w3.org/1999/xlink"><g id="tight-bounds" transform="matrix(1,0,0,1,0.13999999999998636,0.13999999999998636)"><svg viewBox="0 0 279.72 279.72" height="279.72" width="279.72"><g><svg viewBox="0 0 279.72 279.72" height="279.72" width="279.72"><g><svg viewBox="0 0 279.72 279.72" height="279.72" width="279.72"><g id="textblocktransform"><svg viewBox="0 0 279.72 279.72" height="279.72" width="279.72" id="textblock"><g><svg viewBox="0 0 279.72 279.72" height="279.72" width="279.72"><g transform="matrix(1,0,0,1,72.61075099660964,87.2935620104306)"><svg viewBox="0 0 134.49849800678075 105.13287597913883" height="105.13287597913883" width="134.49849800678075"><g id="icon-0"><svg xmlns="http://www.w3.org/2000/svg" xmlns:xlink="http://www.w3.org/1999/xlink" version="1.1" x="0" y="0" viewBox="0.0005867845317715746 10.834 99.99932138742176 78.16604950407574" enable-background="new 0 0 100 100" xml:space="preserve" height="105.13287597913883" width="134.49849800678075" class="icon-xg-0" data-fill-palette-color="accent" id="xg-0"><g fill="#11bfff" data-fill-palette-color="accent"><g fill="#11bfff" data-fill-palette-color="accent"><path d="M99.415 48.448c-2.364-11.313-11.636-20.02-23.068-21.668-2.097-0.302-4.21-0.335-6.316-0.152l7.44-11.365-6.764-4.429-14.048 2.934-4.42 6.765 11.349 7.428C50.55 32.354 42.53 45.933 45.411 59.728c0.616 2.952 1.713 5.721 3.186 8.239 1.926-2.292 3.349-5.038 4.062-8.105-0.15-0.513-0.28-1.035-0.392-1.565-2.32-11.107 4.828-22.033 15.938-24.353 2.371-0.495 4.771-0.573 7.143-0.23 8.532 1.229 15.449 7.726 17.211 16.168 2.321 11.108-4.828 22.033-15.938 24.354-2.366 0.495-4.771 0.572-7.14 0.231-0.825-0.118-1.628-0.302-2.419-0.515-1.194 2.147-2.583 4.161-4.142 6.017 1.777 0.659 3.634 1.152 5.56 1.429 3.183 0.459 6.404 0.355 9.572-0.305C92.94 77.978 102.522 63.337 99.415 48.448z" fill="#11bfff" data-fill-palette-color="accent"></path></g><g fill="#11bfff" data-fill-palette-color="accent"><path d="M64.276 69.088L64.276 69.088 64.276 69.088c0.606-1.364 1.13-2.778 1.557-4.237 0.021-0.07 0.039-0.141 0.057-0.209 0.174-0.603 0.329-1.214 0.468-1.833 0.039-0.16 0.075-0.324 0.109-0.489 0.146-0.696 0.278-1.401 0.381-2.116 1.056-7.321-0.352-14.437-3.584-20.515-3.029 1.93-5.364 4.752-6.688 8.033 1.17 3.482 1.589 7.272 1.03 11.149-0.101 0.685-0.244 1.353-0.396 2.016-0.048 0.218-0.096 0.439-0.152 0.652l0 0c-1.343 5.154-4.312 9.543-8.253 12.72-1.22 0.985-2.54 1.852-3.928 2.588-0.058 0.03-0.109 0.063-0.167 0.093-0.351 0.18-0.706 0.354-1.064 0.519-0.396 0.183-0.795 0.354-1.201 0.513-0.306 0.122-0.615 0.234-0.926 0.345-0.477 0.165-0.953 0.319-1.438 0.455-0.248 0.069-0.497 0.131-0.747 0.192-0.559 0.137-1.12 0.26-1.689 0.357-0.183 0.032-0.367 0.055-0.55 0.082-0.636 0.094-1.278 0.17-1.929 0.211-0.118 0.007-0.237 0.012-0.355 0.018-0.711 0.033-1.427 0.046-2.149 0.017-0.06-0.001-0.116-0.007-0.176-0.011-0.777-0.036-1.56-0.104-2.346-0.217C16.899 77.512 7.683 65.189 9.591 51.95c1.905-13.236 14.229-22.453 27.468-20.547 3.885 0.56 7.409 2.037 10.423 4.15 1.881-2.53 4.143-4.778 6.728-6.649-4.455-3.476-9.837-5.881-15.821-6.743C20.055 19.52 2.988 32.285 0.347 50.619c-2.643 18.333 10.126 35.4 28.46 38.043 0.606 0.086 1.215 0.154 1.816 0.209 0.201 0.018 0.395 0.024 0.595 0.04 0.406 0.028 0.812 0.059 1.218 0.071 0.23 0.009 0.456 0.008 0.682 0.012 0.376 0.006 0.75 0.009 1.124 0.002 0.234-0.005 0.467-0.016 0.699-0.023 0.365-0.016 0.729-0.035 1.093-0.061 0.229-0.017 0.46-0.036 0.688-0.059 0.369-0.033 0.738-0.075 1.103-0.121 0.217-0.027 0.436-0.056 0.65-0.088 0.381-0.057 0.759-0.121 1.138-0.191 0.193-0.034 0.392-0.068 0.586-0.108 0.417-0.082 0.829-0.178 1.242-0.275 0.148-0.037 0.301-0.07 0.451-0.109 0.52-0.134 1.037-0.279 1.546-0.436 0.038-0.012 0.077-0.021 0.116-0.034 1.145-0.358 2.264-0.775 3.357-1.25 0.037-0.016 0.071-0.032 0.105-0.048 0.497-0.218 0.991-0.447 1.475-0.689 0.087-0.042 0.169-0.089 0.253-0.131 0.438-0.22 0.869-0.45 1.295-0.688 0.099-0.056 0.194-0.113 0.292-0.17 0.41-0.235 0.818-0.482 1.218-0.735 0.096-0.061 0.191-0.122 0.287-0.185 0.403-0.262 0.802-0.531 1.196-0.812 0.08-0.056 0.162-0.115 0.244-0.175 0.413-0.297 0.818-0.606 1.218-0.923 0.055-0.043 0.111-0.087 0.161-0.129C58.75 78.262 62.076 74.014 64.276 69.088z" fill="#11bfff" data-fill-palette-color="accent"></path></g></g></svg></g></svg></g><g id="text-0"><path d="M19.179 95.206l2.276 0.698-3.155 10.295-13.79-4.226c-1.276-0.391-2.179-1.112-2.709-2.164v0c-0.348-0.709-0.494-1.433-0.437-2.172 0.055-0.732 0.236-1.599 0.543-2.599v0l1.436-4.685 2.276 0.698-1.537 5.017c-0.582 1.901-0.081 3.094 1.504 3.579v0l2.952 0.904 1.833-5.983 2.277 0.697-1.834 5.984 5.954 1.824z" fill="#49a8ff" data-fill-palette-color="primary"></path><path d="M25.129 88.242v0c-1.964 0.83-3.903 1.221-5.817 1.174-1.908-0.044-4.775-0.516-8.601-1.415v0l1.009-2.284c4.261 1.114 7.693 1.498 10.296 1.15v0c-1.496-2.158-4.091-4.437-7.784-6.837v0l1.009-2.284c3.241 2.223 5.521 4.024 6.838 5.405 1.324 1.383 2.341 3.08 3.05 5.091z" fill="#49a8ff" data-fill-palette-color="primary"></path><path d="M20.454 67.918v0c1.643-2.588 3.513-3.275 5.61-2.062v0c2.608 1.509 2.925 3.972 0.949 7.389v0l-0.554 0.957-1.806-1.044 0.649-1.122c0.605-1.046 0.864-1.866 0.777-2.459-0.087-0.594-0.504-1.107-1.252-1.54v0c-0.486-0.281-0.954-0.308-1.402-0.08-0.451 0.218-0.838 0.607-1.161 1.166v0c-0.64 1.107-0.754 2.201-0.341 3.283 0.415 1.092 1.17 1.955 2.264 2.588v0c1.155 0.668 2.289 0.869 3.4 0.603 1.111-0.266 1.984-0.946 2.617-2.04v0c0.57-0.985 0.791-1.928 0.663-2.83v0l2.198-0.603c0.253 1.583-0.044 3.107-0.891 4.572v0c-1.03 1.782-2.376 2.902-4.038 3.361-1.664 0.45-3.323 0.196-4.976-0.76v0c-1.842-1.066-3.03-2.45-3.562-4.154-0.538-1.707-0.253-3.449 0.856-5.225z" fill="#49a8ff" data-fill-palette-color="primary"></path><path d="M36.503 67.45l-10.432-7.741 2.787-3.757c1.193-1.608 2.288-2.583 3.287-2.927v0c0.878-0.311 1.673-0.333 2.385-0.067 0.708 0.272 1.542 0.763 2.501 1.475v0l5.889 4.37-1.419 1.912-5.872-4.357c-0.259-0.193-0.484-0.35-0.673-0.473-0.193-0.117-0.462-0.238-0.807-0.362-0.349-0.119-0.672-0.167-0.97-0.143-0.298 0.024-0.63 0.136-0.997 0.336-0.361 0.204-0.703 0.523-1.025 0.958v0l-1.84 2.479 8.605 6.385z" fill="#49a8ff" data-fill-palette-color="primary"></path><path d="M38.698 47.572l-1.638 1.758-0.251-6.842 1.882 1.752 2.491-2.676 1.666 1.551-2.492 2.676 4.079 3.798c0.463 0.431 0.917 0.71 1.364 0.839 0.447 0.128 0.866 0.106 1.258-0.068 0.401-0.173 0.742-0.369 1.023-0.588 0.275-0.224 0.59-0.525 0.944-0.906v0l1.665 1.551c-1.412 1.516-2.746 2.367-4.001 2.551-1.261 0.189-2.564-0.344-3.912-1.598v0z" fill="#49a8ff" data-fill-palette-color="primary"></path><path d="M56.042 27.422l6.771 5.392 0.127-0.094-3.201-8.042c-0.704-1.726-0.862-3.148-0.476-4.266 0.386-1.118 1.369-2.263 2.949-3.434v0l11.29 15.211-2.048 1.52-9.582-12.91c-0.255 0.434-0.372 0.871-0.352 1.311 0.016 0.434 0.152 1.007 0.409 1.717v0l4.204 11.339-1.912 1.419-9.653-7.295c-0.614-0.462-1.122-0.764-1.523-0.903-0.4-0.15-0.847-0.163-1.342-0.041v0l9.582 12.911-2.039 1.513-11.29-15.212c1.579-1.172 2.956-1.774 4.131-1.806 1.184-0.031 2.503 0.526 3.955 1.67z" fill="#49a8ff" data-fill-palette-color="primary"></path><path d="M80.11 20.055v0l1.142 2.149c-0.855-0.142-1.72 0.019-2.595 0.484v0c-0.751 0.399-1.251 0.856-1.502 1.371-0.261 0.512-0.246 1.041 0.044 1.587v0c0.557 1.048 1.614 1.159 3.171 0.332v0l3.163-1.681-2.422-4.559c-1.025-1.929-2.48-2.393-4.366-1.391v0l-3.824 2.032-1.068-2.01 3.945-2.096c1.545-0.821 2.935-1.07 4.172-0.749 1.24 0.328 2.24 1.208 3.001 2.641v0l3.733 7.025-5.332 2.832c-1.358 0.722-2.596 0.99-3.713 0.804-1.114-0.18-1.98-0.853-2.6-2.019-0.616-1.16-0.664-2.268-0.143-3.324 0.524-1.05 1.422-1.913 2.693-2.588v0c0.72-0.382 1.553-0.662 2.501-0.84z" fill="#49a8ff" data-fill-palette-color="primary"></path><path d="M90.518 23.627l-4.74-12.095 4.356-1.707c1.864-0.73 3.31-0.977 4.339-0.739v0c0.909 0.202 1.595 0.605 2.058 1.208 0.456 0.606 0.902 1.465 1.337 2.577v0l2.676 6.827-2.217 0.869-2.668-6.808c-0.118-0.301-0.224-0.553-0.319-0.757-0.102-0.202-0.266-0.447-0.492-0.736-0.233-0.286-0.482-0.498-0.747-0.635-0.265-0.138-0.606-0.219-1.024-0.244-0.415-0.019-0.874 0.071-1.377 0.268v0l-2.874 1.127 3.909 9.976z" fill="#49a8ff" data-fill-palette-color="primary"></path><path d="M109.716 9.401v0l0.608 2.357c-0.798-0.338-1.677-0.384-2.636-0.137v0c-0.823 0.212-1.417 0.539-1.782 0.982-0.373 0.437-0.483 0.955-0.328 1.553v0c0.296 1.149 1.298 1.504 3.005 1.065v0l3.469-0.895-1.289-4.999c-0.545-2.115-1.852-2.906-3.919-2.373v0l-4.193 1.081-0.568-2.204 4.326-1.115c1.694-0.437 3.104-0.354 4.231 0.247 1.129 0.608 1.896 1.698 2.3 3.27v0l1.986 7.703-5.846 1.507c-1.49 0.384-2.756 0.355-3.798-0.088-1.041-0.435-1.726-1.292-2.056-2.571-0.328-1.272-0.115-2.36 0.638-3.265 0.755-0.898 1.83-1.527 3.224-1.886v0c0.789-0.203 1.665-0.28 2.628-0.232z" fill="#49a8ff" data-fill-palette-color="primary"></path><path d="M124.799 14.572v0c-1.755 0.228-3.337-0.169-4.744-1.191-1.4-1.016-2.219-2.446-2.458-4.292v0c-0.241-1.86 0.187-3.502 1.284-4.926 1.097-1.424 2.576-2.257 4.436-2.498v0l6.311-0.819 1.621 12.507c0.105 0.808 0.094 1.546-0.031 2.214-0.125 0.675-0.343 1.259-0.655 1.753-0.318 0.495-0.614 0.887-0.888 1.178-0.274 0.291-0.606 0.596-0.997 0.915v0c-1.04 0.723-2.353 1.187-3.942 1.393v0l-3.009 0.39-0.292-2.257 2.768-0.359c1.574-0.204 2.667-0.548 3.277-1.03v0c1.124-0.833 1.585-2.036 1.381-3.611v0l-1.365-10.521-3.887 0.504c-1.268 0.164-2.227 0.689-2.877 1.573-0.65 0.885-0.891 1.978-0.722 3.281v0c0.163 1.254 0.681 2.192 1.555 2.816 0.867 0.624 1.847 0.865 2.942 0.723v0c1.177-0.153 2.174-0.608 2.989-1.365v0l0.313 2.414c-0.899 0.662-1.902 1.065-3.01 1.208z" fill="#49a8ff" data-fill-palette-color="primary"></path><path d="M141.949 0.37v0c3.063 0.122 4.596 1.394 4.6 3.817v0c0.005 3.013-1.967 4.523-5.915 4.529v0l-1.106 0.002-0.003-2.086 1.296-0.002c1.208-0.002 2.047-0.189 2.517-0.563 0.47-0.373 0.704-0.991 0.703-1.855v0c-0.001-0.562-0.212-0.98-0.634-1.253-0.415-0.28-0.945-0.42-1.592-0.419v0c-1.278 0.002-2.282 0.453-3.011 1.353-0.736 0.907-1.103 1.993-1.101 3.258v0c0.002 1.335 0.397 2.416 1.185 3.243 0.788 0.828 1.814 1.24 3.078 1.239v0c1.138-0.002 2.065-0.284 2.781-0.848v0l1.625 1.599c-1.242 1.013-2.709 1.521-4.402 1.524v0c-2.058 0.003-3.703-0.598-4.934-1.804-1.224-1.213-1.838-2.775-1.84-4.686v0c-0.003-2.128 0.598-3.85 1.804-5.165 1.206-1.322 2.856-1.95 4.949-1.883z" fill="#49a8ff" data-fill-palette-color="primary"></path><path d="M150.256 14.037l1.755-12.872 11.828 1.613c1.267 0.173 2.243 0.55 2.929 1.133v0c0.699 0.592 1.118 1.287 1.258 2.085 0.138 0.806 0.134 1.744-0.012 2.817v0l-1.023 7.506-2.359-0.322 1.023-7.506c0.191-1.399-0.105-2.378-0.886-2.939v0c-0.4-0.288-1.251-0.521-2.553-0.699v0l-1.096-0.149-1.447 10.617-2.359-0.322 1.447-10.617-4.698-0.64-1.447 10.617z" fill="#49a8ff" data-fill-palette-color="primary"></path><path d="M180.682 6.468v0c2.907 0.97 4.025 2.62 3.354 4.948v0c-0.835 2.895-3.149 3.796-6.942 2.701v0l-1.063-0.306 0.578-2.005 1.245 0.359c1.161 0.335 2.019 0.389 2.575 0.162 0.555-0.227 0.953-0.756 1.192-1.586v0c0.156-0.54 0.069-1-0.26-1.38-0.32-0.385-0.791-0.667-1.412-0.846v0c-1.228-0.354-2.318-0.201-3.269 0.461-0.96 0.666-1.615 1.607-1.965 2.821v0c-0.37 1.282-0.292 2.431 0.234 3.445 0.526 1.014 1.397 1.697 2.612 2.047v0c1.093 0.315 2.062 0.302 2.906-0.039v0l1.115 1.989c-1.475 0.627-3.026 0.706-4.652 0.237v0c-1.977-0.57-3.389-1.606-4.236-3.108-0.838-1.506-0.991-3.177-0.462-5.013v0c0.59-2.045 1.647-3.531 3.172-4.458 1.527-0.934 3.286-1.077 5.278-0.429z" fill="#49a8ff" data-fill-palette-color="primary"></path><path d="M185.004 21.931l5-11.99 4.317 1.801c1.848 0.771 3.058 1.599 3.633 2.485v0c0.513 0.777 0.726 1.543 0.64 2.299-0.093 0.753-0.37 1.68-0.83 2.782v0l-2.822 6.768-2.198-0.917 2.815-6.748c0.124-0.298 0.223-0.554 0.296-0.767 0.067-0.216 0.12-0.506 0.158-0.87 0.031-0.367 0-0.693-0.095-0.976-0.095-0.283-0.284-0.579-0.567-0.887-0.285-0.302-0.677-0.556-1.176-0.764v0l-2.849-1.189-4.125 9.89z" fill="#49a8ff" data-fill-palette-color="primary"></path><path d="M204.825 19.273l-2.101-1.165 6.58-1.893-1.247 2.249 3.197 1.773-1.104 1.99-3.197-1.773-2.703 4.874c-0.307 0.553-0.468 1.062-0.486 1.526-0.017 0.465 0.106 0.866 0.369 1.204 0.265 0.348 0.537 0.631 0.817 0.851 0.283 0.213 0.652 0.446 1.106 0.698v0l-1.104 1.99c-1.812-1.005-2.958-2.095-3.439-3.269-0.487-1.178-0.284-2.571 0.608-4.181v0z" fill="#49a8ff" data-fill-palette-color="primary"></path><path d="M229.888 26.037l3.907 3.06-1.468 1.875-3.774-2.956c-1.438-1.126-2.614-1.105-3.527 0.061v0c-0.489 0.625-0.585 1.402-0.287 2.332 0.293 0.925 0.822 2.009 1.589 3.251v0c0.339 0.569 0.604 1.08 0.794 1.532 0.191 0.462 0.335 0.985 0.431 1.569 0.095 0.574 0.035 1.174-0.179 1.8-0.21 0.621-0.566 1.252-1.068 1.894v0c-0.554 0.708-1.202 1.227-1.942 1.557-0.736 0.325-1.465 0.463-2.186 0.416-0.721-0.047-1.388-0.181-2-0.402-0.622-0.22-1.173-0.508-1.651-0.865v0c-0.212-0.139-0.501-0.352-0.866-0.637v0l-3.326-2.605 1.468-1.875 3.26 2.553c0.968 0.758 1.914 1.173 2.838 1.246 0.93 0.077 1.702-0.277 2.318-1.063v0c0.299-0.382 0.477-0.786 0.535-1.213 0.054-0.422 0.005-0.866-0.147-1.333-0.156-0.461-0.337-0.902-0.544-1.323-0.211-0.415-0.484-0.892-0.819-1.431v0c-0.097-0.138-0.168-0.252-0.214-0.342v0c-1.562-2.597-1.587-4.86-0.076-6.79v0c0.935-1.195 2.014-1.786 3.236-1.775 1.232 0.01 2.465 0.498 3.698 1.464z" fill="#49a8ff" data-fill-palette-color="primary"></path><path d="M229.808 42.508l4.698-4.763 1.695 1.672-4.771 4.838c-1.026 1.04-1.581 1.923-1.666 2.649-0.084 0.726 0.304 1.513 1.164 2.361v0l2.025 1.998 7.524-7.629 1.696 1.672-8.664 8.784c-1.583 1.605-3.199 2.404-4.848 2.395-1.649-0.018-3.371-0.913-5.167-2.683v0l-1.388-1.369 1.598-1.62 1.215 1.198c2.35 2.318 4.496 2.609 6.436 0.872v0l-1.62-1.598c-1.68-1.657-2.535-3.082-2.563-4.274-0.028-1.192 0.851-2.693 2.636-4.503z" fill="#49a8ff" data-fill-palette-color="primary"></path><path d="M248.464 52.837l3.013 3.715-1.767 1.434-3.013-3.715c-0.332-0.409-0.694-0.699-1.085-0.87-0.392-0.171-0.729-0.141-1.014 0.089v0c-0.169 0.137-0.29 0.294-0.363 0.471-0.073 0.177-0.116 0.347-0.129 0.511-0.007 0.159 0.019 0.369 0.077 0.63 0.062 0.266 0.119 0.464 0.17 0.594 0.051 0.13 0.267 0.692 0.648 1.686 0.386 0.989 0.647 1.74 0.784 2.254 0.141 0.519 0.151 0.995 0.031 1.426-0.125 0.436-0.3 0.795-0.525 1.077-0.229 0.276-0.476 0.522-0.744 0.739v0c-1.877 1.522-3.861 0.993-5.954-1.588v0l-2.946-3.634 1.767-1.433 2.947 3.633c1.071 1.32 1.955 1.697 2.653 1.131v0c0.338-0.274 0.462-0.696 0.372-1.264-0.09-0.569-0.283-1.191-0.577-1.866-0.293-0.685-0.562-1.385-0.807-2.099-0.245-0.715-0.295-1.452-0.151-2.21 0.139-0.755 0.544-1.404 1.215-1.949v0c0.857-0.695 1.779-0.895 2.766-0.602 0.994 0.288 1.871 0.902 2.632 1.84z" fill="#49a8ff" data-fill-palette-color="primary"></path><path d="M253.381 63.338l-1.317-2.009 6.704 1.388-2.15 1.409 2.005 3.058-1.904 1.247-2.004-3.057-4.661 3.055c-0.529 0.347-0.909 0.722-1.14 1.125-0.231 0.403-0.309 0.816-0.235 1.238 0.073 0.431 0.182 0.809 0.328 1.133 0.151 0.321 0.37 0.698 0.654 1.133v0l-1.903 1.248c-1.136-1.733-1.644-3.231-1.523-4.495 0.117-1.269 0.945-2.408 2.484-3.417v0z" fill="#49a8ff" data-fill-palette-color="primary"></path><path d="M264.27 77.007v0c1.31 2.771 0.893 4.719-1.253 5.844v0c-2.669 1.4-4.92 0.351-6.753-3.144v0l-0.514-0.98 1.847-0.969 0.602 1.148c0.561 1.07 1.116 1.727 1.664 1.971 0.548 0.244 1.205 0.165 1.971-0.237v0c0.498-0.261 0.77-0.642 0.816-1.142 0.056-0.497-0.066-1.032-0.365-1.604v0c-0.594-1.132-1.458-1.813-2.594-2.043-1.145-0.232-2.277-0.055-3.397 0.533v0c-1.182 0.62-1.957 1.471-2.326 2.552-0.369 1.082-0.259 2.182 0.328 3.302v0c0.529 1.008 1.208 1.698 2.038 2.072v0l-0.664 2.181c-1.473-0.631-2.603-1.696-3.39-3.196v0c-0.956-1.823-1.184-3.559-0.685-5.208 0.508-1.647 1.609-2.914 3.301-3.802v0c1.885-0.989 3.689-1.253 5.413-0.793 1.731 0.457 3.051 1.628 3.961 3.515z" fill="#49a8ff" data-fill-palette-color="primary"></path><path d="M256.003 90.699l12.222-4.405 4.047 11.23c0.433 1.203 0.551 2.243 0.353 3.121v0c-0.201 0.894-0.623 1.587-1.266 2.08-0.65 0.496-1.484 0.927-2.502 1.294v0l-7.127 2.569-0.807-2.24 7.127-2.569c1.328-0.479 2.06-1.194 2.194-2.146v0c0.07-0.488-0.117-1.35-0.563-2.586v0l-0.375-1.041-10.08 3.633-0.807-2.24 10.08-3.633-1.608-4.46-10.08 3.633z" fill="#49a8ff" data-fill-palette-color="primary"></path><path d="M0 140.464c0-3.996 3.24-7.236 7.236-7.236 3.996 0 7.236 3.24 7.236 7.236 0 3.996-3.24 7.236-7.236 7.236-3.996 0-7.236-3.24-7.236-7.236z" fill="#49a8ff" data-fill-palette-color="primary"></path><path d="M265.248 140.464c0-3.996 3.24-7.236 7.236-7.236 3.996 0 7.236 3.24 7.236 7.236 0 3.996-3.24 7.236-7.236 7.236-3.996 0-7.236-3.24-7.236-7.236z" fill="#49a8ff" data-fill-palette-color="primary"></path></g><g id="text-1"><path d="M9.314 178.813l-0.768-2.508 7.676-5.81 0.629 2.056-5.013 3.815-1.329 0.77 0.046 0.152 1.056-0.114 6.684 0.092 0.767 2.508-5.459 3.908-0.917 0.567 0.046 0.151 1.536-0.095 6.241 0.194 0.632 2.066-0.923 0.117-8.696-0.655-0.764-2.499 5.179-3.778 0.844-0.589-0.043-0.141-1.023 0.005z" fill="#3d859f" data-fill-palette-color="secondary"></path><path d="M14.684 194.522l-1.175-2.867c-0.194-0.474-0.282-0.864-0.262-1.167 0.017-0.311 0.097-0.56 0.24-0.748 0.15-0.19 0.325-0.338 0.525-0.443 0.197-0.111 0.38-0.201 0.549-0.27v0l2.74-1.123c0.143-0.059 0.321-0.116 0.533-0.173 0.216-0.066 0.444-0.083 0.684-0.052 0.247 0.028 0.492 0.144 0.735 0.348 0.237 0.207 0.451 0.544 0.642 1.012v0l1.258 3.071c0.256 0.624 0.398 1.139 0.428 1.544 0.029 0.405-0.06 0.734-0.267 0.986-0.205 0.259-0.532 0.48-0.981 0.664v0l-2.106 0.863-1.022-2.496c-0.349-0.851-0.618-1.554-0.807-2.106-0.182-0.555-0.303-0.924-0.361-1.105v0l-0.79 0.324c-0.382 0.141-0.478 0.446-0.286 0.914v0l0.296 0.721c0.21 0.513 0.423 1.015 0.639 1.504 0.213 0.482 0.416 0.923 0.61 1.321 0.187 0.401 0.341 0.722 0.462 0.961v0l-0.695 0.945c-0.292 0.12-0.822-0.756-1.589-2.628zM18.045 189.637l-0.916 0.376 1.606 3.919 0.916-0.375c0.188-0.077 0.312-0.155 0.372-0.233 0.059-0.077 0.053-0.223-0.019-0.436-0.066-0.216-0.201-0.574-0.407-1.074v0l-0.707-1.726c-0.186-0.455-0.468-0.605-0.845-0.451z" fill="#3d859f" data-fill-palette-color="secondary"></path><path d="M19.368 204.292l-0.973-1.785 6.874-3.746 1.007-0.729 1.119 2.054-3.743 6.011 7.136 0.215 0.993 1.822-7.956 4.336-0.973-1.785 5.042-2.748-0.081-0.148-1.462 0.113-3.981-0.038-0.892-1.638 2.125-3.366 0.878-1.186-0.071-0.13z" fill="#3d859f" data-fill-palette-color="secondary"></path><path d="M26.75 216.814l-0.43-0.638c-0.436-0.647-0.598-1.215-0.488-1.704 0.107-0.495 0.422-0.92 0.947-1.273v0c0.559-0.377 1.089-0.514 1.59-0.411 0.501 0.103 0.96 0.463 1.376 1.08v0l0.442 0.655c0.432 0.641 0.801 1.226 1.107 1.757 0.31 0.536 0.56 0.982 0.749 1.338v0l0.847-0.571c0.076-0.051 0.148-0.113 0.219-0.185 0.07-0.072 0.103-0.167 0.101-0.284-0.012-0.119-0.087-0.28-0.225-0.484v0l-0.43-0.638c-0.628-0.932-1.164-1.697-1.609-2.295-0.449-0.604-0.76-1.008-0.933-1.214v0l0.876-0.793c0.117-0.078 0.407 0.196 0.872 0.822 0.459 0.631 1.199 1.704 2.219 3.219v0l0.436 0.646c0.286 0.425 0.448 0.791 0.484 1.097 0.035 0.315-0.007 0.581-0.124 0.795-0.108 0.217-0.247 0.4-0.418 0.548-0.165 0.145-0.311 0.261-0.44 0.347v0l-4.089 2.756-0.707-1.049-0.082-0.669c-0.302-0.322-0.647-0.716-1.037-1.181-0.396-0.462-0.813-1.019-1.253-1.671zM27.645 215.766v0l1.972 2.927c0.126 0.186 0.218 0.285 0.276 0.297 0.053 0.015 0.169-0.038 0.35-0.16v0l0.987-0.665-2.231-3.311c-0.153-0.227-0.314-0.347-0.484-0.36-0.173-0.019-0.38 0.052-0.618 0.213v0c-0.239 0.161-0.375 0.329-0.41 0.505-0.032 0.166 0.02 0.351 0.158 0.554z" fill="#3d859f" data-fill-palette-color="secondary"></path><path d="M35.525 228.871v0c-0.266-0.336-0.451-0.655-0.556-0.958-0.109-0.308-0.136-0.698-0.08-1.172v0c0.005-0.039 0.018-0.153 0.04-0.34 0.022-0.187 0.049-0.397 0.081-0.628 0.027-0.227 0.051-0.434 0.073-0.622 0.022-0.187 0.039-0.308 0.05-0.362v0c0.043-0.365 0.047-0.682 0.013-0.951-0.034-0.269-0.155-0.536-0.363-0.8v0c-0.139-0.176-0.236-0.27-0.29-0.281-0.059-0.007-0.182 0.064-0.37 0.211v0l-1.885 1.49-1.162-1.471 7.654-6.05 1.163 1.471-4.356 3.443 0.307 0.389c0.113 0.143 0.273 0.227 0.48 0.251v0c0.128 0.015 0.378 0.037 0.75 0.065 0.382 0.03 0.81 0.062 1.286 0.098 0.47 0.04 0.907 0.071 1.31 0.094v0l1.404 1.777-0.53 0.11c-0.341-0.035-0.704-0.075-1.089-0.12-0.384-0.055-0.755-0.106-1.115-0.153-0.36-0.047-0.681-0.097-0.965-0.15-0.284-0.053-0.485-0.104-0.604-0.153v0c0.065 0.343 0.091 0.676 0.078 0.999-0.013 0.324-0.032 0.679-0.057 1.066-0.031 0.391-0.052 0.847-0.063 1.365v0c0.002 0.455 0.079 0.819 0.232 1.092 0.153 0.273 0.249 0.434 0.289 0.484v0l-1.02 0.444c-0.083-0.06-0.196-0.145-0.337-0.258-0.136-0.116-0.259-0.243-0.368-0.38z" fill="#3d859f" data-fill-palette-color="secondary"></path><path d="M40.56 234.253l-2.086-2.29c-0.345-0.379-0.561-0.715-0.647-1.007-0.091-0.298-0.101-0.559-0.031-0.784 0.075-0.23 0.189-0.429 0.341-0.596 0.147-0.172 0.288-0.32 0.424-0.443v0l2.188-1.994c0.114-0.104 0.261-0.219 0.441-0.345 0.18-0.136 0.389-0.231 0.625-0.284 0.241-0.058 0.511-0.033 0.809 0.074 0.293 0.113 0.61 0.356 0.951 0.731v0l2.235 2.453c0.454 0.498 0.765 0.933 0.932 1.303 0.167 0.371 0.196 0.71 0.087 1.019-0.104 0.313-0.335 0.633-0.694 0.959v0l-1.682 1.533-1.817-1.993c-0.62-0.68-1.113-1.247-1.479-1.702-0.362-0.459-0.601-0.764-0.719-0.914v0l-0.63 0.575c-0.311 0.264-0.296 0.583 0.045 0.957v0l0.525 0.576c0.374 0.41 0.746 0.808 1.115 1.193 0.365 0.38 0.707 0.724 1.026 1.032 0.314 0.313 0.568 0.561 0.764 0.744v0l-0.328 1.126c-0.234 0.213-1.032-0.428-2.395-1.923zM42.042 228.511l-0.732 0.668 2.853 3.13 0.732-0.667c0.151-0.137 0.24-0.252 0.27-0.346 0.029-0.093-0.027-0.227-0.168-0.403-0.136-0.18-0.386-0.47-0.75-0.87v0l-1.256-1.378c-0.331-0.363-0.647-0.408-0.949-0.134z" fill="#3d859f" data-fill-palette-color="secondary"></path><path d="M50.738 243.971l-1.524-1.346 2.489-2.82 0.149-6.936 1.849 1.631-0.204 3.67-0.098 1.178 0.118 0.105 1.157-0.244 3.624-0.651 1.849 1.631-1.064 0.298-5.897 0.711z" fill="#3d859f" data-fill-palette-color="secondary"></path><path d="M58.953 250.653l-3.368-2.603c-0.545-0.421-0.864-0.841-0.958-1.26-0.095-0.428 0.049-0.89 0.432-1.384v0l1.933-2.501c0.095-0.122 0.219-0.261 0.375-0.416 0.154-0.165 0.343-0.294 0.566-0.388 0.228-0.099 0.498-0.121 0.81-0.066 0.308 0.061 0.662 0.246 1.063 0.555v0l3.367 2.603c0.406 0.314 0.674 0.61 0.805 0.888 0.132 0.289 0.179 0.555 0.14 0.801-0.04 0.235-0.118 0.451-0.233 0.646-0.111 0.189-0.214 0.345-0.308 0.467v0l-1.811 2.343c-0.112 0.144-0.247 0.297-0.407 0.457-0.16 0.161-0.351 0.288-0.574 0.382-0.225 0.084-0.486 0.095-0.785 0.033-0.304-0.066-0.653-0.252-1.047-0.557zM56.864 247.36v0l2.434 1.882c0.4 0.309 0.725 0.303 0.974-0.02v0l1.849-2.392c0.249-0.322 0.174-0.638-0.226-0.948v0l-2.435-1.881c-0.389-0.301-0.708-0.29-0.957 0.032v0l-1.849 2.393c-0.249 0.322-0.179 0.634 0.21 0.934z" fill="#3d859f" data-fill-palette-color="secondary"></path><path d="M64.526 254.531l-0.65-0.43c-0.422-0.279-0.713-0.552-0.874-0.818-0.161-0.266-0.234-0.517-0.221-0.754 0.017-0.242 0.076-0.464 0.176-0.666 0.107-0.199 0.21-0.375 0.311-0.527v0l2.722-4.112 1.564 1.036-2.74 4.137c-0.13 0.184-0.156 0.356-0.077 0.518 0.084 0.165 0.203 0.298 0.355 0.399v0l2.547 1.687c0.187 0.124 0.31 0.18 0.369 0.168 0.055-0.006 0.146-0.106 0.274-0.299v0l2.821-4.26 1.564 1.035-3.81 5.754-1.055-0.698-0.314-0.574c-0.388-0.164-0.834-0.375-1.338-0.633-0.498-0.254-1.039-0.574-1.624-0.963z" fill="#3d859f" data-fill-palette-color="secondary"></path><path d="M72.305 259.359l-1.631-0.925 3.404-6.003 1.1 0.623 0.353 0.552c0.301 0.009 0.607 0.054 0.918 0.133 0.31 0.079 0.67 0.235 1.08 0.467v0c0.654 0.371 1.144 0.746 1.47 1.124 0.324 0.369 0.532 0.629 0.624 0.779v0l-1.127 0.898c-0.079-0.117-0.216-0.288-0.412-0.512-0.196-0.224-0.44-0.463-0.732-0.718-0.288-0.26-0.631-0.503-1.028-0.728v0l-0.147-0.083c-0.428-0.243-0.754-0.315-0.979-0.217-0.225 0.098-0.455 0.34-0.689 0.724v0z" fill="#3d859f" data-fill-palette-color="secondary"></path><path d="M87.676 266.895l-4.197-1.868c-0.667-0.297-1.146-0.621-1.435-0.973-0.296-0.355-0.433-0.754-0.413-1.198 0.012-0.441 0.142-0.94 0.39-1.499v0l1.397-3.138c0.4-0.898 0.897-1.473 1.493-1.722 0.593-0.244 1.345-0.163 2.256 0.242v0l4.235 1.885c0.648 0.288 1.127 0.544 1.435 0.765 0.315 0.225 0.457 0.372 0.426 0.443v0l-0.802 1.051c-0.146-0.103-0.604-0.345-1.372-0.726-0.775-0.383-1.907-0.906-3.396-1.569v0l-0.722-0.321c-0.751-0.334-1.275-0.167-1.571 0.5v0l-1.598 3.59c-0.143 0.321-0.169 0.605-0.08 0.853 0.09 0.248 0.343 0.464 0.761 0.65v0l0.577 0.257c0.905 0.403 1.67 0.731 2.295 0.986 0.628 0.264 1.146 0.483 1.553 0.656v0l0.852-1.915-0.851-0.368-1.913-0.678 0.613-1.376 4.533 2.017-1.76 3.957 0.016 0.353c-0.034 0.077-0.263 0.056-0.687-0.064-0.42-0.11-1.099-0.373-2.035-0.79z" fill="#3d859f" data-fill-palette-color="secondary"></path><path d="M94.892 269.646l-0.727-0.252c-0.737-0.255-1.208-0.611-1.414-1.068-0.213-0.46-0.216-0.989-0.009-1.586v0c0.22-0.637 0.562-1.066 1.023-1.285 0.462-0.219 1.045-0.207 1.749 0.036v0l0.747 0.258c0.73 0.252 1.377 0.498 1.941 0.738 0.57 0.242 1.038 0.448 1.403 0.618v0l0.334-0.965c0.03-0.086 0.051-0.179 0.063-0.28 0.012-0.1-0.018-0.196-0.09-0.287-0.081-0.088-0.238-0.171-0.471-0.252v0l-0.727-0.251c-1.062-0.367-1.951-0.656-2.666-0.866-0.722-0.212-1.213-0.349-1.475-0.41v0l0.223-1.16c0.046-0.133 0.443-0.088 1.192 0.133 0.746 0.228 1.982 0.641 3.708 1.237v0l0.737 0.255c0.485 0.168 0.833 0.362 1.046 0.585 0.217 0.231 0.344 0.468 0.379 0.71 0.044 0.238 0.043 0.468-0.005 0.69-0.045 0.215-0.092 0.395-0.142 0.542v0l-1.611 4.66-1.195-0.413-0.468-0.485c-0.435-0.076-0.948-0.183-1.539-0.32-0.594-0.131-1.263-0.325-2.006-0.582zM94.977 268.27v0l3.336 1.154c0.212 0.073 0.345 0.097 0.399 0.071 0.051-0.019 0.113-0.132 0.184-0.338v0l0.389-1.125-3.774-1.305c-0.259-0.089-0.46-0.088-0.604 0.003-0.15 0.089-0.272 0.27-0.365 0.543v0c-0.094 0.272-0.102 0.489-0.024 0.649 0.074 0.152 0.227 0.268 0.459 0.348z" fill="#3d859f" data-fill-palette-color="secondary"></path><path d="M105.081 272.805l-0.468-0.127c-0.752-0.204-1.224-0.503-1.416-0.897-0.191-0.394-0.202-0.906-0.03-1.537v0l0.944-3.477-1.22-0.332 0.348-1.281 0.63 0.171c0.183 0.05 0.327 0.056 0.432 0.019 0.098-0.039 0.191-0.141 0.28-0.306v0l0.725-1.506 1.525 0.414-0.552 2.034 3.091 0.839-0.348 1.281-3.091-0.839-0.947 3.487c-0.068 0.251-0.056 0.433 0.038 0.546 0.102 0.108 0.271 0.194 0.508 0.258v0l2.095 0.568-0.154 1.171c-0.219-0.023-0.547-0.076-0.983-0.158-0.436-0.082-0.905-0.191-1.407-0.328z" fill="#3d859f" data-fill-palette-color="secondary"></path><path d="M110.805 274.162l-1.837-0.382 2.036-9.778 1.836 0.382-0.692 3.321c0.444 0.006 0.967 0.043 1.57 0.112 0.604 0.061 1.288 0.171 2.051 0.33v0l0.753 0.156c0.502 0.104 0.876 0.254 1.123 0.449 0.238 0.2 0.393 0.419 0.466 0.657 0.074 0.231 0.102 0.459 0.084 0.685-0.024 0.217-0.051 0.402-0.083 0.553v0l-1.005 4.827-1.836-0.382 1.011-4.858c0.083-0.399-0.116-0.648-0.597-0.749v0l-3.291-0.685c-0.193-0.04-0.32-0.049-0.382-0.025-0.062 0.023-0.109 0.11-0.141 0.261v0z" fill="#3d859f" data-fill-palette-color="secondary"></path><path d="M124.059 276.387l-3.071-0.4c-0.508-0.066-0.89-0.183-1.144-0.351-0.261-0.169-0.438-0.362-0.531-0.58-0.091-0.224-0.133-0.449-0.124-0.675 0.001-0.227 0.014-0.43 0.037-0.611v0l0.383-2.936c0.02-0.153 0.058-0.336 0.114-0.548 0.05-0.22 0.148-0.427 0.293-0.621 0.147-0.2 0.369-0.356 0.667-0.465 0.297-0.103 0.696-0.122 1.197-0.057v0l3.291 0.43c0.669 0.087 1.186 0.218 1.553 0.393 0.367 0.175 0.608 0.416 0.724 0.722 0.123 0.306 0.153 0.7 0.091 1.18v0l-0.295 2.257-2.674-0.349c-0.912-0.119-1.655-0.234-2.229-0.344-0.573-0.117-0.952-0.195-1.138-0.233v0l-0.111 0.846c-0.067 0.402 0.151 0.636 0.653 0.701v0l0.773 0.101c0.55 0.072 1.091 0.135 1.622 0.191 0.524 0.054 1.008 0.096 1.45 0.125 0.442 0.036 0.796 0.061 1.063 0.075v0l0.477 1.071c-0.041 0.313-1.064 0.339-3.071 0.078zM121.483 271.047l-0.128 0.982 4.2 0.547 0.128-0.982c0.026-0.202 0.021-0.348-0.017-0.438-0.038-0.09-0.167-0.156-0.389-0.199-0.22-0.05-0.598-0.11-1.134-0.18v0l-1.85-0.241c-0.488-0.064-0.758 0.107-0.81 0.511z" fill="#3d859f" data-fill-palette-color="secondary"></path><path d="M130.709 277.009l-1.871-0.119 0.437-6.887 1.262 0.08 0.559 0.342c0.275-0.123 0.57-0.217 0.884-0.282 0.314-0.065 0.706-0.082 1.175-0.052v0c0.75 0.048 1.355 0.171 1.813 0.369 0.452 0.191 0.753 0.333 0.902 0.426v0l-0.621 1.302c-0.122-0.071-0.32-0.165-0.594-0.281-0.274-0.116-0.598-0.225-0.972-0.325-0.373-0.108-0.788-0.177-1.243-0.206v0l-0.169-0.011c-0.491-0.031-0.816 0.047-0.975 0.234-0.16 0.187-0.261 0.504-0.303 0.952v0z" fill="#3d859f" data-fill-palette-color="secondary"></path><path d="M137.955 269.472v0c-0.386-0.009-0.662-0.092-0.827-0.251-0.172-0.158-0.254-0.417-0.246-0.774v0c0.008-0.372 0.098-0.63 0.269-0.774 0.172-0.144 0.454-0.211 0.848-0.203v0c0.386 0.009 0.665 0.088 0.838 0.24 0.172 0.151 0.254 0.413 0.246 0.785v0c-0.008 0.344-0.101 0.595-0.28 0.753-0.179 0.158-0.462 0.232-0.848 0.224zM138.719 277.361l-1.885-0.042 0.152-6.899 1.885 0.041z" fill="#3d859f" data-fill-palette-color="secondary"></path><path d="M142.797 277.267l-1.875 0.059-0.217-6.897 1.263-0.04 0.621 0.286c0.433-0.098 0.95-0.185 1.552-0.26 0.602-0.082 1.292-0.136 2.071-0.16v0l0.769-0.024c0.512-0.016 0.911 0.042 1.197 0.173 0.278 0.139 0.481 0.315 0.607 0.529 0.126 0.207 0.207 0.422 0.241 0.646 0.028 0.217 0.044 0.403 0.05 0.557v0l0.155 4.928-1.875 0.059-0.156-4.96c-0.013-0.407-0.265-0.603-0.756-0.587v0l-3.36 0.106c-0.197 0.006-0.322 0.028-0.377 0.064-0.055 0.037-0.08 0.133-0.075 0.287v0z" fill="#3d859f" data-fill-palette-color="secondary"></path><path d="M157.358 278.913l-0.764 0.083c-1.124 0.122-2.04 0.211-2.748 0.267-0.707 0.063-1.251 0.094-1.633 0.092-0.382-0.001-0.646-0.025-0.792-0.073-0.146-0.048-0.224-0.106-0.231-0.176v0l0.336-1.202c0.174 0.038 0.471 0.073 0.891 0.104 0.42 0.032 0.952 0.013 1.594-0.056v0l2.618-0.285c0.377-0.041 0.64-0.126 0.789-0.255 0.148-0.136 0.206-0.347 0.175-0.634v0l-0.099-0.911c-0.432 0.125-0.944 0.251-1.538 0.379-0.587 0.127-1.268 0.233-2.043 0.318v0l-0.765 0.083c-0.517 0.056-0.918 0.033-1.205-0.071-0.287-0.103-0.5-0.249-0.641-0.439-0.141-0.197-0.238-0.405-0.291-0.625-0.045-0.221-0.078-0.423-0.097-0.604v0l-0.32-2.944c-0.017-0.154-0.026-0.34-0.029-0.558 0.004-0.226 0.053-0.451 0.15-0.674 0.095-0.229 0.274-0.433 0.538-0.609 0.264-0.17 0.648-0.282 1.15-0.337v0l0.775-0.084c1.075-0.117 1.912-0.187 2.51-0.209 0.605-0.023 1.046-0.025 1.324-0.007v0l0.377-0.242 1.257-0.136 0.825 7.594c0.02 0.189 0.015 0.398-0.017 0.627-0.032 0.23-0.117 0.454-0.255 0.674-0.146 0.221-0.365 0.414-0.658 0.58-0.286 0.165-0.68 0.275-1.183 0.33zM153.581 275.264v0l3.32-0.361c0.237-0.026 0.375-0.062 0.413-0.108 0.038-0.039 0.045-0.174 0.019-0.405v0l-0.397-3.655c-0.351 0.017-0.794 0.04-1.328 0.07-0.533 0.037-1.1 0.088-1.7 0.153v0l-0.786 0.085c-0.489 0.053-0.711 0.282-0.667 0.687v0l0.327 3.006c0.037 0.406 0.303 0.582 0.799 0.528z" fill="#3d859f" data-fill-palette-color="secondary"></path><path d="M167.469 274.494l-4.289 0.794c-0.677 0.125-1.163 0.18-1.459 0.163-0.296-0.017-0.451-0.063-0.465-0.139v0l0.247-1.214c0.295-0.026 0.84-0.095 1.633-0.206 0.787-0.11 1.757-0.272 2.91-0.485v0l0.757-0.14c0.249-0.046 0.395-0.141 0.44-0.285 0.037-0.15 0.033-0.342-0.011-0.577v0c-0.043-0.235-0.116-0.414-0.217-0.538-0.102-0.124-0.266-0.165-0.494-0.123v0l-3.73 0.691c-0.704 0.13-1.24 0.09-1.608-0.12-0.361-0.212-0.59-0.584-0.689-1.116v0l-0.113-0.611c-0.026-0.138-0.039-0.307-0.04-0.507-0.008-0.199 0.029-0.405 0.11-0.62 0.089-0.216 0.256-0.412 0.502-0.586 0.253-0.175 0.622-0.308 1.105-0.398v0l4.186-0.775c0.601-0.111 1.035-0.156 1.304-0.134 0.268 0.022 0.41 0.071 0.423 0.147v0l0.054 1.158c-0.295 0.026-0.843 0.095-1.644 0.208-0.794 0.111-1.76 0.272-2.9 0.483v0l-0.756 0.14c-0.249 0.046-0.395 0.141-0.44 0.285-0.037 0.15-0.038 0.314-0.005 0.494v0c0.036 0.193 0.097 0.35 0.183 0.47 0.092 0.112 0.262 0.144 0.511 0.098v0l3.73-0.691c0.684-0.127 1.214-0.078 1.591 0.145 0.377 0.223 0.606 0.552 0.686 0.987v0l0.165 0.891c0.033 0.18 0.055 0.372 0.064 0.578 0.018 0.211-0.02 0.414-0.112 0.61-0.091 0.203-0.261 0.384-0.51 0.544-0.256 0.162-0.629 0.288-1.119 0.379z" fill="#3d859f" data-fill-palette-color="secondary"></path><path d="M184.521 269.973v0c-0.39 0.118-0.792 0.171-1.208 0.157-0.42-0.005-0.942-0.177-1.566-0.516v0l-1.389-0.734c-0.565-0.313-1.136-0.492-1.716-0.537-0.581-0.051-1.258 0.04-2.03 0.274v0l-0.454 0.138 0.997 3.287-1.946 0.59-2.272-7.491-0.512-1.144 6.534-1.982c0.625-0.19 1.145-0.255 1.558-0.197 0.405 0.053 0.737 0.191 0.995 0.414 0.25 0.218 0.447 0.47 0.593 0.756 0.141 0.295 0.252 0.577 0.334 0.846v0l0.085 0.282c0.065 0.215 0.108 0.466 0.13 0.753 0.019 0.28-0.013 0.573-0.098 0.878-0.091 0.306-0.263 0.597-0.517 0.872-0.256 0.269-0.632 0.493-1.128 0.673v0c0.15 0.035 0.344 0.094 0.582 0.175 0.238 0.082 0.49 0.174 0.756 0.278 0.259 0.105 0.5 0.197 0.722 0.276 0.218 0.088 0.386 0.147 0.505 0.177v0c0.411 0.096 0.766 0.142 1.066 0.139 0.3-0.003 0.538-0.028 0.715-0.073 0.186-0.042 0.292-0.066 0.319-0.075v0l0.068 1.278c-0.079 0.053-0.217 0.132-0.413 0.236-0.198 0.097-0.435 0.187-0.71 0.27zM177.96 266.744v0c0.376-0.114 0.707-0.222 0.992-0.322 0.29-0.11 0.55-0.207 0.781-0.292v0c0.421-0.186 0.686-0.399 0.797-0.639 0.116-0.248 0.128-0.523 0.036-0.825v0l-0.104-0.343c-0.096-0.316-0.26-0.556-0.494-0.72-0.233-0.164-0.565-0.181-0.995-0.051v0l-4.023 1.22 0.78 2.572c0.438-0.104 0.84-0.207 1.205-0.311 0.367-0.097 0.709-0.193 1.025-0.289z" fill="#3d859f" data-fill-palette-color="secondary"></path><path d="M191.818 266.994l-2.878 1.145c-0.476 0.19-0.867 0.273-1.171 0.25-0.31-0.02-0.559-0.103-0.744-0.248-0.189-0.152-0.335-0.328-0.438-0.529-0.109-0.198-0.198-0.383-0.265-0.552v0l-1.094-2.751c-0.057-0.144-0.113-0.322-0.168-0.534-0.064-0.217-0.079-0.445-0.045-0.685 0.03-0.246 0.149-0.49 0.355-0.731 0.209-0.234 0.549-0.445 1.018-0.632v0l3.084-1.227c0.627-0.249 1.143-0.387 1.549-0.412 0.406-0.025 0.734 0.067 0.983 0.277 0.257 0.208 0.474 0.537 0.654 0.988v0l0.841 2.114-2.506 0.997c-0.855 0.34-1.56 0.602-2.114 0.785-0.557 0.176-0.927 0.293-1.108 0.35v0l0.315 0.793c0.138 0.384 0.441 0.482 0.911 0.295v0l0.725-0.288c0.516-0.205 1.019-0.413 1.509-0.623 0.484-0.208 0.927-0.407 1.328-0.597 0.403-0.183 0.725-0.334 0.965-0.452v0l0.938 0.704c0.117 0.294-0.765 0.814-2.644 1.563zM186.968 263.582l0.366 0.921 3.936-1.566-0.366-0.92c-0.075-0.189-0.151-0.314-0.229-0.375-0.077-0.06-0.222-0.055-0.436 0.015-0.217 0.064-0.576 0.195-1.079 0.396v0l-1.732 0.689c-0.457 0.182-0.61 0.462-0.46 0.84z" fill="#3d859f" data-fill-palette-color="secondary"></path><path d="M197.97 264.214l-1.675 0.843-3.103-6.164 1.129-0.569 0.42-0.01c0.248-0.18 0.555-0.382 0.921-0.606 0.367-0.224 0.817-0.47 1.351-0.739v0l0.687-0.345c0.27-0.136 0.544-0.231 0.824-0.285 0.286-0.057 0.52-0.053 0.702 0.012v0c0.178-0.239 0.46-0.499 0.846-0.78 0.382-0.287 0.916-0.602 1.599-0.946v0l0.687-0.346c0.458-0.231 0.841-0.345 1.149-0.343 0.317 0.005 0.578 0.079 0.783 0.22 0.195 0.138 0.356 0.301 0.482 0.489 0.123 0.182 0.219 0.342 0.288 0.479v0l2.217 4.405-1.684 0.848-2.231-4.433c-0.183-0.364-0.494-0.435-0.934-0.214v0l-1.929 0.971c-0.144 0.073-0.237 0.139-0.278 0.199-0.038 0.066-0.023 0.165 0.044 0.296v0l2.354 4.678-1.675 0.843-2.231-4.433c-0.183-0.364-0.494-0.435-0.934-0.214v0l-1.901 0.957c-0.176 0.088-0.281 0.161-0.315 0.217-0.034 0.057-0.017 0.154 0.053 0.292v0z" fill="#3d859f" data-fill-palette-color="secondary"></path><path d="M211.378 256.968l-0.653 0.407c-0.661 0.413-1.235 0.555-1.72 0.428-0.491-0.124-0.904-0.454-1.239-0.991v0c-0.357-0.572-0.475-1.107-0.355-1.604 0.12-0.497 0.496-0.943 1.128-1.337v0l0.67-0.418c0.656-0.409 1.254-0.757 1.795-1.045 0.547-0.291 1.001-0.525 1.363-0.702v0l-0.541-0.867c-0.048-0.077-0.107-0.152-0.177-0.224-0.07-0.072-0.163-0.109-0.281-0.111-0.119 0.008-0.283 0.077-0.491 0.207v0l-0.653 0.407c-0.954 0.595-1.737 1.104-2.35 1.528-0.619 0.428-1.034 0.724-1.246 0.89v0l-0.762-0.903c-0.074-0.119 0.21-0.4 0.853-0.843 0.647-0.437 1.745-1.138 3.294-2.105v0l0.662-0.412c0.435-0.271 0.806-0.42 1.112-0.446 0.316-0.024 0.58 0.027 0.791 0.152 0.213 0.116 0.391 0.261 0.534 0.437 0.139 0.17 0.25 0.32 0.331 0.452v0l2.61 4.183-1.073 0.67-0.671 0.058c-0.332 0.29-0.738 0.622-1.217 0.995-0.475 0.379-1.047 0.777-1.714 1.194zM210.362 256.037v0l2.995-1.868c0.191-0.119 0.293-0.207 0.306-0.266 0.017-0.052-0.032-0.171-0.147-0.355v0l-0.63-1.01-3.388 2.113c-0.232 0.145-0.358 0.302-0.377 0.471-0.025 0.173 0.039 0.381 0.192 0.626v0c0.152 0.244 0.316 0.387 0.489 0.427 0.165 0.038 0.351-0.008 0.56-0.138z" fill="#3d859f" data-fill-palette-color="secondary"></path><path d="M219.201 251.783l-1.519 1.099-4.045-5.591 1.024-0.741 0.649-0.092c0.134-0.27 0.301-0.53 0.502-0.78 0.201-0.249 0.492-0.512 0.873-0.788v0c0.609-0.441 1.153-0.731 1.634-0.87 0.47-0.141 0.793-0.222 0.967-0.244v0l0.349 1.399c-0.139 0.023-0.352 0.077-0.637 0.161-0.285 0.085-0.604 0.207-0.957 0.368-0.357 0.154-0.72 0.365-1.09 0.632v0l-0.136 0.099c-0.398 0.288-0.6 0.555-0.604 0.801-0.004 0.246 0.12 0.555 0.372 0.927v0z" fill="#3d859f" data-fill-palette-color="secondary"></path><path d="M229.837 243.561v0c-0.33 0.273-0.645 0.466-0.944 0.578-0.305 0.116-0.695 0.152-1.17 0.107v0c-0.04-0.004-0.153-0.014-0.341-0.032-0.188-0.018-0.398-0.04-0.63-0.066-0.227-0.021-0.435-0.041-0.623-0.059-0.188-0.018-0.309-0.031-0.363-0.041v0c-0.366-0.034-0.683-0.032-0.951 0.008-0.268 0.04-0.532 0.167-0.791 0.382v0c-0.173 0.143-0.265 0.242-0.275 0.296-0.006 0.059 0.068 0.181 0.22 0.365v0l1.533 1.85-1.444 1.196-6.225-7.512 1.444-1.196 3.543 4.275 0.381-0.316c0.141-0.117 0.221-0.279 0.24-0.486v0c0.012-0.129 0.028-0.379 0.048-0.752 0.021-0.382 0.044-0.812 0.068-1.288 0.029-0.471 0.05-0.908 0.063-1.311v0l1.744-1.445 0.123 0.528c-0.027 0.342-0.059 0.705-0.095 1.091-0.046 0.385-0.088 0.757-0.127 1.118-0.039 0.361-0.081 0.683-0.128 0.968-0.047 0.285-0.093 0.488-0.139 0.608v0c0.341-0.073 0.673-0.107 0.997-0.101 0.324 0.005 0.679 0.016 1.067 0.032 0.392 0.022 0.848 0.032 1.366 0.031v0c0.455-0.012 0.817-0.098 1.087-0.257 0.269-0.159 0.428-0.259 0.477-0.3v0l0.467 1.009c-0.058 0.084-0.141 0.199-0.25 0.343-0.113 0.139-0.237 0.265-0.372 0.377z" fill="#3d859f" data-fill-palette-color="secondary"></path><path d="M233.493 239.931l-0.556 0.531c-0.563 0.539-1.095 0.796-1.596 0.77-0.506-0.021-0.978-0.26-1.415-0.716v0c-0.466-0.487-0.691-0.986-0.676-1.498 0.016-0.511 0.293-1.024 0.831-1.539v0l0.571-0.547c0.558-0.534 1.073-0.997 1.543-1.389 0.476-0.397 0.873-0.719 1.191-0.965v0l-0.706-0.739c-0.063-0.066-0.136-0.127-0.22-0.183-0.083-0.056-0.182-0.074-0.297-0.051-0.115 0.032-0.261 0.133-0.439 0.303v0l-0.555 0.532c-0.812 0.777-1.475 1.436-1.988 1.976-0.519 0.545-0.865 0.92-1.038 1.125v0l-0.931-0.729c-0.097-0.101 0.124-0.434 0.663-0.999 0.544-0.559 1.475-1.471 2.794-2.733v0l0.564-0.539c0.37-0.355 0.703-0.576 0.998-0.664 0.305-0.088 0.573-0.092 0.805-0.012 0.232 0.07 0.436 0.176 0.611 0.319 0.171 0.138 0.31 0.263 0.417 0.374v0l3.41 3.562-0.914 0.875-0.645 0.194c-0.266 0.352-0.595 0.759-0.988 1.223-0.388 0.468-0.866 0.975-1.434 1.519zM232.309 239.227v0l2.549-2.441c0.162-0.155 0.244-0.263 0.246-0.323 0.006-0.055-0.066-0.16-0.217-0.317v0l-0.823-0.86-2.885 2.761c-0.198 0.189-0.289 0.369-0.272 0.538 0.011 0.174 0.116 0.365 0.315 0.573v0c0.199 0.208 0.388 0.314 0.567 0.318 0.169 0.004 0.342-0.079 0.52-0.249z" fill="#3d859f" data-fill-palette-color="secondary"></path><path d="M239.685 233.682l-0.845 0.94-7.263-6.529 1.253-1.395 2.265 2.036c0.259-0.362 0.578-0.779 0.955-1.253 0.373-0.467 0.818-0.989 1.335-1.563v0l0.521-0.579c0.343-0.381 0.658-0.632 0.945-0.752 0.282-0.115 0.539-0.148 0.77-0.101 0.231 0.047 0.443 0.138 0.634 0.272 0.181 0.135 0.34 0.263 0.475 0.385v0l2.202 1.98c0.115 0.103 0.246 0.236 0.394 0.396 0.148 0.171 0.261 0.372 0.338 0.602 0.082 0.234 0.086 0.503 0.013 0.805-0.083 0.303-0.296 0.645-0.639 1.026v0l-0.521 0.58c-0.573 0.637-1.089 1.175-1.548 1.612-0.459 0.447-0.847 0.811-1.166 1.091v0zM239.424 231.987v0l2.239-2.491c0.329-0.366 0.342-0.685 0.039-0.957v0l-2.249-2.022c-0.162-0.155-0.311-0.227-0.444-0.215-0.138 0.017-0.306 0.136-0.503 0.355v0l-0.515 0.572c-0.441 0.491-0.823 0.932-1.145 1.322-0.322 0.4-0.592 0.743-0.811 1.028v0l2.719 2.444c0.162 0.146 0.278 0.216 0.347 0.213 0.065 0.002 0.172-0.081 0.323-0.249z" fill="#3d859f" data-fill-palette-color="secondary"></path><path d="M246.844 225.385l-1.186 1.466-6.634-5.368-1.051-0.661 1.279-1.581z" fill="#3d859f" data-fill-palette-color="secondary"></path><path d="M250.98 219.734l-1.82 2.507c-0.301 0.415-0.586 0.694-0.856 0.837-0.273 0.149-0.527 0.212-0.762 0.189-0.241-0.027-0.458-0.098-0.652-0.213-0.198-0.109-0.371-0.218-0.519-0.325v0l-2.396-1.74c-0.125-0.091-0.267-0.212-0.427-0.362-0.17-0.149-0.304-0.334-0.405-0.554-0.106-0.225-0.136-0.494-0.091-0.808 0.051-0.31 0.226-0.669 0.523-1.079v0l1.95-2.686c0.396-0.546 0.759-0.938 1.088-1.176 0.329-0.238 0.656-0.335 0.98-0.291 0.328 0.038 0.688 0.2 1.08 0.485v0l1.842 1.337-1.585 2.183c-0.541 0.745-0.996 1.342-1.367 1.793-0.377 0.447-0.626 0.743-0.749 0.889v0l0.69 0.501c0.321 0.251 0.631 0.171 0.928-0.238v0l0.458-0.631c0.326-0.449 0.64-0.894 0.943-1.334 0.298-0.435 0.566-0.839 0.803-1.213 0.243-0.37 0.434-0.67 0.574-0.898v0l1.169 0.093c0.256 0.186-0.211 1.097-1.399 2.734zM245.057 219.444l0.802 0.582 2.488-3.427-0.801-0.582c-0.165-0.12-0.296-0.184-0.393-0.194-0.097-0.01-0.217 0.072-0.361 0.246-0.149 0.17-0.383 0.473-0.7 0.911v0l-1.096 1.509c-0.289 0.398-0.268 0.716 0.061 0.955z" fill="#3d859f" data-fill-palette-color="secondary"></path></g></svg></g></svg></g></svg></g></svg></g><defs></defs></svg><rect width="279.72" height="279.72" fill="none" stroke="none" visibility="hidden"></rect></g></svg></g></svg>