<svg xmlns="http://www.w3.org/2000/svg" version="1.1" xmlns:xlink="http://www.w3.org/1999/xlink" xmlnsSvgjs="http://svgjs.dev/svgjs" width="1500" height="564" viewBox="0 0 1500 564"><g transform="matrix(1,0,0,1,-0.9090909090911055,0.1656299993456969)"><svg viewBox="0 0 396 149" data-background-color="#1d366f" preserveAspectRatio="xMidYMid meet" height="564" width="1500" xmlns="http://www.w3.org/2000/svg" xmlns:xlink="http://www.w3.org/1999/xlink"><g id="tight-bounds" transform="matrix(1,0,0,1,0.24000000000003752,-0.043756861529274715)"><svg viewBox="0 0 395.5199999999999 149.08751372305855" height="149.08751372305855" width="395.5199999999999"><g><svg viewBox="0 0 600.127242156092 226.21227359053313" height="149.08751372305855" width="395.5199999999999"><g><rect width="5.614255409092701" height="226.21227359053313" x="230.54590928228572" y="0" fill="#ffffff" opacity="1" stroke-width="0" stroke="transparent" fill-opacity="1" class="rect-qz-0" data-fill-palette-color="primary" rx="1%" id="qz-0" data-palette-color="#ffffff"></rect></g><g transform="matrix(1,0,0,1,250.85716838010276,0.5627170984839012)"><svg viewBox="0 0 349.27007377598926 225.08683939356533" height="225.08683939356533" width="349.27007377598926"><g id="textblocktransform"><svg viewBox="0 0 349.27007377598926 225.08683939356533" height="225.08683939356533" width="349.27007377598926" id="textblock"><g><svg viewBox="0 0 349.27007377598926 198.764" height="198.764" width="349.27007377598926"><g transform="matrix(1,0,0,1,0,0)"><svg width="349.27007377598926" viewBox="0.8000000000000038 -35.50000000000001 263.40000000000003 146.10000000000002" height="198.764" data-palette-color="#ffffff"><svg></svg><svg></svg><svg></svg><g class="wordmark-text-0" data-fill-palette-color="primary" id="text-0"><path d="M12.45 0.6v0c-2.333 0-4.567-0.667-6.7-2v0c-1.067-0.667-1.94-1.6-2.62-2.8-0.687-1.2-1.03-2.583-1.03-4.15v0c0-2.967 0.983-5.383 2.95-7.25 1.967-1.867 4.333-2.95 7.1-3.25v0c-1.867-0.5-3.357-1.367-4.47-2.6-1.12-1.233-1.68-2.8-1.68-4.7v0c0-2.867 1.127-5.143 3.38-6.83 2.247-1.68 4.82-2.52 7.72-2.52 2.9 0 5.317 0.617 7.25 1.85 1.933 1.233 2.9 2.9 2.9 5v0c0 0.733-0.123 1.45-0.37 2.15-0.253 0.7-0.513 1.2-0.78 1.5v0l-0.35 0.5c-1.067 0-2.24-0.183-3.52-0.55-1.287-0.367-2.23-0.833-2.83-1.4v0l0.6-5.15c-0.5-0.5-1.34-0.75-2.52-0.75-1.187 0-2.12 0.607-2.8 1.82-0.687 1.22-1.03 2.613-1.03 4.18 0 1.567 0.183 2.75 0.55 3.55 0.367 0.8 0.883 1.417 1.55 1.85v0c1.033 0.667 2.25 1.133 3.65 1.4v0l-0.4 2.75c-2.4 0-4.483 0.707-6.25 2.12-1.767 1.42-2.65 3.297-2.65 5.63v0c0 1.467 0.477 2.673 1.43 3.62 0.947 0.953 2.17 1.43 3.67 1.43v0c2.733 0 5.533-1.383 8.4-4.15v0l2 1.85c-3.867 4.6-8.25 6.9-13.15 6.9zM32.13-22.15c1.447 0 2.53 0.3 3.25 0.9 0.713 0.6 1.07 1.833 1.07 3.7v0c0 1-0.3 3.04-0.9 6.12-0.6 3.087-0.9 4.963-0.9 5.63v0c0 1.333 0.267 2 0.8 2v0c1.267 0 2.66-0.943 4.18-2.83 1.513-1.88 2.303-3.453 2.37-4.72v0l-3.4-3.8c0.133-1.433 0.483-2.733 1.05-3.9 0.567-1.167 1.1-1.983 1.6-2.45v0l0.7-0.65c1.433 0 2.517 0.383 3.25 1.15 0.733 0.767 1.1 1.667 1.1 2.7v0c0 2.633-0.65 5.417-1.95 8.35-1.3 2.933-3.033 5.423-5.2 7.47-2.167 2.053-4.367 3.08-6.6 3.08v0c-1.4 0-2.477-0.433-3.23-1.3-0.747-0.867-1.12-2.01-1.12-3.43 0-1.413 0.107-3.32 0.32-5.72 0.22-2.4 0.33-4.783 0.33-7.15v0c0-0.533-0.193-1.167-0.58-1.9-0.38-0.733-0.77-1.317-1.17-1.75v0l0.15-0.6c1.8-0.6 3.427-0.9 4.88-0.9zM46.75-8.65v0c0-4.167 1.26-7.46 3.78-9.88 2.513-2.413 5.37-3.62 8.57-3.62v0c1.967 0 3.583 0.483 4.85 1.45 1.267 0.967 1.9 2.26 1.9 3.88 0 1.613-0.407 2.97-1.22 4.07-0.82 1.1-1.813 1.95-2.98 2.55v0c-2.367 1.167-4.533 1.9-6.5 2.2v0l-1.2 0.15c0.233 3.133 1.517 4.7 3.85 4.7v0c0.8 0 1.65-0.2 2.55-0.6 0.9-0.4 1.6-0.8 2.1-1.2v0l0.75-0.6 1.2 1.6c-0.267 0.367-0.8 0.85-1.6 1.45-0.8 0.6-1.55 1.1-2.25 1.5v0c-1.933 1.067-4.05 1.6-6.35 1.6-2.3 0-4.117-0.817-5.45-2.45-1.333-1.633-2-3.9-2-6.8zM53.9-10.3c1.7-0.3 3.05-1.017 4.05-2.15 1-1.133 1.5-2.6 1.5-4.4 0-1.8-0.533-2.7-1.6-2.7v0c-1.267 0-2.24 1.077-2.92 3.23-0.687 2.147-1.03 4.153-1.03 6.02zM68.25 0.15v0h-0.95c0-1.567 0.477-4.567 1.43-9 0.947-4.433 1.42-6.95 1.42-7.55v0c0-1.1-0.467-2.267-1.4-3.5v0l-0.45-0.6 0.05-0.65c1.8-0.5 4.683-0.75 8.65-0.75v0c0.433 0.567 0.667 1.6 0.7 3.1v0c2.9-2.233 5.35-3.35 7.35-3.35v0c1.2 0 2.16 0.417 2.88 1.25 0.713 0.833 1.07 1.873 1.07 3.12 0 1.253-0.383 3.413-1.15 6.48-0.767 3.067-1.15 5.123-1.15 6.17 0 1.053 0.133 1.58 0.4 1.58v0c0.2 0 0.9-0.317 2.1-0.95v0l0.6-0.3 0.9 1.75c-0.3 0.267-0.7 0.6-1.2 1-0.5 0.4-1.423 0.94-2.77 1.62-1.353 0.687-2.563 1.03-3.63 1.03v0c-2.433 0-3.65-1.383-3.65-4.15v0c0-1.167 0.377-3.317 1.13-6.45 0.747-3.133 1.12-5.15 1.12-6.05 0-0.9-0.283-1.35-0.85-1.35v0c-0.967 0-2.15 0.417-3.55 1.25v0c-0.1 0.567-0.433 2.067-1 4.5v0c-1.167 5.233-1.75 8.933-1.75 11.1v0c-1.167 0.467-3.267 0.7-6.3 0.7zM103.1-21.55h4.85c-0.067 0.833-0.35 1.8-0.85 2.9v0c-1.267-0.133-2.467-0.2-3.6-0.2v0h-0.9c-1.533 7.433-2.3 12.067-2.3 13.9v0c0 0.967 0.21 1.45 0.63 1.45 0.413 0 1.52-0.417 3.32-1.25v0l0.9 1.65c-2.967 2.467-5.717 3.7-8.25 3.7v0c-1.167 0-2.123-0.367-2.87-1.1-0.753-0.733-1.13-1.71-1.13-2.93 0-1.213 0.143-2.587 0.43-4.12 0.28-1.533 0.67-3.41 1.17-5.63 0.5-2.213 0.867-4.003 1.1-5.37v0c-1.233 0.1-2.15 0.2-2.75 0.3v0c-0.067-0.4-0.1-0.943-0.1-1.63 0-0.68 0.05-1.237 0.15-1.67v0h3.15c0.267-1.8 0.4-3.5 0.4-5.1v0l-0.05-1.55v-0.15c2.6-0.9 5.05-1.35 7.35-1.35v0c0.133 0.667 0.2 1.5 0.2 2.5 0 1-0.283 2.883-0.85 5.65z" fill="#ffffff" fill-rule="nonzero" stroke="none" stroke-width="1" stroke-linecap="butt" stroke-linejoin="miter" stroke-miterlimit="10" stroke-dasharray="" stroke-dashoffset="0" font-family="none" font-weight="none" font-size="none" text-anchor="none" style="mix-blend-mode: normal" data-fill-palette-color="primary" opacity="1"></path><path transform="translate(0,49.7)" d="M39.53 0.6c-1.253 0-2.263-0.443-3.03-1.33-0.767-0.88-1.15-2.08-1.15-3.6 0-1.513 0.693-5.287 2.08-11.32 1.38-6.033 2.07-9.883 2.07-11.55 0-1.667-0.65-2.5-1.95-2.5v0c-1.8 0-3.783 0.8-5.95 2.4v0c-0.233 1.8-0.917 4.94-2.05 9.42-1.133 4.487-1.89 7.803-2.27 9.95-0.387 2.153-0.58 3.813-0.58 4.98 0 1.167 0.017 1.883 0.05 2.15v0c-1.3 0.667-3.617 1-6.95 1v0h-0.95c0-2.8 0.783-7.567 2.35-14.3v0c1.6-6.867 2.4-11.183 2.4-12.95 0-1.767-0.617-2.65-1.85-2.65v0c-1.8 0-3.9 0.867-6.3 2.6v0c-0.367 1.833-1.05 4.817-2.05 8.95v0c-2.233 9.467-3.35 15.25-3.35 17.35v0c-1.3 0.667-3.6 1-6.9 1v0h-0.95c0.133-1.5 1.017-5.91 2.65-13.23 1.633-7.313 2.65-12.787 3.05-16.42v0c0-0.533-0.173-1.177-0.52-1.93-0.353-0.747-0.713-1.353-1.08-1.82v0l-0.5-0.7 0.15-0.75c1.867-0.567 5.083-0.85 9.65-0.85v0c0.433 0.8 0.65 1.817 0.65 3.05v0c0 0.267-0.067 0.967-0.2 2.1v0c3.833-3.433 7.267-5.15 10.3-5.15v0c1.367 0 2.517 0.467 3.45 1.4 0.933 0.933 1.533 2.15 1.8 3.65v0c3.967-3.367 7.333-5.05 10.1-5.05v0c1.733 0 3.133 0.567 4.2 1.7 1.067 1.133 1.6 2.717 1.6 4.75 0 2.033-0.707 5.907-2.12 11.62-1.42 5.72-2.13 9.713-2.13 11.98v0c0 0.967 0.167 1.45 0.5 1.45v0c0.3 0 1.117-0.333 2.45-1v0l0.7-0.3 1 1.85c-1.433 1.233-2.873 2.217-4.32 2.95-1.453 0.733-2.803 1.1-4.05 1.1zM11.35-19.25l0.05-0.25c-0.033 0.067-0.05 0.15-0.05 0.25zM64.9-20.7v0c0.067-0.067 0.25-0.5 0.55-1.3v0c1.567 0 3.667 0.467 6.3 1.4v0c-0.833 2.767-1.5 5.657-2 8.67-0.5 3.02-0.75 5.17-0.75 6.45 0 1.287 0.133 1.93 0.4 1.93v0c0.2 0 0.933-0.317 2.2-0.95v0l0.6-0.3 0.9 1.75c-0.3 0.267-0.693 0.6-1.18 1-0.48 0.4-1.387 0.94-2.72 1.62-1.333 0.687-2.533 1.03-3.6 1.03v0c-2.067 0-3.267-0.933-3.6-2.8v0c-2.133 1.867-4.057 2.8-5.77 2.8-1.72 0-3.17-0.667-4.35-2-1.187-1.333-1.78-3.433-1.78-6.3v0c0-4.467 0.917-7.993 2.75-10.58 1.833-2.58 4.05-3.87 6.65-3.87v0c1.867 0 3.667 0.483 5.4 1.45zM59.2-3.65v0c0.8 0 1.7-0.317 2.7-0.95v0c0.233-4.7 1.017-9.35 2.35-13.95v0c-1-0.433-1.85-0.65-2.55-0.65v0c-1.2 0-2.223 1.173-3.07 3.52-0.853 2.353-1.28 4.947-1.28 7.78 0 2.833 0.617 4.25 1.85 4.25zM75.35 0.15v0h-0.95c0-1.567 0.477-4.567 1.43-9 0.947-4.433 1.42-6.95 1.42-7.55v0c0-1.1-0.467-2.267-1.4-3.5v0l-0.45-0.6 0.05-0.65c1.8-0.5 4.683-0.75 8.65-0.75v0c0.433 0.567 0.667 1.6 0.7 3.1v0c2.9-2.233 5.35-3.35 7.35-3.35v0c1.2 0 2.16 0.417 2.88 1.25 0.713 0.833 1.07 1.873 1.07 3.12 0 1.253-0.383 3.413-1.15 6.48-0.767 3.067-1.15 5.123-1.15 6.17 0 1.053 0.133 1.58 0.4 1.58v0c0.2 0 0.9-0.317 2.1-0.95v0l0.6-0.3 0.9 1.75c-0.3 0.267-0.7 0.6-1.2 1-0.5 0.4-1.423 0.94-2.77 1.62-1.353 0.687-2.563 1.03-3.63 1.03v0c-2.433 0-3.65-1.383-3.65-4.15v0c0-1.167 0.373-3.317 1.12-6.45 0.753-3.133 1.13-5.15 1.13-6.05 0-0.9-0.283-1.35-0.85-1.35v0c-0.967 0-2.15 0.417-3.55 1.25v0c-0.1 0.567-0.433 2.067-1 4.5v0c-1.167 5.233-1.75 8.933-1.75 11.1v0c-1.167 0.467-3.267 0.7-6.3 0.7zM114.3-20.7v0c0.067-0.067 0.25-0.5 0.55-1.3v0c1.567 0 3.667 0.467 6.3 1.4v0c-0.833 2.767-1.5 5.657-2 8.67-0.5 3.02-0.75 5.17-0.75 6.45 0 1.287 0.133 1.93 0.4 1.93v0c0.2 0 0.933-0.317 2.2-0.95v0l0.6-0.3 0.9 1.75c-0.3 0.267-0.69 0.6-1.17 1-0.487 0.4-1.397 0.94-2.73 1.62-1.333 0.687-2.533 1.03-3.6 1.03v0c-2.067 0-3.267-0.933-3.6-2.8v0c-2.133 1.867-4.057 2.8-5.77 2.8-1.72 0-3.17-0.667-4.35-2-1.187-1.333-1.78-3.433-1.78-6.3v0c0-4.467 0.917-7.993 2.75-10.58 1.833-2.58 4.05-3.87 6.65-3.87v0c1.867 0 3.667 0.483 5.4 1.45zM108.6-3.65v0c0.8 0 1.7-0.317 2.7-0.95v0c0.233-4.7 1.017-9.35 2.35-13.95v0c-1-0.433-1.85-0.65-2.55-0.65v0c-1.2 0-2.223 1.173-3.07 3.52-0.853 2.353-1.28 4.947-1.28 7.78 0 2.833 0.617 4.25 1.85 4.25zM129.72 5.4c-1.113 0.667-1.67 1.317-1.67 1.95 0 0.633 0.36 0.95 1.08 0.95 0.713 0 1.52-0.34 2.42-1.02 0.9-0.687 1.65-1.797 2.25-3.33v0c-1.6 0.3-2.96 0.783-4.08 1.45zM143.5-21.85l1.05 0.05c0.133 0.133 0.2 0.423 0.2 0.87 0 0.453-0.033 0.937-0.1 1.45-0.067 0.52-0.183 1.68-0.35 3.48-0.167 1.8-0.333 3.367-0.5 4.7v0c-1.7 15-6.267 22.5-13.7 22.5v0c-1.2 0-2.29-0.317-3.27-0.95-0.987-0.633-1.48-1.45-1.48-2.45v0c0-1.333 0.817-2.55 2.45-3.65 1.633-1.1 3.833-1.95 6.6-2.55v0c0-0.033 0.1-0.5 0.3-1.4 0.2-0.9 0.333-1.633 0.4-2.2v0c-2 1.467-3.877 2.2-5.63 2.2-1.747 0-3.177-0.683-4.29-2.05-1.12-1.367-1.68-3.55-1.68-6.55v0c0-3.933 0.883-7.21 2.65-9.83 1.767-2.613 4.1-3.92 7-3.92v0c1.633 0 3.25 0.4 4.85 1.2v0c1.7-0.6 3.533-0.9 5.5-0.9zM135.4-19.2v0c-1.433 0-2.567 1.157-3.4 3.47-0.833 2.32-1.25 4.887-1.25 7.7 0 2.82 0.633 4.23 1.9 4.23v0c0.833 0 1.817-0.317 2.95-0.95v0c0.933-5.6 1.6-10.217 2-13.85v0c-0.933-0.4-1.667-0.6-2.2-0.6zM146.35-8.65v0c0-4.167 1.26-7.46 3.78-9.88 2.513-2.413 5.37-3.62 8.57-3.62v0c1.967 0 3.583 0.483 4.85 1.45 1.267 0.967 1.9 2.26 1.9 3.88 0 1.613-0.407 2.97-1.22 4.07-0.82 1.1-1.813 1.95-2.98 2.55v0c-2.367 1.167-4.533 1.9-6.5 2.2v0l-1.2 0.15c0.233 3.133 1.517 4.7 3.85 4.7v0c0.8 0 1.65-0.2 2.55-0.6 0.9-0.4 1.6-0.8 2.1-1.2v0l0.75-0.6 1.2 1.6c-0.267 0.367-0.8 0.85-1.6 1.45-0.8 0.6-1.55 1.1-2.25 1.5v0c-1.933 1.067-4.05 1.6-6.35 1.6-2.3 0-4.117-0.817-5.45-2.45-1.333-1.633-2-3.9-2-6.8zM153.5-10.3c1.7-0.3 3.05-1.017 4.05-2.15 1-1.133 1.5-2.6 1.5-4.4 0-1.8-0.533-2.7-1.6-2.7v0c-1.267 0-2.24 1.077-2.92 3.23-0.687 2.147-1.03 4.153-1.03 6.02zM167.85 0.15v0h-0.95c0-1.567 0.473-4.567 1.42-9 0.953-4.433 1.43-6.95 1.43-7.55v0c0-1.1-0.467-2.267-1.4-3.5v0l-0.45-0.6 0.05-0.65c1.8-0.5 4.683-0.75 8.65-0.75v0c0.467 0.633 0.7 1.667 0.7 3.1v0c3-2.233 5.383-3.35 7.15-3.35v0c2.233 0 3.55 1.15 3.95 3.45v0c0.9-0.733 2.077-1.493 3.53-2.28 1.447-0.78 2.743-1.17 3.89-1.17 1.153 0 2.113 0.373 2.88 1.12 0.767 0.753 1.15 1.797 1.15 3.13 0 1.333-0.367 3.533-1.1 6.6-0.733 3.067-1.1 5.123-1.1 6.17 0 1.053 0.15 1.58 0.45 1.58v0c0.2 0 0.883-0.317 2.05-0.95v0l0.55-0.3 0.9 1.75c-0.867 0.867-2.043 1.69-3.53 2.47-1.48 0.787-2.787 1.18-3.92 1.18v0c-2.5 0-3.75-1.417-3.75-4.25v0c0-1.033 0.357-3.11 1.07-6.23 0.72-3.113 1.08-5.147 1.08-6.1 0-0.947-0.283-1.42-0.85-1.42v0c-0.967 0-2.067 0.367-3.3 1.1v0c-0.067 0.667-0.523 2.933-1.37 6.8-0.853 3.867-1.28 6.867-1.28 9v0c-0.967 0.433-3.233 0.65-6.8 0.65v0c-0.067-0.367-0.1-1.25-0.1-2.65 0-1.4 0.393-3.783 1.18-7.15 0.78-3.367 1.17-5.5 1.17-6.4 0-0.9-0.317-1.35-0.95-1.35v0c-1 0-2.1 0.4-3.3 1.2v0c-0.067 0.3-0.4 1.767-1 4.4v0c-1.2 5.267-1.8 9.017-1.8 11.25v0c-1.167 0.467-3.267 0.7-6.3 0.7zM203-8.65v0c0-4.167 1.257-7.46 3.77-9.88 2.52-2.413 5.38-3.62 8.58-3.62v0c1.967 0 3.583 0.483 4.85 1.45 1.267 0.967 1.9 2.26 1.9 3.88 0 1.613-0.407 2.97-1.22 4.07-0.82 1.1-1.813 1.95-2.98 2.55v0c-2.367 1.167-4.533 1.9-6.5 2.2v0l-1.2 0.15c0.233 3.133 1.517 4.7 3.85 4.7v0c0.8 0 1.65-0.2 2.55-0.6 0.9-0.4 1.6-0.8 2.1-1.2v0l0.75-0.6 1.2 1.6c-0.267 0.367-0.8 0.85-1.6 1.45-0.8 0.6-1.55 1.1-2.25 1.5v0c-1.933 1.067-4.05 1.6-6.35 1.6-2.3 0-4.117-0.817-5.45-2.45-1.333-1.633-2-3.9-2-6.8zM210.15-10.3c1.7-0.3 3.05-1.017 4.05-2.15 1-1.133 1.5-2.6 1.5-4.4 0-1.8-0.533-2.7-1.6-2.7v0c-1.267 0-2.243 1.077-2.93 3.23-0.68 2.147-1.02 4.153-1.02 6.02zM224.5 0.15v0h-0.95c0-1.567 0.473-4.567 1.42-9 0.953-4.433 1.43-6.95 1.43-7.55v0c0-1.1-0.467-2.267-1.4-3.5v0l-0.45-0.6 0.05-0.65c1.8-0.5 4.683-0.75 8.65-0.75v0c0.433 0.567 0.667 1.6 0.7 3.1v0c2.9-2.233 5.35-3.35 7.35-3.35v0c1.2 0 2.157 0.417 2.87 1.25 0.72 0.833 1.08 1.873 1.08 3.12 0 1.253-0.383 3.413-1.15 6.48-0.767 3.067-1.15 5.123-1.15 6.17 0 1.053 0.133 1.58 0.4 1.58v0c0.2 0 0.9-0.317 2.1-0.95v0l0.6-0.3 0.9 1.75c-0.3 0.267-0.7 0.6-1.2 1-0.5 0.4-1.427 0.94-2.78 1.62-1.347 0.687-2.553 1.03-3.62 1.03v0c-2.433 0-3.65-1.383-3.65-4.15v0c0-1.167 0.373-3.317 1.12-6.45 0.753-3.133 1.13-5.15 1.13-6.05 0-0.9-0.283-1.35-0.85-1.35v0c-0.967 0-2.15 0.417-3.55 1.25v0c-0.1 0.567-0.433 2.067-1 4.5v0c-1.167 5.233-1.75 8.933-1.75 11.1v0c-1.167 0.467-3.267 0.7-6.3 0.7zM259.35-21.55h4.85c-0.067 0.833-0.35 1.8-0.85 2.9v0c-1.267-0.133-2.467-0.2-3.6-0.2v0h-0.9c-1.533 7.433-2.3 12.067-2.3 13.9v0c0 0.967 0.207 1.45 0.62 1.45 0.42 0 1.53-0.417 3.33-1.25v0l0.9 1.65c-2.967 2.467-5.717 3.7-8.25 3.7v0c-1.167 0-2.127-0.367-2.88-1.1-0.747-0.733-1.12-1.71-1.12-2.93 0-1.213 0.14-2.587 0.42-4.12 0.287-1.533 0.68-3.41 1.18-5.63 0.5-2.213 0.867-4.003 1.1-5.37v0c-1.233 0.1-2.15 0.2-2.75 0.3v0c-0.067-0.4-0.1-0.943-0.1-1.63 0-0.68 0.05-1.237 0.15-1.67v0h3.15c0.267-1.8 0.4-3.5 0.4-5.1v0l-0.05-1.55v-0.15c2.6-0.9 5.05-1.35 7.35-1.35v0c0.133 0.667 0.2 1.5 0.2 2.5 0 1-0.283 2.883-0.85 5.65z" fill="#ffffff" fill-rule="nonzero" stroke="none" stroke-width="1" stroke-linecap="butt" stroke-linejoin="miter" stroke-miterlimit="10" stroke-dasharray="" stroke-dashoffset="0" font-family="none" font-weight="none" font-size="none" text-anchor="none" style="mix-blend-mode: normal" data-fill-palette-color="primary" opacity="1"></path><path transform="translate(0,99.4)" d="M21.6-9.8v0c0 3.2-1.217 5.733-3.65 7.6-2.433 1.867-5.383 2.8-8.85 2.8v0c-2.333 0-4.257-0.593-5.77-1.78-1.52-1.18-2.363-2.187-2.53-3.02v0c0.367-1.1 1.15-2.333 2.35-3.7 1.2-1.367 2.283-2.2 3.25-2.5v0c1.7 1.1 3.283 3.55 4.75 7.35v0c2.167-0.067 3.25-1.25 3.25-3.55v0c0-1.267-0.507-2.827-1.52-4.68-1.02-1.847-2.13-3.58-3.33-5.2-1.2-1.613-2.307-3.43-3.32-5.45-1.02-2.013-1.53-3.803-1.53-5.37v0c0-2.533 1.027-4.533 3.08-6 2.047-1.467 4.353-2.2 6.92-2.2 2.567 0 4.56 0.55 5.98 1.65 1.413 1.1 2.12 2.35 2.12 3.75 0 1.4-0.533 2.833-1.6 4.3-1.067 1.467-2.133 2.633-3.2 3.5v0l-1.6 1.3c0.4 0.533 0.883 1.217 1.45 2.05 0.567 0.833 1.333 2.25 2.3 4.25 0.967 2 1.45 3.633 1.45 4.9zM17.78-26.2c0.447-0.433 0.853-0.96 1.22-1.58 0.367-0.613 0.55-1.263 0.55-1.95 0-0.68-0.4-1.253-1.2-1.72-0.8-0.467-1.757-0.7-2.87-0.7-1.12 0-2.053 0.257-2.8 0.77-0.753 0.52-1.13 1.137-1.13 1.85 0 0.72 0.243 1.553 0.73 2.5 0.48 0.953 0.953 1.747 1.42 2.38v0l0.75 0.95c0.333-0.167 0.86-0.517 1.58-1.05 0.713-0.533 1.297-1.017 1.75-1.45zM31.48 5.4c-1.12 0.667-1.68 1.317-1.68 1.95 0 0.633 0.36 0.95 1.08 0.95 0.713 0 1.52-0.34 2.42-1.02 0.9-0.687 1.65-1.797 2.25-3.33v0c-1.6 0.3-2.957 0.783-4.07 1.45zM29.05 0.2v0c-2.8 0-4.2-1.533-4.2-4.6v0c0-0.733 0.333-2.85 1-6.35 0.667-3.5 1-6.417 1-8.75v0c0-0.5-0.067-0.967-0.2-1.4v0c1.8-0.7 4.267-1.05 7.4-1.05v0c0.167 0.467 0.25 1.267 0.25 2.4 0 1.133-0.367 3.483-1.1 7.05-0.733 3.567-1.1 5.867-1.1 6.9 0 1.033 0.433 1.55 1.3 1.55v0c1.033 0 2.283-0.517 3.75-1.55v0c0.167-1.967 0.833-7.15 2-15.55v0c1.167-0.467 3.267-0.7 6.3-0.7v0h0.95c-0.633 2.5-1.25 6.1-1.85 10.8-0.6 4.7-1.083 7.967-1.45 9.8v0c-0.7 3.667-1.99 6.66-3.87 8.98-1.887 2.313-4.347 3.47-7.38 3.47v0c-1.2 0-2.29-0.317-3.27-0.95-0.987-0.633-1.48-1.45-1.48-2.45v0c0-1.333 0.817-2.55 2.45-3.65 1.633-1.1 3.833-1.95 6.6-2.55v0c0.3-1.467 0.533-2.883 0.7-4.25v0c-2.7 1.9-5.3 2.85-7.8 2.85zM62.95-6.55v0c0 2.1-0.927 3.817-2.78 5.15-1.847 1.333-3.953 2-6.32 2-2.367 0-4.24-0.5-5.62-1.5-1.387-1-2.08-1.883-2.08-2.65v0c0-0.467 0.583-1.227 1.75-2.28 1.167-1.047 2.15-1.687 2.95-1.92v0c1.667 1.233 3.033 3.183 4.1 5.85v0c1.233-0.1 1.85-0.683 1.85-1.75v0c0-1.533-1.35-3.71-4.05-6.53-2.7-2.813-4.05-5.053-4.05-6.72 0-1.667 0.75-2.96 2.25-3.88 1.5-0.913 3.31-1.37 5.43-1.37 2.113 0 3.703 0.373 4.77 1.12 1.067 0.753 1.6 1.77 1.6 3.05 0 1.287-1.017 3.063-3.05 5.33v0c0.233 0.233 0.533 0.54 0.9 0.92 0.367 0.387 0.85 1.113 1.45 2.18 0.6 1.067 0.9 2.067 0.9 3zM58.15-14.4c1.4-1.2 2.1-2.383 2.1-3.55 0-1.167-0.8-1.75-2.4-1.75v0c-0.767 0-1.4 0.157-1.9 0.47-0.5 0.32-0.75 0.68-0.75 1.08v0c0 0.733 0.733 1.767 2.2 3.1v0zM76.05-21.55h4.85c-0.067 0.833-0.35 1.8-0.85 2.9v0c-1.267-0.133-2.467-0.2-3.6-0.2v0h-0.9c-1.533 7.433-2.3 12.067-2.3 13.9v0c0 0.967 0.21 1.45 0.63 1.45 0.413 0 1.52-0.417 3.32-1.25v0l0.9 1.65c-2.967 2.467-5.717 3.7-8.25 3.7v0c-1.167 0-2.127-0.367-2.88-1.1-0.747-0.733-1.12-1.71-1.12-2.93 0-1.213 0.143-2.587 0.43-4.12 0.28-1.533 0.67-3.41 1.17-5.63 0.5-2.213 0.867-4.003 1.1-5.37v0c-1.233 0.1-2.15 0.2-2.75 0.3v0c-0.067-0.4-0.1-0.943-0.1-1.63 0-0.68 0.05-1.237 0.15-1.67v0h3.15c0.267-1.8 0.4-3.5 0.4-5.1v0l-0.05-1.55v-0.15c2.6-0.9 5.05-1.35 7.35-1.35v0c0.133 0.667 0.2 1.5 0.2 2.5 0 1-0.283 2.883-0.85 5.65zM79.8-8.65v0c0-4.167 1.26-7.46 3.78-9.88 2.513-2.413 5.37-3.62 8.57-3.62v0c1.967 0 3.583 0.483 4.85 1.45 1.267 0.967 1.9 2.26 1.9 3.88 0 1.613-0.41 2.97-1.23 4.07-0.813 1.1-1.803 1.95-2.97 2.55v0c-2.367 1.167-4.533 1.9-6.5 2.2v0l-1.2 0.15c0.233 3.133 1.517 4.7 3.85 4.7v0c0.8 0 1.65-0.2 2.55-0.6 0.9-0.4 1.6-0.8 2.1-1.2v0l0.75-0.6 1.2 1.6c-0.267 0.367-0.8 0.85-1.6 1.45-0.8 0.6-1.55 1.1-2.25 1.5v0c-1.933 1.067-4.05 1.6-6.35 1.6-2.3 0-4.117-0.817-5.45-2.45-1.333-1.633-2-3.9-2-6.8zM86.95-10.3c1.7-0.3 3.05-1.017 4.05-2.15 1-1.133 1.5-2.6 1.5-4.4 0-1.8-0.533-2.7-1.6-2.7v0c-1.267 0-2.243 1.077-2.93 3.23-0.68 2.147-1.02 4.153-1.02 6.02zM101.3 0.15v0h-0.95c0-1.567 0.477-4.567 1.43-9 0.947-4.433 1.42-6.95 1.42-7.55v0c0-1.1-0.467-2.267-1.4-3.5v0l-0.45-0.6 0.05-0.65c1.8-0.5 4.683-0.75 8.65-0.75v0c0.467 0.633 0.7 1.667 0.7 3.1v0c3-2.233 5.383-3.35 7.15-3.35v0c2.233 0 3.55 1.15 3.95 3.45v0c0.9-0.733 2.077-1.493 3.53-2.28 1.447-0.78 2.747-1.17 3.9-1.17 1.147 0 2.103 0.373 2.87 1.12 0.767 0.753 1.15 1.797 1.15 3.13 0 1.333-0.367 3.533-1.1 6.6-0.733 3.067-1.1 5.123-1.1 6.17 0 1.053 0.15 1.58 0.45 1.58v0c0.2 0 0.883-0.317 2.05-0.95v0l0.55-0.3 0.9 1.75c-0.867 0.867-2.04 1.69-3.52 2.47-1.487 0.787-2.797 1.18-3.93 1.18v0c-2.5 0-3.75-1.417-3.75-4.25v0c0-1.033 0.36-3.11 1.08-6.23 0.713-3.113 1.07-5.147 1.07-6.1 0-0.947-0.283-1.42-0.85-1.42v0c-0.967 0-2.067 0.367-3.3 1.1v0c-0.067 0.667-0.523 2.933-1.37 6.8-0.853 3.867-1.28 6.867-1.28 9v0c-0.967 0.433-3.233 0.65-6.8 0.65v0c-0.067-0.367-0.1-1.25-0.1-2.65 0-1.4 0.393-3.783 1.18-7.15 0.78-3.367 1.17-5.5 1.17-6.4 0-0.9-0.317-1.35-0.95-1.35v0c-1 0-2.1 0.4-3.3 1.2v0c-0.067 0.3-0.4 1.767-1 4.4v0c-1.2 5.267-1.8 9.017-1.8 11.25v0c-1.167 0.467-3.267 0.7-6.3 0.7z" fill="#ffffff" fill-rule="nonzero" stroke="none" stroke-width="1" stroke-linecap="butt" stroke-linejoin="miter" stroke-miterlimit="10" stroke-dasharray="" stroke-dashoffset="0" font-family="none" font-weight="none" font-size="none" text-anchor="none" style="mix-blend-mode: normal" data-fill-palette-color="primary" opacity="1"></path></g></svg></g></svg></g><g transform="matrix(1,0,0,1,0,213.46100368872436)"><svg viewBox="0 0 205.05646031388326 11.62583570484098" height="11.62583570484098" width="205.05646031388326"><g transform="matrix(1,0,0,1,0,0)"><svg width="205.05646031388326" viewBox="2.05 -37.75 686.9200000000001 38.95" height="11.62583570484098" data-palette-color="#08c076"><path d="M12.45-1.65L2.05 0.2 5.85-35.3Q8.2-35.4 10.28-35.77 12.35-36.15 14.4-36.3L14.4-36.3Q14.4-36.25 14.25-35.27 14.1-34.3 13.85-32.73 13.6-31.15 13.3-29.18 13-27.2 12.43-23.75 11.85-20.3 10.9-14.2L10.9-14.2 11.65-14.2Q12.95-18.8 13.8-21.73 14.65-24.65 15.18-26.48 15.7-28.3 16.18-30 16.65-31.7 17.07-33.15 17.5-34.6 17.75-35.6L17.75-35.6 18.2-35.6Q19.1-35.6 20.03-35.7 20.95-35.8 21.78-35.93 22.6-36.05 23.5-36.25L23.5-36.25Q23.4-35.8 23.28-34.4 23.15-33 22.95-31.03 22.75-29.05 22.55-26.68 22.35-24.3 22.15-22.03 21.95-19.75 21.78-17.7 21.6-15.65 21.45-14.2L21.45-14.2 22.35-14.2 27.1-35.7Q28.8-35.95 30.45-36.15L30.45-36.15Q31.9-36.35 33.45-36.55 35-36.75 36.2-37L36.2-37Q35.45-34.9 34.7-32.33 33.95-29.75 33.15-26.9 32.35-24.05 31.63-21.15 30.9-18.25 30.2-15.55L30.2-15.55Q28.6-9.15 27.1-2.4L27.1-2.4 15.8-0.5 18-19.8 17.4-19.8 12.45-1.65ZM46.6-2.45L30.45 0.05 37-35.5 52.8-36.85Q52.45-35.75 52.2-34.6L52.2-34.6Q51.95-33.65 51.72-32.63 51.5-31.6 51.35-30.8L51.35-30.8Q50.85-30.75 49.92-30.73 49-30.7 47.95-30.68 46.9-30.65 45.82-30.65 44.75-30.65 43.95-30.65L43.95-30.65 42.2-21.7Q43.75-21.8 45.1-21.85L45.1-21.85Q46.2-21.9 47.35-21.9 48.5-21.9 49.05-21.95L49.05-21.95Q48.85-20.55 48.67-19.2 48.5-17.85 48.25-16.45L48.25-16.45Q47.75-16.4 46.62-16.38 45.5-16.35 44.35-16.3L44.35-16.3Q43.05-16.25 41.5-16.2L41.5-16.2 39.8-7 47.1-8.15 46.6-2.45ZM63.59-0.85L55.34-0.3Q57.54-6.95 59.54-13.35L59.54-13.35Q60.39-16.05 61.29-19 62.19-21.95 63.09-24.85 63.99-27.75 64.77-30.45 65.54-33.15 66.14-35.45L66.14-35.45Q68.89-35.45 71.34-35.75 73.79-36.05 76.64-36.3L76.64-36.3Q76.49-35.2 76.32-33.83 76.14-32.45 75.92-30.95 75.69-29.45 75.44-27.85 75.19-26.25 74.84-23.75 74.49-21.25 73.89-17.5L73.89-17.5 74.54-17.5Q75.99-21.3 76.94-23.83 77.89-26.35 78.49-27.95 79.09-29.55 79.72-31.08 80.34-32.6 80.92-33.98 81.49-35.35 81.99-36.4L81.99-36.4Q83.24-36.5 84.34-36.65 85.44-36.8 86.54-36.98 87.64-37.15 88.77-37.33 89.89-37.5 91.24-37.75L91.24-37.75Q90.74-34.85 90.29-31.8 89.84-28.75 89.49-25.73 89.14-22.7 88.82-19.75 88.49-16.8 88.24-14.15L88.24-14.15Q87.64-7.95 87.19-2.05L87.19-2.05 78.49-0.5Q78.49-0.75 78.57-1.85 78.64-2.95 78.77-4.55 78.89-6.15 79.12-8.1 79.34-10.05 79.57-12 79.79-13.95 80.04-15.78 80.29-17.6 80.54-18.9L80.54-18.9 80.09-18.9Q79.39-16.8 78.54-14.48 77.69-12.15 76.82-9.75 75.94-7.35 75.09-5.05 74.24-2.75 73.59-0.65L73.59-0.65Q71.84-0.6 70.59-0.53 69.34-0.45 67.69-0.35L67.69-0.35 69.29-18.9 68.54-18.9Q68.44-18.25 68.04-16.73 67.64-15.2 67.12-13.23 66.59-11.25 65.99-9.13 65.39-7 64.87-5.18 64.34-3.35 63.99-2.18 63.64-1 63.59-0.85L63.59-0.85ZM106.19-1Q104.94-0.8 103.44-0.55 101.94-0.3 100.74-0.1L100.74-0.1Q100.94-1.75 101.14-3.35L101.14-3.35Q101.29-4.75 101.42-6.15 101.54-7.55 101.64-8.55L101.64-8.55 97.29-8.55 95.29-1.35Q94.19-1.2 92.69-1.03 91.19-0.85 89.89-0.7L89.89-0.7Q88.29-0.5 86.74-0.3L86.74-0.3Q88.74-6.95 90.69-13.4L90.69-13.4Q91.49-16.1 92.37-19.05 93.24-22 94.12-24.93 94.99-27.85 95.79-30.55 96.59-33.25 97.19-35.5L97.19-35.5Q100.59-35.75 104.12-36.1 107.64-36.45 110.99-37.05L110.99-37.05Q110.84-35.45 110.67-33.08 110.49-30.7 110.34-27.9 110.19-25.1 110.04-22.05 109.89-19 109.74-16.05L109.74-16.05Q109.49-9.15 109.19-1.4L109.19-1.4Q107.69-1.15 106.19-1L106.19-1ZM101.59-26.1L98.49-13.55Q98.69-13.55 99.22-13.58 99.74-13.6 100.32-13.63 100.89-13.65 101.39-13.68 101.89-13.7 102.09-13.75L102.09-13.75Q102.09-14.05 102.17-14.78 102.24-15.5 102.32-16.43 102.39-17.35 102.49-18.45 102.59-19.55 102.69-20.6L102.69-20.6Q102.89-23.15 103.19-26.1L103.19-26.1 103.49-30.45 102.74-30.4 101.59-26.1ZM117.89-1.15L109.79 0.05Q111.29-6.95 112.59-13.55L112.59-13.55Q113.09-16.4 113.64-19.45 114.19-22.5 114.66-25.5 115.14-28.5 115.51-31.33 115.89-34.15 116.09-36.45L116.09-36.45Q117.24-36.35 118.69-36.27 120.14-36.2 121.39-36.1L121.39-36.1Q122.89-36 124.39-36L124.39-36Q124.34-35.8 124.24-35.25 124.14-34.7 123.99-33.93 123.84-33.15 123.66-32.2 123.49-31.25 123.29-30.3L123.29-30.3Q122.89-28.1 122.39-25.35L122.39-25.35 122.69-25.4Q123.19-26.2 124.11-27.63 125.04-29.05 126.04-30.65 127.04-32.25 127.99-33.73 128.94-35.2 129.59-36.25L129.59-36.25Q132.09-36.45 134.59-36.7 137.09-36.95 139.59-37.35L139.59-37.35Q137.24-34.2 135.04-31.15L135.04-31.15Q134.09-29.85 133.11-28.45 132.14-27.05 131.19-25.7 130.24-24.35 129.41-23.1 128.59-21.85 127.94-20.8L127.94-20.8Q129.04-15.75 130.54-11.05 132.04-6.35 133.59-1.45L133.59-1.45Q132.44-1.5 131.24-1.53 130.04-1.55 128.89-1.55L128.89-1.55Q127.44-1.55 126.09-1.53 124.74-1.5 123.29-1.45L123.29-1.45Q122.84-4.7 122.31-8.28 121.79-11.85 121.34-15.1L121.34-15.1 120.44-14.05Q120.09-12.55 119.66-10.35 119.24-8.15 118.84-6.1L118.84-6.1Q118.39-3.7 117.89-1.15L117.89-1.15ZM149.09-2.45L132.94 0.05 139.49-35.5 155.29-36.85Q154.94-35.75 154.69-34.6L154.69-34.6Q154.44-33.65 154.21-32.63 153.99-31.6 153.84-30.8L153.84-30.8Q153.34-30.75 152.41-30.73 151.49-30.7 150.44-30.68 149.39-30.65 148.31-30.65 147.24-30.65 146.44-30.65L146.44-30.65 144.69-21.7Q146.24-21.8 147.59-21.85L147.59-21.85Q148.69-21.9 149.84-21.9 150.99-21.9 151.54-21.95L151.54-21.95Q151.34-20.55 151.16-19.2 150.99-17.85 150.74-16.45L150.74-16.45Q150.24-16.4 149.11-16.38 147.99-16.35 146.84-16.3L146.84-16.3Q145.54-16.25 143.99-16.2L143.99-16.2 142.29-7 149.59-8.15 149.09-2.45ZM171.73-1.8L163.18-0.75 165.48-10.8Q165.48-12.95 165.41-15.48 165.33-18 165.18-20.55 165.03-23.1 164.88-25.48 164.73-27.85 164.63-29.68 164.53-31.5 164.43-32.6 164.33-33.7 164.33-33.7L164.33-33.7 172.48-36.8 172.48-30.7Q172.48-29.45 172.48-28.15 172.48-26.85 172.46-25.6 172.43-24.35 172.43-23.25 172.43-22.15 172.43-21.4L172.43-21.4Q173.08-23.1 174.01-25.6 174.93-28.1 175.73-30.45L175.73-30.45Q176.68-33.2 177.68-36.25L177.68-36.25 185.43-34.5Q183.28-30.2 181.23-25.95L181.23-25.95Q180.38-24.1 179.43-22.13 178.48-20.15 177.53-18.18 176.58-16.2 175.68-14.35 174.78-12.5 174.03-10.9L174.03-10.9Q173.78-9.6 173.41-8.05 173.03-6.5 172.68-5.1L172.68-5.1Q172.23-3.45 171.73-1.8L171.73-1.8ZM206.53-27.05Q206.53-22.95 205.65-19.33 204.78-15.7 203.33-12.68 201.88-9.65 199.95-7.28 198.03-4.9 195.93-3.23 193.83-1.55 191.68-0.68 189.53 0.2 187.58 0.2L187.58 0.2Q185.93 0.2 184.58-0.43 183.23-1.05 182.23-2.27 181.23-3.5 180.65-5.43 180.08-7.35 180.08-10.05L180.08-10.05Q180.08-12.85 180.78-15.95 181.48-19.05 182.68-22.1 183.88-25.15 185.63-27.9 187.38-30.65 189.48-32.77 191.58-34.9 193.98-36.15 196.38-37.4 198.98-37.4L198.98-37.4Q201.23-37.4 202.7-36.48 204.18-35.55 205-34.08 205.83-32.6 206.18-30.75 206.53-28.9 206.53-27.05L206.53-27.05ZM187.53-11.35Q187.53-10.8 187.73-10.2 187.93-9.6 188.28-9.15 188.63-8.7 189.15-8.38 189.68-8.05 190.28-8.05L190.28-8.05Q192.53-8.05 194.28-9.6 196.03-11.15 197.18-13.4 198.33-15.65 198.95-18.2 199.58-20.75 199.58-22.85L199.58-22.85Q199.58-23.45 199.5-24.15 199.43-24.85 199.2-25.45 198.98-26.05 198.5-26.48 198.03-26.9 197.23-26.9L197.23-26.9Q195.63-26.9 194.28-26.1 192.93-25.3 191.85-23.98 190.78-22.65 189.98-20.98 189.18-19.3 188.6-17.57 188.03-15.85 187.78-14.2 187.53-12.55 187.53-11.35L187.53-11.35ZM223.98-9.75Q223.28-6.9 222-4.9 220.73-2.9 219-1.6 217.28-0.3 215.33 0.3 213.38 0.9 211.43 0.9L211.43 0.9Q210.28 0.9 209.08 0.53 207.88 0.15 206.93-0.6 205.98-1.35 205.35-2.5 204.73-3.65 204.73-5.2L204.73-5.2Q204.73-5.4 204.73-5.6 204.73-5.8 204.78-6L204.78-6Q204.98-8.05 205.43-10.95 205.88-13.85 206.38-17 206.88-20.15 207.48-23.33 208.08-26.5 208.55-29.1 209.03-31.7 209.38-33.43 209.73-35.15 209.83-35.55L209.83-35.55Q210.88-35.65 212.33-35.8 213.78-35.95 215.03-36.05L215.03-36.05Q216.58-36.2 218.08-36.35L218.08-36.35Q216.78-30.3 215.78-25.4L215.78-25.4Q215.33-23.3 214.9-21.2 214.48-19.1 214.1-17.35 213.73-15.6 213.45-14.33 213.18-13.05 213-12.25 212.83-11.45 212.6-10.23 212.38-9 212.38-8L212.38-8Q212.38-7.2 212.78-6.68 213.18-6.15 213.78-6.15L213.78-6.15Q214.63-6.15 215.18-6.83 215.73-7.5 216.1-8.45 216.48-9.4 216.65-10.38 216.83-11.35 216.98-11.9L216.98-11.9Q217.28-13.35 217.65-15.13 218.03-16.9 218.4-18.82 218.78-20.75 219.15-22.75 219.53-24.75 219.88-26.65L219.88-26.65Q220.73-31.05 221.53-35.75L221.53-35.75 229.13-36.25Q229.13-36.25 228.88-34.95 228.63-33.65 228.23-31.5 227.83-29.35 227.35-26.6 226.88-23.85 226.28-20.88 225.68-17.9 225.1-15.03 224.53-12.15 223.98-9.75L223.98-9.75ZM232.42-2.05L224.32 0.05Q225.67-6.6 226.92-12.95L226.92-12.95Q227.37-15.65 227.92-18.57 228.47-21.5 228.95-24.38 229.42-27.25 229.85-29.93 230.27-32.6 230.52-34.8L230.52-34.8Q233.37-35.7 236.67-36.13 239.97-36.55 243.22-36.55L243.22-36.55Q245.17-36.55 246.45-36.1 247.72-35.65 248.45-34.83 249.17-34 249.47-32.9 249.77-31.8 249.77-30.45L249.77-30.45Q249.77-28.45 249.07-26.53 248.37-24.6 247.2-22.88 246.02-21.15 244.5-19.73 242.97-18.3 241.22-17.4L241.22-17.4Q242.12-15.4 243.15-13.03 244.17-10.65 245.07-8.5L245.07-8.5Q246.07-6 247.12-3.5L247.12-3.5 239.37-0.8Q238.37-4 237.57-6.8L237.57-6.8Q237.22-7.95 236.87-9.18 236.52-10.4 236.22-11.5 235.92-12.6 235.72-13.48 235.52-14.35 235.47-14.9L235.47-14.9 234.82-14.7Q234.52-13.1 234.1-10.95 233.67-8.8 233.32-6.8L233.32-6.8Q232.87-4.45 232.42-2.05L232.42-2.05ZM237.67-29.6L236.07-21.65Q237.02-21.75 238.4-22.45 239.77-23.15 241.02-24.13 242.27-25.1 243.17-26.15 244.07-27.2 244.07-28L244.07-28Q244.07-28.55 243.72-28.88 243.37-29.2 242.75-29.38 242.12-29.55 241.37-29.6 240.62-29.65 239.82-29.65L239.82-29.65Q239.27-29.65 238.7-29.63 238.12-29.6 237.67-29.6L237.67-29.6ZM283.27-19.05Q282.92-13.95 281.27-10.18 279.62-6.4 277.29-3.85 274.97-1.3 272.29-0.05 269.62 1.2 267.22 1.2L267.22 1.2Q265.37 1.2 263.69 0.4 262.02-0.4 260.79-2.02 259.57-3.65 258.87-6.1 258.17-8.55 258.17-11.85L258.17-11.85Q258.17-18.3 260.02-23.1 261.87-27.9 264.69-31.1 267.52-34.3 270.74-35.85 273.97-37.4 276.77-37.4L276.77-37.4Q278.77-37.4 280.24-36.7 281.72-36 282.67-34.83 283.62-33.65 284.04-32.08 284.47-30.5 284.47-28.75L284.47-28.75 277.62-27.45Q277.17-29.45 276.42-30.3 275.67-31.15 274.72-31.15L274.72-31.15Q273.47-31.15 271.97-29.38 270.47-27.6 269.17-24.8 267.87-22 266.97-18.65 266.07-15.3 265.97-12.05L265.97-12.05Q265.97-8.95 266.89-7.63 267.82-6.3 269.27-6.3L269.27-6.3Q270.27-6.3 271.34-6.8 272.42-7.3 273.27-8.22 274.12-9.15 274.69-10.38 275.27-11.6 275.32-13.05L275.32-13.05 269.97-12.25 270.92-17.2Q273.27-17.5 275.52-17.8L275.52-17.8Q277.42-18.05 279.54-18.4 281.67-18.75 283.27-19.05L283.27-19.05ZM299.42-1Q298.17-0.8 296.67-0.55 295.17-0.3 293.97-0.1L293.97-0.1Q294.17-1.75 294.37-3.35L294.37-3.35Q294.52-4.75 294.64-6.15 294.77-7.55 294.87-8.55L294.87-8.55 290.52-8.55 288.52-1.35Q287.42-1.2 285.92-1.03 284.42-0.85 283.12-0.7L283.12-0.7Q281.52-0.5 279.97-0.3L279.97-0.3Q281.97-6.95 283.92-13.4L283.92-13.4Q284.72-16.1 285.59-19.05 286.47-22 287.34-24.93 288.22-27.85 289.02-30.55 289.82-33.25 290.42-35.5L290.42-35.5Q293.82-35.75 297.34-36.1 300.87-36.45 304.22-37.05L304.22-37.05Q304.07-35.45 303.89-33.08 303.72-30.7 303.57-27.9 303.42-25.1 303.27-22.05 303.12-19 302.97-16.05L302.97-16.05Q302.72-9.15 302.42-1.4L302.42-1.4Q300.92-1.15 299.42-1L299.42-1ZM294.82-26.1L291.72-13.55Q291.92-13.55 292.44-13.58 292.97-13.6 293.54-13.63 294.12-13.65 294.62-13.68 295.12-13.7 295.32-13.75L295.32-13.75Q295.32-14.05 295.39-14.78 295.47-15.5 295.54-16.43 295.62-17.35 295.72-18.45 295.82-19.55 295.92-20.6L295.92-20.6Q296.12-23.15 296.42-26.1L296.42-26.1 296.72-30.45 295.97-30.4 294.82-26.1ZM316.16-1.35L307.16 0.05Q308.31-5.45 309.36-10.8L309.36-10.8Q309.81-13.05 310.26-15.5 310.71-17.95 311.14-20.33 311.56-22.7 311.89-24.93 312.21-27.15 312.46-29L312.46-29Q311.31-29.15 310.14-29.1 308.96-29.05 307.81-29.4L307.81-29.4Q307.86-30.2 307.86-31.25 307.86-32.3 307.91-33.35L307.91-33.35Q307.96-34.5 308.01-35.8L308.01-35.8Q309.31-35.7 310.61-35.65 311.91-35.6 313.21-35.6L313.21-35.6Q315.76-35.6 318.14-35.73 320.51-35.85 322.54-36.02 324.56-36.2 326.51-36.45L326.51-36.45 325.96-33.75Q325.71-32.6 325.49-31.4 325.26-30.2 325.06-29.35L325.06-29.35Q323.96-29.05 322.84-28.93 321.71-28.8 320.61-28.6L320.61-28.6Q320.26-26.9 319.86-24.83 319.46-22.75 319.09-20.53 318.71-18.3 318.36-16 318.01-13.7 317.66-11.6L317.66-11.6Q316.86-6.65 316.16-1.35L316.16-1.35ZM328.86-1.5L321.16 0.1Q322.56-6.9 323.86-13.55L323.86-13.55Q324.36-16.4 324.91-19.48 325.46-22.55 325.94-25.55 326.41-28.55 326.84-31.38 327.26-34.2 327.51-36.5L327.51-36.5Q328.66-36.45 329.64-36.38 330.61-36.3 331.56-36.25 332.51-36.2 333.49-36.18 334.46-36.15 335.61-36.15L335.61-36.15Q334.76-32.6 333.94-29.05 333.11-25.5 332.41-21.9L332.41-21.9 337.36-22.45Q338.06-26 338.61-29.33 339.16-32.65 340.06-36.2L340.06-36.2Q341.21-36.4 342.61-36.52 344.01-36.65 345.21-36.75 346.41-36.85 347.24-36.93 348.06-37 348.06-37L348.06-37Q347.36-34.75 346.74-32.08 346.11-29.4 345.51-26.53 344.91-23.65 344.36-20.7 343.81-17.75 343.36-15.1L343.36-15.1Q342.26-8.75 341.31-2.1L341.31-2.1 333.51-1.2Q334.16-4.2 334.66-7.05L334.66-7.05Q335.16-9.45 335.69-12.05 336.21-14.65 336.51-16.5L336.51-16.5 331.66-16.05Q331.31-14.15 330.84-11.65 330.36-9.15 329.96-6.9L329.96-6.9Q329.41-4.2 328.86-1.5L328.86-1.5ZM359.36-2.45L343.21 0.05 349.76-35.5 365.56-36.85Q365.21-35.75 364.96-34.6L364.96-34.6Q364.71-33.65 364.48-32.63 364.26-31.6 364.11-30.8L364.11-30.8Q363.61-30.75 362.68-30.73 361.76-30.7 360.71-30.68 359.66-30.65 358.58-30.65 357.51-30.65 356.71-30.65L356.71-30.65 354.96-21.7Q356.51-21.8 357.86-21.85L357.86-21.85Q358.96-21.9 360.11-21.9 361.26-21.9 361.81-21.95L361.81-21.95Q361.61-20.55 361.43-19.2 361.26-17.85 361.01-16.45L361.01-16.45Q360.51-16.4 359.38-16.38 358.26-16.35 357.11-16.3L357.11-16.3Q355.81-16.25 354.26-16.2L354.26-16.2 352.56-7 359.86-8.15 359.36-2.45ZM368.16-2.05L360.06 0.05Q361.41-6.6 362.66-12.95L362.66-12.95Q363.11-15.65 363.66-18.57 364.21-21.5 364.68-24.38 365.16-27.25 365.58-29.93 366.01-32.6 366.26-34.8L366.26-34.8Q369.11-35.7 372.41-36.13 375.71-36.55 378.96-36.55L378.96-36.55Q380.91-36.55 382.18-36.1 383.46-35.65 384.18-34.83 384.91-34 385.21-32.9 385.51-31.8 385.51-30.45L385.51-30.45Q385.51-28.45 384.81-26.53 384.11-24.6 382.93-22.88 381.76-21.15 380.23-19.73 378.71-18.3 376.96-17.4L376.96-17.4Q377.86-15.4 378.88-13.03 379.91-10.65 380.81-8.5L380.81-8.5Q381.81-6 382.86-3.5L382.86-3.5 375.11-0.8Q374.11-4 373.31-6.8L373.31-6.8Q372.96-7.95 372.61-9.18 372.26-10.4 371.96-11.5 371.66-12.6 371.46-13.48 371.26-14.35 371.21-14.9L371.21-14.9 370.56-14.7Q370.26-13.1 369.83-10.95 369.41-8.8 369.06-6.8L369.06-6.8Q368.61-4.45 368.16-2.05L368.16-2.05ZM373.41-29.6L371.81-21.65Q372.76-21.75 374.13-22.45 375.51-23.15 376.76-24.13 378.01-25.1 378.91-26.15 379.81-27.2 379.81-28L379.81-28Q379.81-28.55 379.46-28.88 379.11-29.2 378.48-29.38 377.86-29.55 377.11-29.6 376.36-29.65 375.56-29.65L375.56-29.65Q375.01-29.65 374.43-29.63 373.86-29.6 373.41-29.6L373.41-29.6ZM390.55-1Q390.1-1 388.78-0.88 387.45-0.75 386.05-0.58 384.65-0.4 383.53-0.25 382.4-0.1 382.3-0.05L382.3-0.05Q382.8-2.2 383.33-4.83 383.85-7.45 384.4-10.33 384.95-13.2 385.45-16.15 385.95-19.1 386.4-21.85L386.4-21.85Q387.45-28.25 388.5-35L388.5-35 396.3-36.25Q395.15-29.55 394.05-23.1L394.05-23.1Q393.6-20.35 393.13-17.4 392.65-14.45 392.18-11.55 391.7-8.65 391.3-5.93 390.9-3.2 390.55-1L390.55-1ZM399.7-1.45L392.4 0.25Q393.9-6.95 395.25-13.7L395.25-13.7Q395.75-16.6 396.33-19.7 396.9-22.8 397.4-25.83 397.9-28.85 398.3-31.63 398.7-34.4 398.9-36.65L398.9-36.65Q399.55-36.6 400-36.6 400.45-36.6 401.05-36.6L401.05-36.6Q401.75-36.6 402.75-36.63 403.75-36.65 404.75-36.7 405.75-36.75 406.9-36.8L406.9-36.8Q407.6-33.3 408.15-30.05L408.15-30.05Q408.7-27.2 409.28-24.2 409.85-21.2 410.3-19.1L410.3-19.1Q410.5-20.1 410.75-21.43 411-22.75 411.3-24.2 411.6-25.65 411.88-27.13 412.15-28.6 412.45-30.05L412.45-30.05Q413.15-33.3 413.9-36.75L413.9-36.75 420-37.5Q418.3-29.85 417-23L417-23Q416.4-20.05 415.83-17.03 415.25-14 414.75-11.23 414.25-8.45 413.9-6.08 413.55-3.7 413.35-2.1L413.35-2.1Q413.2-2.1 412.18-1.88 411.15-1.65 409.83-1.35 408.5-1.05 407.18-0.75 405.85-0.45 405.2-0.2L405.2-0.2Q404.9-4.2 404.55-7.8L404.55-7.8Q404.4-9.35 404.23-10.98 404.05-12.6 403.85-14.1 403.65-15.6 403.45-16.9 403.25-18.2 403.05-19.15L403.05-19.15Q402.9-18.2 402.65-16.95 402.4-15.7 402.15-14.3 401.9-12.9 401.65-11.38 401.4-9.85 401.1-8.45L401.1-8.45Q400.45-5.1 399.7-1.45L399.7-1.45ZM441.95-19.05Q441.6-13.95 439.95-10.18 438.3-6.4 435.97-3.85 433.65-1.3 430.97-0.05 428.3 1.2 425.9 1.2L425.9 1.2Q424.05 1.2 422.37 0.4 420.7-0.4 419.47-2.02 418.25-3.65 417.55-6.1 416.85-8.55 416.85-11.85L416.85-11.85Q416.85-18.3 418.7-23.1 420.55-27.9 423.37-31.1 426.2-34.3 429.42-35.85 432.65-37.4 435.45-37.4L435.45-37.4Q437.45-37.4 438.92-36.7 440.4-36 441.35-34.83 442.3-33.65 442.72-32.08 443.15-30.5 443.15-28.75L443.15-28.75 436.3-27.45Q435.85-29.45 435.1-30.3 434.35-31.15 433.4-31.15L433.4-31.15Q432.15-31.15 430.65-29.38 429.15-27.6 427.85-24.8 426.55-22 425.65-18.65 424.75-15.3 424.65-12.05L424.65-12.05Q424.65-8.95 425.57-7.63 426.5-6.3 427.95-6.3L427.95-6.3Q428.95-6.3 430.02-6.8 431.1-7.3 431.95-8.22 432.8-9.15 433.37-10.38 433.95-11.6 434-13.05L434-13.05 428.65-12.25 429.6-17.2Q431.95-17.5 434.2-17.8L434.2-17.8Q436.1-18.05 438.22-18.4 440.35-18.75 441.95-19.05L441.95-19.05ZM461.85-12.35Q461.85-9.55 460.77-7.28 459.7-5 457.87-3.35 456.05-1.7 453.57-0.8 451.1 0.1 448.25 0.1L448.25 0.1Q446.25 0.1 444.25-0.98 442.25-2.05 440.4-4.4L440.4-4.4 444.1-11.65Q444.45-11 445.15-10.33 445.85-9.65 446.72-9.15 447.6-8.65 448.47-8.33 449.35-8 450.05-8L450.05-8Q450.65-8 451.3-8.2 451.95-8.4 452.5-8.8 453.05-9.2 453.37-9.73 453.7-10.25 453.7-10.95L453.7-10.95Q453.7-12.15 452.92-13.18 452.15-14.2 451-15.13 449.85-16.05 448.5-17 447.15-17.95 446.02-19 444.9-20.05 444.1-21.35 443.3-22.65 443.3-24.25L443.3-24.25Q443.3-26.85 444.85-29.1 446.4-31.35 448.72-32.98 451.05-34.6 453.8-35.55 456.55-36.5 459-36.5L459-36.5Q460.35-36.5 461.55-36.18 462.75-35.85 463.62-35.13 464.5-34.4 465.02-33.3 465.55-32.2 465.55-30.55L465.55-30.55Q465.55-29.85 465.42-29.15 465.3-28.45 465.2-27.65L465.2-27.65 457.95-25.55Q458.05-25.95 458.12-26.35 458.2-26.75 458.2-27.15L458.2-27.15Q458.2-28.65 457.67-29.33 457.15-30 456.3-30L456.3-30Q455.9-30 455.32-29.7 454.75-29.4 454.17-28.93 453.6-28.45 453.2-27.8 452.8-27.15 452.8-26.4L452.8-26.4Q452.8-25.2 453.47-24.4 454.15-23.6 455.15-22.9 456.15-22.2 457.32-21.48 458.5-20.75 459.5-19.6 460.5-18.45 461.17-16.73 461.85-15 461.85-12.35L461.85-12.35ZM479.24-2.05L471.14 0.05Q472.49-6.6 473.74-12.95L473.74-12.95Q474.19-15.65 474.74-18.57 475.29-21.5 475.77-24.38 476.24-27.25 476.67-29.93 477.09-32.6 477.34-34.8L477.34-34.8Q480.19-35.7 483.49-36.13 486.79-36.55 490.04-36.55L490.04-36.55Q491.99-36.55 493.27-36.1 494.54-35.65 495.27-34.83 495.99-34 496.29-32.9 496.59-31.8 496.59-30.45L496.59-30.45Q496.59-28.45 495.89-26.53 495.19-24.6 494.02-22.88 492.84-21.15 491.32-19.73 489.79-18.3 488.04-17.4L488.04-17.4Q488.94-15.4 489.97-13.03 490.99-10.65 491.89-8.5L491.89-8.5Q492.89-6 493.94-3.5L493.94-3.5 486.19-0.8Q485.19-4.25 484.39-7.3L484.39-7.3Q484.04-8.55 483.69-9.88 483.34-11.2 483.04-12.38 482.74-13.55 482.54-14.45 482.34-15.35 482.29-15.85L482.29-15.85 481.64-15.65Q481.34-14.05 480.92-11.75 480.49-9.45 480.14-7.3L480.14-7.3Q479.69-4.75 479.24-2.05L479.24-2.05ZM484.49-29.6L482.89-21.65Q483.84-21.75 485.22-22.45 486.59-23.15 487.84-24.13 489.09-25.1 489.99-26.15 490.89-27.2 490.89-28L490.89-28Q490.89-28.55 490.54-28.88 490.19-29.2 489.57-29.38 488.94-29.55 488.19-29.6 487.44-29.65 486.64-29.65L486.64-29.65Q486.09-29.65 485.52-29.63 484.94-29.6 484.49-29.6L484.49-29.6ZM509.69-2.45L493.54 0.05 500.09-35.5 515.89-36.85Q515.54-35.75 515.29-34.6L515.29-34.6Q515.04-33.65 514.81-32.63 514.59-31.6 514.44-30.8L514.44-30.8Q513.94-30.75 513.01-30.73 512.09-30.7 511.04-30.68 509.99-30.65 508.91-30.65 507.84-30.65 507.04-30.65L507.04-30.65 505.29-21.7Q506.84-21.8 508.19-21.85L508.19-21.85Q509.29-21.9 510.44-21.9 511.59-21.9 512.14-21.95L512.14-21.95Q511.94-20.55 511.76-19.2 511.59-17.85 511.34-16.45L511.34-16.45Q510.84-16.4 509.71-16.38 508.59-16.35 507.44-16.3L507.44-16.3Q506.14-16.25 504.59-16.2L504.59-16.2 502.89-7 510.19-8.15 509.69-2.45ZM516.94-0.85L508.69-0.3Q510.89-6.95 512.89-13.35L512.89-13.35Q513.74-16.05 514.64-19 515.54-21.95 516.44-24.85 517.34-27.75 518.11-30.45 518.89-33.15 519.49-35.45L519.49-35.45Q522.24-35.45 524.69-35.75 527.14-36.05 529.99-36.3L529.99-36.3Q529.84-35.2 529.66-33.83 529.49-32.45 529.26-30.95 529.04-29.45 528.79-27.85 528.54-26.25 528.19-23.75 527.84-21.25 527.24-17.5L527.24-17.5 527.89-17.5Q529.34-21.3 530.29-23.83 531.24-26.35 531.84-27.95 532.44-29.55 533.06-31.08 533.69-32.6 534.26-33.98 534.84-35.35 535.34-36.4L535.34-36.4Q536.59-36.5 537.69-36.65 538.79-36.8 539.89-36.98 540.99-37.15 542.11-37.33 543.24-37.5 544.59-37.75L544.59-37.75Q544.09-34.85 543.64-31.8 543.19-28.75 542.84-25.73 542.49-22.7 542.16-19.75 541.84-16.8 541.59-14.15L541.59-14.15Q540.99-7.95 540.54-2.05L540.54-2.05 531.84-0.5Q531.84-0.75 531.91-1.85 531.99-2.95 532.11-4.55 532.24-6.15 532.46-8.1 532.69-10.05 532.91-12 533.14-13.95 533.39-15.78 533.64-17.6 533.89-18.9L533.89-18.9 533.44-18.9Q532.74-16.8 531.89-14.48 531.04-12.15 530.16-9.75 529.29-7.35 528.44-5.05 527.59-2.75 526.94-0.65L526.94-0.65Q525.19-0.6 523.94-0.53 522.69-0.45 521.04-0.35L521.04-0.35 522.64-18.9 521.89-18.9Q521.79-18.25 521.39-16.73 520.99-15.2 520.46-13.23 519.94-11.25 519.34-9.13 518.74-7 518.21-5.18 517.69-3.35 517.34-2.18 516.99-1 516.94-0.85L516.94-0.85ZM559.53-1Q558.28-0.8 556.78-0.55 555.28-0.3 554.08-0.1L554.08-0.1Q554.28-1.75 554.48-3.35L554.48-3.35Q554.63-4.75 554.76-6.15 554.88-7.55 554.98-8.55L554.98-8.55 550.63-8.55 548.63-1.35Q547.53-1.2 546.03-1.03 544.53-0.85 543.23-0.7L543.23-0.7Q541.63-0.5 540.08-0.3L540.08-0.3Q542.08-6.95 544.03-13.4L544.03-13.4Q544.83-16.1 545.71-19.05 546.58-22 547.46-24.93 548.33-27.85 549.13-30.55 549.93-33.25 550.53-35.5L550.53-35.5Q553.93-35.75 557.46-36.1 560.98-36.45 564.33-37.05L564.33-37.05Q564.18-35.45 564.01-33.08 563.83-30.7 563.68-27.9 563.53-25.1 563.38-22.05 563.23-19 563.08-16.05L563.08-16.05Q562.83-9.15 562.53-1.4L562.53-1.4Q561.03-1.15 559.53-1L559.53-1ZM554.93-26.1L551.83-13.55Q552.03-13.55 552.56-13.58 553.08-13.6 553.66-13.63 554.23-13.65 554.73-13.68 555.23-13.7 555.43-13.75L555.43-13.75Q555.43-14.05 555.51-14.78 555.58-15.5 555.66-16.43 555.73-17.35 555.83-18.45 555.93-19.55 556.03-20.6L556.03-20.6Q556.23-23.15 556.53-26.1L556.53-26.1 556.83-30.45 556.08-30.4 554.93-26.1ZM571.08-2.05L562.98 0.05Q564.33-6.6 565.58-12.95L565.58-12.95Q566.03-15.65 566.58-18.57 567.13-21.5 567.61-24.38 568.08-27.25 568.5-29.93 568.93-32.6 569.18-34.8L569.18-34.8Q572.03-35.7 575.33-36.13 578.63-36.55 581.88-36.55L581.88-36.55Q583.83-36.55 585.11-36.1 586.38-35.65 587.11-34.83 587.83-34 588.13-32.9 588.43-31.8 588.43-30.45L588.43-30.45Q588.43-28.45 587.73-26.53 587.03-24.6 585.86-22.88 584.68-21.15 583.15-19.73 581.63-18.3 579.88-17.4L579.88-17.4Q580.78-15.4 581.8-13.03 582.83-10.65 583.73-8.5L583.73-8.5Q584.73-6 585.78-3.5L585.78-3.5 578.03-0.8Q577.03-4 576.23-6.8L576.23-6.8Q575.88-7.95 575.53-9.18 575.18-10.4 574.88-11.5 574.58-12.6 574.38-13.48 574.18-14.35 574.13-14.9L574.13-14.9 573.48-14.7Q573.18-13.1 572.75-10.95 572.33-8.8 571.98-6.8L571.98-6.8Q571.53-4.45 571.08-2.05L571.08-2.05ZM576.33-29.6L574.73-21.65Q575.68-21.75 577.05-22.45 578.43-23.15 579.68-24.13 580.93-25.1 581.83-26.15 582.73-27.2 582.73-28L582.73-28Q582.73-28.55 582.38-28.88 582.03-29.2 581.4-29.38 580.78-29.55 580.03-29.6 579.28-29.65 578.48-29.65L578.48-29.65Q577.93-29.65 577.36-29.63 576.78-29.6 576.33-29.6L576.33-29.6ZM593.43-1.15L585.33 0.05Q586.83-6.95 588.13-13.55L588.13-13.55Q588.63-16.4 589.18-19.45 589.73-22.5 590.2-25.5 590.68-28.5 591.05-31.33 591.43-34.15 591.63-36.45L591.63-36.45Q592.78-36.35 594.23-36.27 595.68-36.2 596.93-36.1L596.93-36.1Q598.43-36 599.93-36L599.93-36Q599.88-35.8 599.78-35.25 599.68-34.7 599.53-33.93 599.38-33.15 599.2-32.2 599.03-31.25 598.83-30.3L598.83-30.3Q598.43-28.1 597.93-25.35L597.93-25.35 598.23-25.4Q598.73-26.2 599.65-27.63 600.58-29.05 601.58-30.65 602.58-32.25 603.53-33.73 604.48-35.2 605.13-36.25L605.13-36.25Q607.63-36.45 610.13-36.7 612.63-36.95 615.13-37.35L615.13-37.35Q612.78-34.2 610.58-31.15L610.58-31.15Q609.63-29.85 608.65-28.45 607.68-27.05 606.73-25.7 605.78-24.35 604.95-23.1 604.13-21.85 603.48-20.8L603.48-20.8Q604.58-15.75 606.08-11.05 607.58-6.35 609.13-1.45L609.13-1.45Q607.98-1.5 606.78-1.53 605.58-1.55 604.43-1.55L604.43-1.55Q602.98-1.55 601.63-1.53 600.28-1.5 598.83-1.45L598.83-1.45Q598.38-4.7 597.85-8.28 597.33-11.85 596.88-15.1L596.88-15.1 595.98-14.05Q595.63-12.55 595.2-10.35 594.78-8.15 594.38-6.1L594.38-6.1Q593.93-3.7 593.43-1.15L593.43-1.15ZM626.47-1Q625.22-0.8 623.72-0.55 622.22-0.3 621.02-0.1L621.02-0.1Q621.22-1.75 621.42-3.35L621.42-3.35Q621.57-4.75 621.7-6.15 621.82-7.55 621.92-8.55L621.92-8.55 617.57-8.55 615.57-1.35Q614.47-1.2 612.97-1.03 611.47-0.85 610.17-0.7L610.17-0.7Q608.57-0.5 607.02-0.3L607.02-0.3Q609.02-6.95 610.97-13.4L610.97-13.4Q611.77-16.1 612.65-19.05 613.52-22 614.4-24.93 615.27-27.85 616.07-30.55 616.87-33.25 617.47-35.5L617.47-35.5Q620.87-35.75 624.4-36.1 627.92-36.45 631.27-37.05L631.27-37.05Q631.12-35.45 630.95-33.08 630.77-30.7 630.62-27.9 630.47-25.1 630.32-22.05 630.17-19 630.02-16.05L630.02-16.05Q629.77-9.15 629.47-1.4L629.47-1.4Q627.97-1.15 626.47-1L626.47-1ZM621.87-26.1L618.77-13.55Q618.97-13.55 619.5-13.58 620.02-13.6 620.6-13.63 621.17-13.65 621.67-13.68 622.17-13.7 622.37-13.75L622.37-13.75Q622.37-14.05 622.45-14.78 622.52-15.5 622.6-16.43 622.67-17.35 622.77-18.45 622.87-19.55 622.97-20.6L622.97-20.6Q623.17-23.15 623.47-26.1L623.47-26.1 623.77-30.45 623.02-30.4 621.87-26.1ZM652.32-12.55Q652.32-10.5 651.47-8.75 650.62-7 649.17-5.58 647.72-4.15 645.8-3.08 643.87-2 641.75-1.28 639.62-0.55 637.4-0.18 635.17 0.2 633.12 0.2L633.12 0.2Q631.27 0.2 629.67-0.1L629.67-0.1Q632.07-8.85 633.5-17.73 634.92-26.6 636.22-35.6L636.22-35.6Q638.82-36.15 641.62-36.58 644.42-37 647.42-37L647.42-37Q648.67-37 650.07-36.7 651.47-36.4 652.62-35.6 653.77-34.8 654.55-33.5 655.32-32.2 655.32-30.2L655.32-30.2Q655.32-28.3 654.7-26.65 654.07-25 653.1-23.65 652.12-22.3 650.87-21.33 649.62-20.35 648.32-19.85L648.32-19.85Q648.97-19.5 649.67-18.85 650.37-18.2 650.97-17.32 651.57-16.45 651.95-15.25 652.32-14.05 652.32-12.55L652.32-12.55ZM640.87-17.75Q640.67-16.55 640.5-15.63 640.32-14.7 640.17-13.85 640.02-13 639.85-12.08 639.67-11.15 639.47-9.9L639.47-9.9Q640.42-10 641.62-10.25 642.82-10.5 643.92-11.03 645.02-11.55 645.77-12.43 646.52-13.3 646.52-14.55L646.52-14.55Q646.52-15.45 646.05-16.05 645.57-16.65 644.85-17.05 644.12-17.45 643.27-17.63 642.42-17.8 641.67-17.8L641.67-17.8Q641.42-17.8 641.25-17.8 641.07-17.8 640.87-17.75L640.87-17.75ZM643.12-29.85Q643.02-29.3 642.9-28.55 642.77-27.8 642.62-26.98 642.47-26.15 642.3-25.35 642.12-24.55 642.02-23.95L642.02-23.95Q643.12-24.15 644.22-24.5 645.32-24.85 646.2-25.28 647.07-25.7 647.6-26.2 648.12-26.7 648.12-27.3L648.12-27.3Q648.12-28.05 647.67-28.53 647.22-29 646.5-29.3 645.77-29.6 645-29.73 644.22-29.85 643.62-29.85L643.62-29.85 643.12-29.85ZM664.92-1.6Q663.37-1.6 661.64-1.5 659.92-1.4 658.17-1.2 656.42-1 654.74-0.68 653.07-0.35 651.72 0.1L651.72 0.1Q652.02-2.15 652.42-4.9 652.82-7.65 653.34-10.6 653.87-13.55 654.39-16.55 654.92-19.55 655.47-22.3L655.47-22.3Q656.72-28.85 658.12-35.65L658.12-35.65 666.87-36.8Q665.52-31 664.27-25.5L664.27-25.5Q663.72-23.15 663.17-20.63 662.62-18.1 662.12-15.7 661.62-13.3 661.22-11.05 660.82-8.8 660.57-7.05L660.57-7.05Q661.82-7.15 663.24-7.18 664.67-7.2 665.77-7.2L665.77-7.2Q665.82-6.25 665.92-5.33 666.02-4.4 666.14-3.65 666.27-2.9 666.34-2.33 666.42-1.75 666.47-1.55L666.47-1.55Q666.07-1.55 665.69-1.58 665.32-1.6 664.92-1.6L664.92-1.6ZM682.77-2.45L666.62 0.05 673.17-35.5 688.97-36.85Q688.62-35.75 688.37-34.6L688.37-34.6Q688.12-33.65 687.89-32.63 687.67-31.6 687.52-30.8L687.52-30.8Q687.02-30.75 686.09-30.73 685.17-30.7 684.12-30.68 683.07-30.65 681.99-30.65 680.92-30.65 680.12-30.65L680.12-30.65 678.37-21.7Q679.92-21.8 681.27-21.85L681.27-21.85Q682.37-21.9 683.52-21.9 684.67-21.9 685.22-21.95L685.22-21.95Q685.02-20.55 684.84-19.2 684.67-17.85 684.42-16.45L684.42-16.45Q683.92-16.4 682.79-16.38 681.67-16.35 680.52-16.3L680.52-16.3Q679.22-16.25 677.67-16.2L677.67-16.2 675.97-7 683.27-8.15 682.77-2.45Z" opacity="1" transform="matrix(1,0,0,1,0,0)" fill="#08c076" class="slogan-text-1" data-fill-palette-color="secondary" id="text-1"></path></svg></g></svg></g></svg></g></svg></g><g transform="matrix(1,0,0,1,0,49.44375876730168)"><svg viewBox="0 0 215.84890559356137 127.32475605592977" height="127.32475605592977" width="215.84890559356137"><g><svg xmlns="http://www.w3.org/2000/svg" xmlns:xlink="http://www.w3.org/1999/xlink" version="1.1" x="0" y="0" viewBox="15.781000000000006 29.395 70.96199999999999 41.85900000000001" enable-background="new 0 0 100 100" xml:space="preserve" height="127.32475605592977" width="215.84890559356137" class="icon-icon-0" data-fill-palette-color="accent" id="icon-0"><path d="M65.828 29.395c-5.662 0.002-10.793 2.253-14.561 5.904-3.767-3.65-8.897-5.9-14.559-5.902-11.559 0.002-20.925 9.369-20.927 20.928 0.002 11.559 9.368 20.928 20.927 20.929 5.661 0 10.792-2.251 14.56-5.903 3.767 3.652 8.897 5.902 14.56 5.903 11.559-0.003 20.915-9.371 20.915-20.927C86.743 38.765 77.387 29.398 65.828 29.395zM51.268 59.623c-1.718-2.684-2.721-5.872-2.726-9.297 0.005-3.428 1.008-6.616 2.727-9.299 1.718 2.683 2.722 5.871 2.728 9.297C53.99 53.75 52.986 56.939 51.268 59.623zM19.422 50.324c0.017-9.548 7.739-17.272 17.287-17.288 4.748 0.008 9.045 1.924 12.167 5.023-2.497 3.446-3.975 7.682-3.976 12.267 0.001 4.581 1.479 8.816 3.976 12.263-3.122 3.1-7.419 5.016-12.167 5.024C27.161 67.595 19.438 59.871 19.422 50.324zM65.828 67.614c-4.749-0.009-9.046-1.926-12.168-5.024 2.498-3.447 3.975-7.683 3.977-12.266-0.002-4.583-1.479-8.818-3.977-12.265 3.122-3.099 7.419-5.016 12.168-5.023 9.546 0.018 17.265 7.741 17.281 17.29C83.093 59.871 75.374 67.598 65.828 67.614z" fill="#08c076" data-fill-palette-color="accent"></path></svg></g></svg></g></svg></g><defs></defs></svg><rect width="395.5199999999999" height="149.08751372305855" fill="none" stroke="none" visibility="hidden"></rect></g></svg></g></svg>