<svg width="49" height="30" viewBox="0 0 49 30" fill="none" xmlns="http://www.w3.org/2000/svg">
<path d="M24.2411 28.0249C24.1787 28.0249 25.135 28.2536 25.135 28.4407C30.1247 28.0041 31.9542 29.4386 35.6756 29.4386C38.0457 29.4386 39.1683 28.8981 39.3554 27.817C39.6465 25.4469 35.9874 27.9002 28.8149 27.0893C28.6694 26.6943 29.2723 26.7359 30.2078 26.7359C38.8357 26.5904 41.1018 26.0706 44.8024 24.4698C46.0706 23.8877 46.5904 23.4303 47.0685 23.0145C47.2556 22.869 47.422 22.7027 47.5883 22.5155C47.6299 22.4532 47.6714 22.4116 47.6922 22.3908L47.713 22.37H47.7338C47.8585 22.1829 47.9209 21.975 47.9001 21.7671C47.9001 21.4345 47.9001 21.081 47.6299 20.8939C47.6299 20.8939 47.5051 20.8108 47.2764 20.6444C46.6111 20.1871 45.1558 19.106 43.056 18.0457C43.056 18.0457 43.0353 18.0249 43.2432 17.7131C45.8835 14.3451 46.133 12.37 46.1746 12.0582V12.0166C46.1746 11.8087 46.1122 11.58 45.9874 11.4137C45.8003 11.1226 45.4885 10.9355 45.1351 10.9147C45.1351 10.9147 44.5529 10.8939 43.555 10.8939C42.7234 10.8939 41.6007 10.9563 39.9583 11.081C39.5841 10.79 39.6049 10.4989 39.6049 10.2079C39.6049 9.00203 39.5425 7.79621 39.4386 6.59039C39.3554 5.69641 39.2723 5.17666 39.2723 5.17666C39.1891 4.74007 38.9396 4.53217 38.607 4.53217C38.503 4.53217 38.3991 4.55297 38.2743 4.59455C38.2743 4.59455 38.1288 4.65691 37.8585 4.76086C37.1101 5.0935 35.6132 5.88352 33.555 6.69434C32.9937 3.82531 32.2244 2.16211 32.2244 2.16211C32.0789 1.74631 31.7879 1.57999 31.4344 1.64236C31.3305 1.66315 31.2265 1.70473 31.1226 1.7671C31.1226 1.7671 30.5612 2.09974 29.7089 2.74423C28.9396 3.30556 28.1912 3.88768 27.4635 4.4906L27.0685 4.76086C26.4032 3.88768 25.9874 3.05608 25.5716 2.3908C25.2806 1.91263 25.0311 1.51762 24.8648 1.26814C24.6985 1.01866 24.6361 0.87313 24.6361 0.87313C24.4698 0.623649 24.3034 0.561279 24.2411 0.561279H24.2203C24.1579 0.561279 23.9916 0.623649 23.8253 0.87313C23.8253 0.87313 23.7421 1.01866 23.5966 1.26814C23.4303 1.53841 23.1808 1.91263 22.8897 2.3908C22.4947 3.05608 22.0789 3.88768 21.4136 4.74008L21.0186 4.4698C20.291 3.86689 19.5425 3.26398 18.7733 2.72344C17.9001 2.09974 17.3596 1.7671 17.3596 1.74631C17.2764 1.68394 17.1725 1.64236 17.0477 1.62157C16.6943 1.5592 16.424 1.72552 16.2577 2.14132C16.2577 2.14132 15.4885 3.80452 14.9271 6.67355C12.8689 5.86274 11.3721 5.07272 10.6236 4.74008C10.3533 4.61533 10.2078 4.57375 10.2078 4.57375C10.1039 4.53217 9.97912 4.51138 9.87517 4.51138C9.54253 4.53217 9.27226 4.71929 9.20989 5.15588C9.20989 5.15588 9.12673 5.67563 9.04357 6.5696C8.91883 7.77542 8.87725 8.98124 8.87725 10.1871C8.87725 10.4781 8.87725 10.7692 8.52382 11.0602C6.88141 10.9147 5.75875 10.8731 4.92715 10.8731C3.92923 10.8731 3.3471 10.8939 3.3471 10.8939C2.99367 10.9147 2.68182 11.1018 2.49471 11.3929C2.36997 11.5592 2.3076 11.7879 2.3076 11.9958V12.0374C2.32839 12.3492 2.57787 14.3243 5.239 17.6923C5.42611 18.0041 5.42611 18.0041 5.42611 18.0249C3.30552 19.0852 1.85022 20.1455 1.20573 20.6237C0.977042 20.7692 0.852302 20.8731 0.852302 20.8731C0.582031 21.081 0.582031 21.4137 0.582031 21.7463C0.582031 21.9542 0.644402 22.1829 0.769142 22.3492C0.769142 22.3492 0.769141 22.37 0.789931 22.37C0.810722 22.3908 0.852302 22.4324 0.893882 22.4948C1.0602 22.6819 1.22652 22.8482 1.41363 22.9937C1.91259 23.4095 2.41155 23.8877 3.67974 24.449C7.38037 26.0498 9.66727 26.5696 18.2743 26.7151C19.2099 26.7359 19.792 26.6736 19.6673 27.0686C12.4947 27.8794 8.81488 25.4469 9.12673 27.7962C9.31384 28.8981 10.4365 29.4178 12.8066 29.4178C16.528 29.4178 18.3575 27.9833 23.3471 28.4199C23.3471 28.212 24.3034 28.0041 24.2411 28.0041V28.0249Z" fill="#DBD4FF"/>
<path d="M23.6798 27.8586C23.659 27.921 23.6383 28.0042 23.659 28.0873H23.6798C23.6798 28.0665 23.6798 28.025 23.6798 28.0042C23.6798 27.9834 23.6798 27.8586 23.6798 27.8586ZM24.7609 28.0873C24.7817 28.0042 24.7817 27.9418 24.7401 27.8586L24.7609 28.0042C24.7609 28.025 24.7609 28.0457 24.7609 28.0873ZM9.64657 27.7339C9.70894 28.0665 9.87526 28.8773 12.7651 28.8773C14.262 28.8773 15.447 28.6279 16.6944 28.3784C18.0665 28.0873 19.501 27.7963 21.4553 27.7963C21.9751 27.7963 22.5364 27.8171 23.0977 27.8586C23.264 27.7339 23.4927 27.6507 23.7006 27.5884V27.526L24.1372 27.4636L24.158 27.6091V27.4428H24.1788L24.2204 27.7963L24.2827 27.4428L24.7193 27.5052V27.5676C24.9272 27.6299 25.1559 27.7131 25.3222 27.8378C25.8628 27.7963 26.4033 27.7755 26.9647 27.7755C28.9189 27.7755 30.3326 28.0665 31.7256 28.3576C32.973 28.6071 34.158 28.8565 35.6549 28.8565C38.5447 28.8565 38.7318 28.0249 38.7734 27.7131C38.815 27.4428 38.7526 27.3805 38.7526 27.3805C38.7526 27.3805 38.6694 27.2973 38.2121 27.2973C37.7963 27.2973 37.2141 27.3597 36.4865 27.4636C35.3222 27.6092 33.7422 27.7963 31.8503 27.7963C30.8108 27.7963 29.7505 27.7339 28.711 27.6091L28.3576 27.5676L28.2536 27.2349C28.1289 26.9023 28.2536 26.6528 28.3368 26.5281C28.6071 26.1539 29.106 26.1331 29.8337 26.1331C29.9376 26.1331 30.0416 26.1331 30.1455 26.1331C38.9189 25.9875 41.0603 25.4054 44.5322 23.9085C45.6341 23.4096 46.0915 23.0146 46.5696 22.6195L46.6736 22.5364C46.9231 22.3285 47.0686 22.183 47.1102 22.1206V21.7672H47.2973C47.2973 21.7464 47.2973 21.7256 47.2973 21.7048C47.2973 21.5385 47.2973 21.3098 47.2557 21.2682C47.2557 21.2682 47.131 21.185 46.9231 21.0395L46.736 20.9148C46.0083 20.395 44.657 19.4387 42.7443 18.4823L42.6611 18.4408L42.5988 18.3784C42.2661 18.0457 42.4948 17.6715 42.7027 17.3597L42.7443 17.3181C45.1767 14.2204 45.5094 12.3909 45.5509 11.9751V11.9543C45.5509 11.8503 45.5301 11.7464 45.4678 11.6632C45.3846 11.5177 45.2183 11.4137 45.052 11.4137C45.052 11.4137 44.4699 11.3929 43.4927 11.3929C42.5364 11.4137 41.3721 11.4761 39.9376 11.58L39.7089 11.6008L39.5426 11.4553C38.9813 10.9979 38.9813 10.4782 38.9813 10.1663V10.1871C38.9813 8.52391 38.8773 7.23493 38.815 6.63202C38.7318 5.75883 38.6694 5.25988 38.6694 5.25988C38.6279 5.09356 38.5863 5.09355 38.5239 5.07276C38.4823 5.07276 38.4408 5.09356 38.42 5.09356C38.42 5.09356 38.2744 5.15593 38.0249 5.25988C37.817 5.34304 37.526 5.48857 37.1726 5.65489C36.3202 6.07069 35.1559 6.61123 33.7006 7.19335L33.0769 7.44283L32.9522 6.77755C32.474 4.36591 31.8503 2.80665 31.684 2.39085C31.684 2.37006 31.6632 2.34927 31.6632 2.32848C31.6008 2.16216 31.5593 2.16216 31.5385 2.16216C31.5177 2.16216 31.5177 2.16216 31.4969 2.16216H31.4553C31.4553 2.16216 31.4345 2.16216 31.3929 2.20374C31.3514 2.22453 31.3306 2.24532 31.289 2.26611C31.1019 2.39085 30.6237 2.68191 30 3.13929C29.2308 3.67984 28.5031 4.26195 27.7755 4.86486L27.7339 4.90645L26.9023 5.44699L26.5904 5.03118C26.0915 4.38669 25.738 3.76299 25.4262 3.22245C25.3015 3.01455 25.1975 2.80665 25.0728 2.61954C24.9272 2.39085 24.8025 2.18295 24.6778 1.99584C24.5738 1.82952 24.4699 1.6632 24.3659 1.49688C24.3035 1.39293 24.2412 1.28898 24.1996 1.22661C24.158 1.28898 24.0956 1.39293 24.0333 1.49688C23.9709 1.60083 23.8877 1.74636 23.7838 1.89189C23.6383 2.09979 23.4927 2.34927 23.3264 2.61954C23.2432 2.76507 23.1393 2.93139 23.0561 3.09771C22.7235 3.67983 22.3701 4.32432 21.8295 5.03118L21.5177 5.44699L20.6445 4.86486C19.9168 4.26195 19.1892 3.67984 18.42 3.13929C18.0042 2.82744 17.5676 2.53638 17.131 2.26611C17.0894 2.24532 17.0478 2.22453 17.027 2.18295C16.9854 2.16216 16.9647 2.14137 16.9647 2.14137H16.9231C16.9023 2.14137 16.9023 2.14137 16.8815 2.14137C16.8607 2.14137 16.8191 2.14137 16.7568 2.2869C16.7568 2.30769 16.736 2.32848 16.736 2.34927C16.5489 2.76507 15.9252 4.32432 15.4678 6.73597L15.343 7.40125L14.7193 7.15177C13.2432 6.56965 12.079 6.00832 11.2266 5.59251C10.9563 5.46777 10.6861 5.32225 10.395 5.19751C10.2703 5.13514 10.1247 5.09355 10 5.03118C9.95842 5.0104 9.91684 5.0104 9.87526 5.0104C9.83368 5.0104 9.77131 5.03119 9.75052 5.19751C9.75052 5.19751 9.66736 5.69647 9.60499 6.54886C9.54262 7.17256 9.43867 8.46154 9.43867 10.104V10.1247C9.43867 10.4366 9.43867 10.9563 8.87734 11.4137L8.71102 11.5593L8.48233 11.5385C7.04782 11.4137 5.88358 11.3514 4.92724 11.3514C4.40748 11.3514 3.88773 11.3514 3.36798 11.3721C3.20166 11.3929 3.05613 11.4761 2.95218 11.6216C2.88981 11.7048 2.86902 11.8087 2.86902 11.9127V11.9335C2.9106 12.3285 3.24324 14.158 5.67568 17.2557L5.71726 17.2973C5.92516 17.6092 6.15385 17.9834 5.82121 18.316L5.75884 18.3784L5.67568 18.42C3.76299 19.3763 2.41164 20.3326 1.68399 20.8524L1.51767 20.9771C1.41372 21.0603 1.28898 21.1227 1.18503 21.2058C1.14345 21.2474 1.14345 21.4761 1.14345 21.6424C1.14345 21.6632 1.14345 21.684 1.14345 21.7048H1.30977V22.0582C1.4553 22.2037 1.60083 22.3493 1.74636 22.474L1.85031 22.578C2.30769 22.973 2.78586 23.368 3.88773 23.8669C7.35967 25.3638 9.50104 25.9459 18.2744 26.0915H18.6071C19.3555 26.0915 19.8337 26.0915 20.104 26.4865C20.1871 26.6112 20.3118 26.8399 20.1871 27.1933L20.0832 27.526L19.7297 27.5676C18.6902 27.6923 17.6299 27.7339 16.5904 27.7339C14.6985 27.7339 13.1185 27.5468 11.9543 27.4012C11.2266 27.3181 10.6445 27.2349 10.2287 27.2349C9.77131 27.2349 9.68815 27.3181 9.68815 27.3181C9.66736 27.4012 9.60499 27.4636 9.64657 27.7339ZM12.7651 30C11.1019 30 8.85655 29.7921 8.5447 27.921V27.9002C8.48233 27.3597 8.56549 26.9647 8.83576 26.6736C6.79834 26.3202 5.28067 25.7796 3.43035 24.9896C2.18295 24.4283 1.60083 23.9293 1.12266 23.5343L1.01871 23.4511C0.831601 23.2848 0.64449 23.1185 0.47817 22.9314H0.436591L0.27027 22.6819C0.10395 22.4116 0 22.0998 0 21.7672C0 21.3929 -9.91345e-08 20.8108 0.49896 20.4366C0.49896 20.4366 0.623701 20.3534 0.873181 20.1871L1.01871 20.0832C1.70478 19.605 2.9106 18.7526 4.61539 17.8378C2.16216 14.6362 1.80873 12.6611 1.74636 12.1206V12.0374C1.74636 11.7048 1.85031 11.3929 2.01663 11.1227C2.30769 10.6861 2.76507 10.4158 3.28482 10.3742C3.30561 10.3742 3.90852 10.3534 4.90644 10.3534C5.842 10.3742 6.94387 10.4158 8.27443 10.5198C8.29522 10.4574 8.29522 10.3742 8.29522 10.2495V10.1871C8.29522 8.48233 8.39917 7.15177 8.46154 6.50728C8.5447 5.61331 8.62786 5.09355 8.62786 5.07276C8.7526 4.38669 9.20998 3.97089 9.83368 3.9501H9.85447C10.0416 3.9501 10.2079 3.99168 10.395 4.05405C10.395 4.05405 10.5405 4.11642 10.8316 4.24116C11.0603 4.34511 11.3514 4.49065 11.684 4.63618C12.5988 5.09356 13.5343 5.50935 14.4906 5.90437C14.948 3.82536 15.4886 2.47401 15.6965 1.95426C15.9252 1.33056 16.4449 0.99792 17.0686 1.08108C17.2349 1.10187 17.422 1.16424 17.5884 1.26819L17.8586 1.43451C18.1081 1.60083 18.5239 1.8711 19.0437 2.24532C19.7921 2.78586 20.5198 3.34719 21.2266 3.9501C21.5593 3.47193 21.8295 2.99376 22.0582 2.57796C22.1622 2.41164 22.2453 2.24532 22.3493 2.079C22.5156 1.78794 22.6819 1.53846 22.8274 1.33056C22.9314 1.18503 22.9938 1.06029 23.0769 0.956342C23.2225 0.706862 23.3056 0.582121 23.3056 0.582121L23.3264 0.56133C23.5551 0.2079 23.8462 0.02079 24.1372 0H24.1996C24.5114 0 24.8233 0.2079 25.052 0.56133L25.0728 0.602909C25.0728 0.602909 25.1559 0.72765 25.3015 0.97713C25.3846 1.12266 25.4886 1.28898 25.6133 1.47609C25.738 1.6632 25.8628 1.8711 26.0083 2.09979C26.1331 2.2869 26.2578 2.4948 26.3825 2.72349C26.6112 3.1185 26.8607 3.5343 27.1518 3.99168C27.8586 3.40956 28.5863 2.82744 29.3347 2.2869C29.7297 1.99584 30.1247 1.72557 30.5198 1.47609L30.79 1.30977C30.9563 1.20582 31.1435 1.14345 31.3098 1.12266C31.3721 1.12266 31.4553 1.10187 31.5177 1.10187C32.0582 1.10187 32.474 1.41372 32.6819 1.97505C32.9106 2.4948 33.4304 3.84615 33.8877 5.92516C35.0312 5.44699 35.9667 5.01039 36.6736 4.65696C37.027 4.49064 37.3181 4.34511 37.5468 4.24116C37.8171 4.11642 37.9834 4.05405 37.9834 4.05405C38.1705 3.99168 38.3368 3.9501 38.5239 3.9501C39.1684 3.97089 39.6258 4.3867 39.7505 5.05198C39.7505 5.09356 39.8337 5.61331 39.9168 6.50728C39.9792 7.13098 40.0832 8.46154 40.0832 10.1663V10.1871C40.0832 10.3119 40.0832 10.395 40.104 10.4574C41.4345 10.3534 42.5364 10.2911 43.4719 10.2911C44.4906 10.2911 45.0728 10.3119 45.0936 10.3119C45.6133 10.3326 46.0915 10.6237 46.3825 11.0603C46.5489 11.3098 46.6528 11.6216 46.6528 11.9751V12.0582C46.5904 12.5988 46.237 14.5738 43.7838 17.7755C45.4886 18.6694 46.6944 19.5218 47.3597 20.0208L47.526 20.1455C47.7547 20.3119 47.8794 20.395 47.8794 20.395C48.3784 20.7692 48.3784 21.3306 48.3784 21.7256C48.3784 22.0582 48.2952 22.3701 48.1081 22.6403L47.9418 22.8898H47.8794C47.7131 23.0769 47.526 23.2432 47.3389 23.4096L47.2349 23.4927C46.7568 23.8877 46.1746 24.3867 44.9272 24.948C43.0561 25.7588 41.5385 26.2786 39.5218 26.632V26.6528C39.7713 26.9439 39.8753 27.3389 39.8129 27.8794V27.9002C39.501 29.7713 37.2557 30 35.5925 30C33.9917 30 32.6819 29.7297 31.4345 29.4802C30.104 29.21 28.7526 28.9189 26.9023 28.9189C26.3202 28.9189 25.7173 28.9397 25.0936 29.0021L24.4906 29.0644V28.7318C24.3659 28.6902 24.262 28.6487 24.1372 28.6071C23.9917 28.6487 23.8669 28.6902 23.7838 28.7318V29.0644L23.1809 29.0021C22.578 28.9397 21.9751 28.9189 21.3721 28.9189C19.5426 28.9189 18.1705 29.21 16.8399 29.4802C15.6757 29.7297 14.3867 30 12.7651 30Z" fill="#DBD4FF"/>
<path d="M9.89585 4.57373C9.60479 4.57373 9.41768 4.76084 9.35531 5.09348C9.35531 5.09348 9.29294 5.61323 9.20978 6.48641C9.10583 7.67144 9.04346 8.85647 9.04346 10.0623C9.04346 13.4511 9.48005 18.2744 11.6006 21.975C13.2223 24.8024 15.5092 26.3825 18.0663 26.4656C16.7358 25.4677 15.7586 24.0748 15.2597 22.4739C14.6568 20.6028 14.3657 18.4199 14.3657 15.9251C14.3657 12.4947 14.9478 9.56334 15.1141 8.75253C15.1141 8.73174 15.1141 8.73173 15.1141 8.71094C15.2181 8.23277 15.4884 7.85855 15.8626 7.65065C13.2638 5.98745 11.0185 4.98953 10.5819 4.82321C10.3324 4.69847 10.1869 4.65689 10.1869 4.65689C10.083 4.59452 9.97901 4.57373 9.89585 4.57373ZM32.058 8.52383C31.9956 8.52383 31.9125 8.54462 31.8293 8.60699C31.8293 8.60699 31.7462 8.66937 31.6006 8.79411C31.4551 8.91885 31.2472 9.08517 30.9561 9.35544C30.2077 10.0207 29.5216 10.7276 28.8356 11.4552C27.3595 13.0976 25.426 15.6756 24.4904 18.6486C23.9499 20.3949 23.7004 21.8918 23.7004 23.1184C23.7004 24.0332 23.846 24.8232 24.137 25.4261C24.4073 26.0082 24.8647 26.4864 25.4468 26.7359C25.6963 26.8398 26.0289 26.9022 26.4031 26.9022H26.4239C28.2119 26.9022 31.164 25.4261 32.2035 22.1205C32.7441 20.3326 33.0351 18.2328 33.0351 15.8835C33.0351 12.9521 32.6193 10.3949 32.4322 9.41781C32.3699 9.06438 32.3283 8.87726 32.3283 8.87726C32.2867 8.73173 32.2035 8.52383 32.058 8.52383Z" fill="#383838"/>
<path d="M16.4032 8.52399C16.2368 8.52399 16.1537 8.73189 16.0913 8.89821L15.9874 9.43875C15.9458 9.68823 15.8418 10.208 15.7379 10.9564C15.5716 12.1207 15.3637 13.9086 15.3637 15.9044C15.3637 18.2953 15.6547 20.3951 16.1953 22.1415C17.2348 25.4471 20.2909 26.9439 22.1204 26.9439H22.1412C22.5362 26.9439 22.8689 26.8816 23.1391 26.7568C23.2847 26.6945 23.4302 26.6113 23.5965 26.5074C23.451 26.3202 23.3262 26.1123 23.2431 25.9044C22.8896 25.156 22.7025 24.262 22.7025 23.1602C22.7233 21.788 22.9936 20.1872 23.5549 18.3785C23.5965 18.2121 23.6589 18.0458 23.7212 17.8795C23.742 17.8171 23.7628 17.7548 23.7836 17.6924C21.8501 12.8691 17.3803 9.23085 16.8813 8.83584C16.715 8.7111 16.6318 8.64873 16.6318 8.64873C16.5487 8.56557 16.4655 8.52399 16.4032 8.52399ZM24.2202 0.623779C24.1163 0.623779 23.9915 0.706939 23.8876 0.873259C23.8876 0.873259 23.8044 0.998 23.6381 1.24748C23.4094 1.6217 23.2015 1.97513 22.9936 2.34935C22.2659 3.63833 21.6215 4.9481 21.0393 6.29946C20.5196 7.48449 20.0622 8.69031 19.6464 9.91692C21.0809 11.3722 23.0352 13.6175 24.3242 16.3618C25.3221 14.2205 26.8397 12.0791 28.8356 10.0001C27.4842 5.86287 25.5716 2.49488 24.8023 1.24748C24.7192 1.12274 24.636 0.998001 24.5528 0.852471C24.3657 0.644571 24.241 0.623779 24.2202 0.623779ZM38.5029 4.57388C38.4198 4.57388 38.3158 4.59467 38.2327 4.63625C38.2327 4.63625 38.0871 4.67783 37.8377 4.80258C37.5882 4.90653 37.2555 5.05205 36.8397 5.25995L36.6942 5.32233C35.426 5.94603 34.1786 6.6321 32.9728 7.38054C32.8273 7.4637 32.7025 7.54686 32.5778 7.63002C32.952 7.81713 33.2223 8.19135 33.3262 8.69031V8.73189C33.4926 9.5427 34.0747 12.4949 34.0747 15.9044C34.0747 18.3785 33.7836 20.5822 33.2015 22.4533C32.5778 24.4284 31.4343 25.6758 30.4572 26.445C32.9728 26.3202 35.2181 24.7402 36.819 21.9543C38.9188 18.2537 39.3761 13.4512 39.3761 10.0417C39.3761 8.83584 39.3138 7.63002 39.2098 6.46578C39.1266 5.5926 39.0643 5.09363 39.0643 5.09363C39.0019 4.7402 38.8148 4.57388 38.5029 4.57388ZM31.5383 1.70486C31.4967 1.70486 31.4759 1.70486 31.4343 1.70486C31.3512 1.72565 31.268 1.74644 31.2057 1.80881C31.2057 1.80881 30.6443 2.14145 29.7919 2.76515C29.0643 3.2849 28.3366 3.84623 27.6506 4.42835C28.3158 5.8005 28.898 7.21422 29.4177 8.62794C30.5196 7.75476 31.7254 6.94394 33.0768 6.11234C32.6817 4.15808 32.2452 2.70278 32.0788 2.16224L32.058 2.12066C31.9541 1.85039 31.767 1.70486 31.5383 1.70486ZM16.8813 1.70486C16.6526 1.70486 16.4655 1.85039 16.3616 2.12066C15.9458 3.43043 15.6131 4.76099 15.3429 6.11234C16.715 6.94394 17.9 7.75476 19.0019 8.62794C19.5217 7.19343 20.1038 5.77971 20.7899 4.42835C20.1038 3.84623 19.3761 3.30569 18.6485 2.76515C17.7961 2.16224 17.2348 1.80881 17.2348 1.80881C17.1724 1.74644 17.0892 1.72565 16.9853 1.70486C16.9437 1.70486 16.9021 1.70486 16.8813 1.70486ZM4.57363 10.8733C3.82519 10.8733 3.40939 10.894 3.40939 10.894C3.11833 10.9148 2.82727 11.0812 2.68174 11.3306C2.57779 11.497 2.51542 11.6841 2.53621 11.8712C2.59858 12.3701 2.93122 14.2205 5.13496 17.0063C6.25762 16.445 7.38029 15.946 8.46137 15.551C8.23268 14.1581 8.10794 12.6612 8.06636 11.0604C7.04764 10.9564 6.02893 10.9148 5.01022 10.894C4.8439 10.8733 4.69837 10.8733 4.57363 10.8733ZM43.846 10.8733C42.6817 10.8733 41.5383 10.9356 40.3741 11.0396C40.3325 12.5365 40.2077 14.0541 39.979 15.5302C41.1225 15.9668 42.2244 16.445 43.3054 16.9855C45.5092 14.1997 45.8418 12.3494 45.9042 11.8504C45.925 11.6841 45.821 11.4138 45.7587 11.3098C45.5716 11.0396 45.3221 10.8941 45.0102 10.8733C45.0102 10.8941 44.5736 10.8733 43.846 10.8733Z" fill="#383838"/>
<path d="M39.792 16.5696C39.3346 18.8357 38.6277 20.8315 37.6922 22.4739C36.715 24.1995 35.4884 25.5093 34.0331 26.3617C44.5113 25.8003 47.4635 22.4116 47.7753 22.0374C48.0456 21.6216 47.9624 21.0602 47.5674 20.7484C47.5674 20.7484 47.4427 20.6652 47.214 20.5197C47.0477 20.3949 46.7982 20.2286 46.5071 20.0415L46.2577 19.8752C45.1558 19.1683 43.9915 18.5238 42.8273 17.9209C41.8294 17.4012 40.8315 16.9646 39.792 16.5696ZM8.62772 16.5696C5.09341 17.9001 2.24518 19.7712 1.18489 20.5197C0.976988 20.6652 0.852248 20.7484 0.852248 20.7484C0.623558 20.9147 0.478027 21.2058 0.478027 21.5176C0.478027 21.7047 0.540398 21.9126 0.644348 22.0581C0.665138 22.0789 0.685928 22.0997 0.706718 22.1413L0.748298 22.1829C0.810668 22.266 0.997778 22.4324 1.24726 22.6611C1.68385 23.0353 2.47387 23.5966 3.76285 24.1787C6.40318 25.3845 10.0622 26.133 14.3658 26.3617C12.9313 25.5093 11.6838 24.1579 10.7067 22.4532C9.77117 20.8107 9.06431 18.8357 8.62772 16.5696ZM38.4822 27.1101C37.9416 27.1101 37.1516 27.2141 35.9458 27.3804C35.7587 27.4012 35.5716 27.422 35.3845 27.4636C34.8647 27.5467 34.2202 27.5675 33.3678 27.5675C32.8273 27.5675 32.2868 27.5675 31.7462 27.5467H31.7046C31.1641 27.5259 30.5404 27.5259 29.9375 27.5259C28.6485 27.5259 27.0061 27.5675 25.53 27.9833C25.4468 28.0041 25.4053 28.0872 25.4053 28.1288C25.4053 28.1704 25.5092 28.1912 25.5716 28.1912C25.5924 28.1912 25.6132 28.1912 25.634 28.1912C26.2161 28.1496 26.7774 28.108 27.2972 28.108C29.2098 28.108 30.4988 28.4407 31.767 28.7525C32.952 29.0436 34.0747 29.3347 35.6339 29.3347C37.2972 29.3347 38.6069 28.9812 39.1475 28.3991C39.3346 28.1912 39.4177 27.9833 39.3969 27.7546C39.3554 27.318 39.2098 27.1101 38.4822 27.1101ZM9.93749 27.1101C9.20984 27.1101 9.06431 27.318 9.02273 27.7546C9.00194 27.9833 9.0851 28.1912 9.25142 28.3991C9.77117 28.9812 11.1225 29.3554 12.7649 29.3554C14.3242 29.3554 15.4468 29.0644 16.6319 28.7733C17.9001 28.4615 19.189 28.1288 21.1017 28.1288C21.6215 28.1288 22.1828 28.1496 22.7649 28.212C22.7857 28.212 22.8065 28.212 22.8273 28.212C22.9105 28.212 22.9936 28.1912 22.9936 28.1496C22.9936 28.108 22.952 28.0249 22.8689 28.0041C21.4136 27.5883 19.7504 27.5467 18.4614 27.5467C17.8377 27.5467 17.2348 27.5675 16.6942 27.5675H16.6527C16.0913 27.5883 15.5508 27.5883 15.031 27.5883C14.1787 27.5883 13.5342 27.5467 13.0144 27.4843C12.8273 27.4636 12.6402 27.4428 12.4323 27.4012C11.2473 27.2349 10.4572 27.1101 9.93749 27.1101Z" fill="#383838"/>
</svg>
