<svg width="34" height="34" viewBox="0 0 34 34" fill="none" xmlns="http://www.w3.org/2000/svg">
<g clip-path="url(#clip0_98_649)">
<path d="M25.0799 16.0666C25.3281 16.0369 25.5659 16.0357 25.7843 16.0666C25.9108 15.7766 25.9325 15.2767 25.8188 14.7323C25.6497 13.9232 25.4209 13.4335 24.948 13.5097C24.4752 13.586 24.4578 14.1721 24.6268 14.9813C24.7219 15.4364 24.8913 15.8255 25.0799 16.0666Z" fill="#383838"/>
<path d="M21.0205 16.7069C21.3588 16.8553 21.5667 16.9538 21.6481 16.8678C21.7004 16.814 21.6848 16.7118 21.6039 16.5798C21.4371 16.3073 21.0936 16.0308 20.7292 15.8756C19.984 15.5549 19.0953 15.6616 18.4097 16.1542C18.1834 16.32 17.9687 16.5497 17.9995 16.6893C18.0095 16.7343 18.0433 16.7683 18.1228 16.7794C18.3094 16.8008 18.9616 16.4711 19.7126 16.4251C20.2429 16.3927 20.6822 16.5585 21.0205 16.7069Z" fill="#383838"/>
<path d="M20.34 17.0952C19.8995 17.1648 19.6564 17.3101 19.5005 17.4452C19.3673 17.5616 19.285 17.6902 19.2856 17.7807C19.286 17.8237 19.3046 17.8485 19.3193 17.861C19.3394 17.8787 19.3632 17.8885 19.3918 17.8885C19.4913 17.8885 19.7142 17.7991 19.7142 17.7991C20.3274 17.5797 20.7318 17.6062 21.1327 17.6519C21.3542 17.6768 21.4589 17.6906 21.5074 17.6146C21.5217 17.5929 21.5392 17.5456 21.4949 17.4738C21.3918 17.3062 20.9469 17.0233 20.34 17.0952Z" fill="#383838"/>
<path d="M23.7091 18.5208C24.0083 18.6678 24.3377 18.6101 24.445 18.392C24.5522 18.1737 24.3965 17.8778 24.0974 17.7307C23.7981 17.5838 23.4688 17.6414 23.3615 17.8596C23.2543 18.0777 23.41 18.3738 23.7091 18.5208Z" fill="#383838"/>
<path d="M25.6325 16.8399C25.3895 16.8358 25.1879 17.1027 25.1822 17.436C25.1766 17.7692 25.3691 18.0428 25.6121 18.0469C25.8551 18.051 26.0568 17.7841 26.0624 17.4509C26.068 17.1175 25.8756 16.844 25.6325 16.8399Z" fill="#383838"/>
<path d="M9.30774 22.8497C9.24731 22.7739 9.1479 22.797 9.05181 22.8194C8.98461 22.8351 8.90851 22.8527 8.8251 22.8513C8.64634 22.8478 8.49493 22.7714 8.40993 22.6408C8.29923 22.4708 8.30561 22.2173 8.42786 21.927C8.44433 21.888 8.46372 21.8445 8.48484 21.7971C8.67981 21.3598 9.00606 20.6278 8.63976 19.9303C8.36405 19.4054 7.91448 19.0784 7.37386 19.0098C6.85483 18.944 6.32053 19.1365 5.9798 19.5125C5.4421 20.1057 5.3581 20.9128 5.46203 21.198C5.50014 21.3025 5.55971 21.3313 5.60301 21.3373C5.69445 21.3496 5.82972 21.283 5.91452 21.0551C5.92063 21.0386 5.92873 21.0132 5.93882 20.9809C5.97654 20.8604 6.04687 20.636 6.16201 20.4561C6.30087 20.2392 6.51715 20.0897 6.77103 20.0354C7.02961 19.98 7.29397 20.0293 7.51524 20.1742C7.89183 20.4207 8.03693 20.8822 7.87609 21.3226C7.79295 21.5504 7.65795 21.9858 7.6877 22.3436C7.74793 23.0679 8.19332 23.3587 8.59355 23.3896C8.98269 23.4043 9.25462 23.1859 9.32348 23.0262C9.36406 22.9318 9.32986 22.8743 9.30774 22.8497Z" fill="#383838"/>
<path d="M31.7653 21.5253C31.7504 21.4729 31.654 21.1202 31.5214 20.6951C31.3888 20.2701 31.2516 19.9709 31.2516 19.9709C31.7833 19.1748 31.7928 18.4628 31.7222 18.0597C31.6466 17.5598 31.4385 17.1338 31.0191 16.6936C30.5997 16.2532 29.7419 15.8023 28.5364 15.4639C28.3985 15.4252 27.9439 15.3004 27.9038 15.2882C27.9008 15.2621 27.8706 13.797 27.8431 13.1681C27.8231 12.7135 27.7841 12.0037 27.5639 11.3044C27.3014 10.3582 26.8441 9.53013 26.2733 9.00041C27.8486 7.36748 28.8318 5.56874 28.8295 4.02559C28.825 1.05802 25.1804 0.16008 20.6892 2.01985C20.6844 2.02185 19.7443 2.42048 19.7376 2.42387C19.7334 2.41975 18.0172 0.735888 17.9914 0.713376C12.8707 -3.75311 -3.13972 14.0429 1.97907 18.365L3.09775 19.3126C2.80756 20.0644 2.69354 20.9255 2.78671 21.8517C2.9063 23.0412 3.5199 24.1815 4.51433 25.0626C5.45843 25.8989 6.69969 26.4284 7.90424 26.4274C9.89623 31.0178 14.4475 33.8338 19.7841 33.9923C25.5085 34.1623 30.3138 31.4763 32.3273 26.6512C32.459 26.3125 33.0179 24.7867 33.0179 23.4399C33.0179 22.0862 32.2526 21.5253 31.7653 21.5253ZM8.34438 25.1381C8.17053 25.1678 7.99302 25.1796 7.81419 25.1753C6.08524 25.1289 4.21769 23.5724 4.03209 21.7265C3.82696 19.6862 4.86947 18.1159 6.71537 17.7437C6.93603 17.6992 7.20272 17.6735 7.49026 17.6884C8.52447 17.7451 10.0485 18.5393 10.3967 20.7922C10.705 22.7875 10.2152 24.8191 8.34438 25.1381ZM6.41355 16.523C5.26446 16.7464 4.25169 17.3977 3.63239 18.2973C3.26217 17.9886 2.57261 17.3909 2.45082 17.158C1.4621 15.2806 3.52992 11.6304 4.97439 9.56905C8.54426 4.47463 14.1355 0.618615 16.7238 1.3182C17.1445 1.43727 18.5381 3.05313 18.5381 3.05313C18.5381 3.05313 15.9508 4.48864 13.5515 6.48966C10.3186 8.97896 7.87655 12.597 6.41355 16.523ZM24.5615 24.3752C24.599 24.3594 24.6249 24.3164 24.6206 24.2738C24.6153 24.2214 24.5685 24.1833 24.5161 24.1886C24.5161 24.1886 21.8076 24.5895 19.249 23.6528C19.5277 22.747 20.2688 23.0742 21.3888 23.1645C23.4077 23.2849 25.2171 22.99 26.5544 22.6061C27.7132 22.2735 29.2351 21.6179 30.4172 20.6849C30.816 21.5608 30.9568 22.5246 30.9568 22.5246C30.9568 22.5246 31.2654 22.4694 31.5233 22.6282C31.7671 22.7781 31.9458 23.09 31.8238 23.896C31.5752 25.4021 30.935 26.6244 29.8591 27.7488C29.2043 28.4538 28.4092 29.0667 27.4995 29.5124C27.0164 29.7662 26.5019 29.9857 25.9586 30.1632C21.9027 31.4878 17.7512 30.0315 16.4129 26.9041C16.306 26.669 16.2158 26.4229 16.1445 26.1654C15.5742 24.1046 16.0585 21.632 17.5719 20.0757C17.572 20.0756 17.5717 20.0751 17.5717 20.0749C17.6651 19.9758 17.7603 19.8591 17.7603 19.7122C17.7603 19.5894 17.6822 19.4598 17.6145 19.368C17.085 18.6 15.2509 17.2912 15.6191 14.7586C15.8834 12.9392 17.4746 11.6577 18.9582 11.7337C19.0835 11.7401 19.209 11.7479 19.3341 11.7553C19.9771 11.7933 20.538 11.8757 21.0672 11.8979C21.9529 11.9361 22.7496 11.8074 23.6929 11.0213C24.0113 10.756 24.2663 10.5262 24.6981 10.453C24.7434 10.4453 24.8563 10.4048 25.0819 10.4155C25.3122 10.4277 25.5315 10.491 25.7285 10.6221C26.4848 11.1254 26.5922 12.3444 26.6314 13.2361C26.6536 13.7451 26.7153 14.9766 26.7363 15.3301C26.7844 16.1385 26.9969 16.2525 27.4268 16.394C27.6685 16.4736 27.8931 16.5329 28.2238 16.6258C29.225 16.9069 29.8185 17.192 30.1927 17.5584C30.4158 17.7873 30.5196 18.0305 30.5516 18.2626C30.6698 19.1238 29.883 20.1877 27.8004 21.1543C25.5239 22.2109 22.7622 22.4785 20.854 22.2659C20.7076 22.2497 20.1873 22.1906 20.1855 22.1904C18.6591 21.9848 17.7884 23.9574 18.7045 25.3089C19.2949 26.1798 20.903 26.7467 22.512 26.747C26.201 26.7475 29.0365 25.1721 30.0912 23.8115C30.1228 23.7708 30.1259 23.7664 30.1756 23.6913C30.2275 23.613 30.1847 23.5699 30.1201 23.6142C29.2583 24.2038 25.4306 26.5447 21.3365 25.8405C21.3365 25.8405 20.839 25.7587 20.3848 25.582C20.0239 25.4417 19.2687 25.0942 19.1768 24.3193C22.4811 25.3411 24.5615 24.3752 24.5615 24.3752ZM13.0069 9.54826C14.276 8.08168 15.8384 6.80661 17.2379 6.09069C17.2863 6.06592 17.3377 6.11845 17.3114 6.16606C17.2003 6.36734 16.9864 6.79818 16.9185 7.1251C16.9079 7.17597 16.9634 7.21435 17.0063 7.18506C17.8771 6.59152 19.3917 5.95562 20.7202 5.87387C20.7773 5.87035 20.8048 5.94353 20.7594 5.9784C20.5574 6.13332 20.3364 6.34781 20.1751 6.56476C20.1476 6.60169 20.1734 6.65481 20.2194 6.65514C21.1523 6.66172 22.4675 6.98824 23.3245 7.46895C23.3825 7.50149 23.3412 7.61385 23.2764 7.59897C21.9795 7.30167 19.8566 7.07622 17.6513 7.61405C15.6827 8.09423 14.1801 8.83566 13.0839 9.63293C13.0286 9.67324 12.9621 9.60006 13.0069 9.54826Z" fill="#383838"/>
</g>
<defs>
<clipPath id="clip0_98_649">
<rect width="34" height="34" fill="white"/>
</clipPath>
</defs>
</svg>
